<svg width="16" height="16" viewBox="0 0 16 16" xmlns="http://www.w3.org/2000/svg"
  aria-hidden="true" focusable="false">
  <g fill-rule="evenodd">
    <rect fill="none" x="0" y="0" width="16" height="16"></rect>
    <path
      d="M14 0C15.1046 0 16 0.89543 16 2V15C16 15.5523 15.5523 16 15 16C14.8026 16 14.6096 15.9416 14.4453 15.8321L10.1831 14.0754C10.0622 14.0256 9.93273 14 9.80201 14H2C0.89543 14 0 13.1046 0 12V2C0 0.89543 0.89543 0 2 0H14ZM11.8911 3.5H11.4067L11.2679 3.50595L11.1448 3.52381C11.0679 3.53969 11.0015 3.5635 10.9454 3.59524L10.869 3.64882L10.7607 3.74864L10.6642 3.84969L9.03171 5.84803L8.94072 5.96753L8.85683 6.09672C8.77649 6.23077 8.70677 6.37937 8.6477 6.54252C8.61487 6.63316 8.58752 6.72543 8.56564 6.81933L8.53692 6.96142L8.50923 7.17913L8.5 7.40236V10.048L8.50923 10.1338L8.53692 10.2148C8.56154 10.2671 8.59846 10.3163 8.6477 10.3622C8.68708 10.3989 8.72867 10.4283 8.77247 10.4504L8.83982 10.478L8.91048 10.4945L8.98444 10.5H11.8911L11.9651 10.4945L12.0585 10.47C12.1189 10.4471 12.1753 10.4112 12.2278 10.3622C12.2607 10.3316 12.288 10.2995 12.3099 10.2661L12.3386 10.2148L12.3663 10.1338L12.3755 10.048V7.33622L12.3696 7.26346L12.3519 7.19512C12.3283 7.12898 12.2869 7.06945 12.2278 7.01654C12.195 6.98714 12.1607 6.96264 12.1248 6.94304L12.0698 6.91732L11.983 6.89252L11.8911 6.88425H11.3121L11.2549 6.8784L11.2014 6.86083C11.1669 6.84521 11.1349 6.82178 11.1054 6.79055C11.0817 6.76556 11.0666 6.7397 11.06 6.71294L11.0564 6.67216L11.0657 6.63005L11.0876 6.58661L12.3992 4.35984L12.446 4.26952L12.483 4.1638C12.5185 4.02478 12.4984 3.89354 12.4228 3.77008C12.3598 3.66719 12.2749 3.5937 12.1682 3.54961L12.084 3.52205L11.9917 3.50551L11.8911 3.5ZM5.96721 3.5H5.54332L5.42195 3.50595L5.31422 3.52381C5.24695 3.53969 5.18878 3.5635 5.1397 3.59524L5.07291 3.64882L4.97814 3.74864L4.89371 3.84969L3.46524 5.84803L3.38563 5.96753L3.28914 6.14195C3.22849 6.26397 3.17518 6.3975 3.12923 6.54252C3.10052 6.63316 3.07658 6.72543 3.05744 6.81933L3.03231 6.96142L3.00808 7.17913L3 7.40236V10.048L3.00808 10.1338L3.03231 10.2148C3.05385 10.2671 3.08616 10.3163 3.12923 10.3622C3.1637 10.3989 3.20009 10.4283 3.23841 10.4504L3.29734 10.478L3.35917 10.4945L3.42389 10.5H5.96721L6.03193 10.4945L6.11372 10.47C6.16653 10.4471 6.21591 10.4112 6.26186 10.3622C6.29058 10.3316 6.31452 10.2995 6.33366 10.2661L6.35879 10.2148L6.38302 10.1338L6.3911 10.048V7.33622L6.38593 7.26346L6.36295 7.17332C6.34151 7.11583 6.30781 7.06357 6.26186 7.01654C6.23315 6.98714 6.20309 6.96264 6.17169 6.94304L6.12358 6.91732L6.04766 6.89252L5.96721 6.88425H5.46061L5.41054 6.8784L5.36369 6.86083C5.33353 6.84521 5.30553 6.82178 5.27969 6.79055C5.25901 6.76556 5.24578 6.7397 5.23999 6.71294L5.23688 6.67216L5.24495 6.63005L5.26418 6.58661L6.41178 4.35984L6.45271 4.26952L6.48512 4.1638C6.51618 4.02478 6.49862 3.89354 6.43245 3.77008C6.37731 3.66719 6.30304 3.5937 6.20964 3.54961L6.13601 3.52205L6.0552 3.50551L5.96721 3.5Z"
      fill="currentColor" />
  </g>
</svg>