<svg width="16" height="16" viewBox="0 0 16 16" xmlns="http://www.w3.org/2000/svg"
  aria-hidden="true" focusable="false">
  <g fill-rule="evenodd">
    <rect fill="none" x="0" y="0" width="16" height="16"></rect>
    <path
      d="M9.6129 3.2097L9.70711 3.29289L13.7071 7.29289C14.0676 7.65338 14.0953 8.22061 13.7903 8.6129L13.7071 8.70711L9.70711 12.7071C9.31658 13.0976 8.68342 13.0976 8.29289 12.7071C7.93241 12.3466 7.90468 11.7794 8.2097 11.3871L8.29289 11.2929L10.585 9H3C2.44772 9 2 8.55228 2 8C2 7.48716 2.38604 7.06449 2.88338 7.00673L3 7H10.585L8.29289 4.70711C7.93241 4.34662 7.90468 3.77939 8.2097 3.3871L8.29289 3.29289C8.65338 2.93241 9.22061 2.90468 9.6129 3.2097Z"
      fill="currentColor" />
  </g>
</svg>