<svg width="16" height="16" viewBox="0 0 16 16" xmlns="http://www.w3.org/2000/svg"
  aria-hidden="true" focusable="false">
  <g fill-rule="evenodd">
    <rect fill="none" x="0" y="0" width="16" height="16"></rect>
    <path fill-rule="evenodd" clip-rule="evenodd"
      d="M8 0C8.85765 0 9.58922 0.539845 9.87343 1.29827C12.2697 2.08514 14 4.3405 14 7V9.5H15C15.5523 9.5 16 9.94772 16 10.5C16 11.0523 15.5523 11.5 15 11.5H1C0.447715 11.5 0 11.0523 0 10.5C0 9.94772 0.447715 9.5 1 9.5H2V7C2 4.3405 3.73031 2.08514 6.12657 1.29827C6.41078 0.539845 7.14235 0 8 0ZM8 3C5.79086 3 4 4.79086 4 7V9C4 9.27614 4.22386 9.5 4.5 9.5H11.5C11.7761 9.5 12 9.27614 12 9V7C12 4.79086 10.2091 3 8 3Z"
      fill="currentColor" />
    <path
      d="M9.87958 12.6851C9.91866 12.5779 10.0167 12.5 10.1308 12.5H11.6859C11.8363 12.5 11.9532 12.6321 11.9241 12.7796C11.5614 14.6156 9.94235 16 8 16C6.05765 16 4.43864 14.6156 4.07594 12.7796C4.0468 12.6321 4.16371 12.5 4.31406 12.5H5.8692C5.98327 12.5 6.08134 12.5779 6.12041 12.6851C6.4001 13.4522 7.13608 14 8 14C8.86391 14 9.5999 13.4522 9.87958 12.6851Z"
      fill="currentColor" />
  </g>
</svg>