<svg width="16" height="16" viewBox="0 0 16 16" xmlns="http://www.w3.org/2000/svg"
  aria-hidden="true" focusable="false">
  <g fill-rule="evenodd">
    <rect fill="none" x="0" y="0" width="16" height="16"></rect>
    <path
      d="M9.87343 1.29827C9.58922 0.539845 8.85765 0 8 0C7.14235 0 6.41078 0.539845 6.12657 1.29827C3.73031 2.08514 2 4.3405 2 7V9.5H1C0.447715 9.5 0 9.94772 0 10.5C0 11.0523 0.447715 11.5 1 11.5H15C15.5523 11.5 16 11.0523 16 10.5C16 9.94772 15.5523 9.5 15 9.5H14V7C14 4.3405 12.2697 2.08514 9.87343 1.29827Z"
      fill="currentColor" />
    <path
      d="M10.1308 12.5C10.0167 12.5 9.91866 12.5779 9.87958 12.6851C9.5999 13.4522 8.86391 14 8 14C7.13608 14 6.4001 13.4522 6.12041 12.6851C6.08134 12.5779 5.98327 12.5 5.8692 12.5H4.31406C4.16371 12.5 4.0468 12.6321 4.07594 12.7796C4.43864 14.6156 6.05765 16 8 16C9.94235 16 11.5614 14.6156 11.9241 12.7796C11.9532 12.6321 11.8363 12.5 11.6859 12.5H10.1308Z"
      fill="currentColor" />
  </g>
</svg>