<svg width="16" height="16" viewBox="0 0 16 16" xmlns="http://www.w3.org/2000/svg"
  aria-hidden="true" focusable="false">
  <g fill-rule="evenodd">
    <rect fill="none" x="0" y="0" width="16" height="16"></rect>
    <path
      d="M9.79375 1.14805C9.43162 0.454944 8.76715 0 7.99998 0C7.23281 0 6.56834 0.454944 6.20621 1.14805L0.288537 12.4742C-0.0967445 13.2116 -0.0713075 14.0475 0.217897 14.7049C0.50393 15.3551 1.14367 16 2.08231 16H13.9176C14.8563 16 15.496 15.3551 15.7821 14.7049C16.0713 14.0475 16.0967 13.2116 15.7114 12.4742L9.79375 1.14805ZM9 6C9 5.44772 8.55229 5 8 5C7.44772 5 7 5.44772 7 6V9C7 9.55228 7.44772 10 8 10C8.55228 10 9 9.55228 9 9V6ZM8 13C8.55229 13 9 12.5523 9 12C9 11.4477 8.55229 11 8 11C7.44772 11 7 11.4477 7 12C7 12.5523 7.44772 13 8 13Z"
      fill="currentColor" />
  </g>
</svg>