<svg width="16" height="16" viewBox="0 0 16 16" xmlns="http://www.w3.org/2000/svg"
  aria-hidden="true" focusable="false">
  <g fill-rule="evenodd">
    <rect fill="none" x="0" y="0" width="16" height="16"></rect>
    <path
      d="M8.00001 0C8.76718 5.96046e-08 9.43165 0.454944 9.79378 1.14805L15.7114 12.4742C16.0967 13.2116 16.0713 14.0475 15.7821 14.7049C15.4961 15.3551 14.8563 16 13.9177 16H2.08234C1.1437 16 0.503961 15.3551 0.217927 14.7049C-0.071277 14.0475 -0.096714 13.2116 0.288568 12.4742L6.20624 1.14805C6.56837 0.454944 7.23284 0 8.00001 0ZM8.00001 2.03809C7.99343 2.04805 7.9863 2.05999 7.97887 2.07421L2.0612 13.4003C1.9817 13.5525 1.98192 13.748 2.04861 13.8995C2.07408 13.9575 2.09644 13.9865 2.11056 14H13.8895C13.9036 13.9865 13.9259 13.9575 13.9514 13.8995C14.0181 13.748 14.0183 13.5525 13.9388 13.4003L8.02115 2.07421C8.01372 2.05999 8.00658 2.04805 8.00001 2.03809ZM13.8737 14.0102C13.8737 14.0102 13.8768 14.0066 13.8849 14.0041C13.878 14.0098 13.8737 14.0102 13.8737 14.0102ZM2.12633 14.0102C2.12633 14.0102 2.12199 14.0098 2.11515 14.0041C2.12321 14.0066 2.12633 14.0102 2.12633 14.0102Z"
      fill="currentColor" />
    <path
      d="M8.00001 5C8.55229 5 9.00001 5.44772 9.00001 6V9C9.00001 9.55228 8.55229 10 8.00001 10C7.44772 10 7.00001 9.55228 7.00001 9V6C7.00001 5.44772 7.44772 5 8.00001 5Z"
      fill="currentColor" />
    <path
      d="M9.00001 12C9.00001 12.5523 8.55229 13 8.00001 13C7.44772 13 7.00001 12.5523 7.00001 12C7.00001 11.4477 7.44772 11 8.00001 11C8.55229 11 9.00001 11.4477 9.00001 12Z"
      fill="currentColor" />
  </g>
</svg>