<svg width="16" height="16" viewBox="0 0 16 16" xmlns="http://www.w3.org/2000/svg"
  aria-hidden="true" focusable="false">
  <g fill-rule="evenodd">
    <rect fill="none" x="0" y="0" width="16" height="16"></rect>
    <path
      d="M7.98537 0C10.2232 0 12.1284 0.781262 13.6997 2.34304C14.4517 3.0953 15.0235 3.95506 15.414 4.92158C15.8042 5.88834 16 6.91436 16 8.00012C16 9.09539 15.8067 10.1217 15.4215 11.0784C15.0357 12.0354 14.4665 12.881 13.7145 13.6142C12.9337 14.3855 12.0479 14.9762 11.0572 15.3857C10.0669 15.7952 9.04289 16 7.98587 16C6.92886 16 5.91684 15.798 4.95008 15.3927C3.98356 14.9882 3.1168 14.4025 2.35004 13.636C1.58327 12.8695 1.00002 12.0049 0.600009 11.0429C0.200003 10.0809 0 9.06689 0 8.00012C0 6.94286 0.202253 5.92634 0.607009 4.95008C1.01177 3.97381 1.60003 3.10005 2.37129 2.32854C3.89506 0.776512 5.76634 0 7.98537 0ZM5.78534 5.51509C5.10883 5.51509 4.54932 5.73909 4.10656 6.1866C3.66381 6.63435 3.4423 7.23886 3.4423 8.00088C3.4423 8.78164 3.66131 9.39115 4.09931 9.82915C4.53732 10.2677 5.11383 10.4864 5.82809 10.4864C6.27585 10.4864 6.6856 10.3747 7.05661 10.1507C7.37504 9.95887 7.63397 9.70592 7.83338 9.39149L7.92812 9.22914L6.94261 8.72914C6.75186 9.18614 6.42335 9.4149 5.95659 9.4149C5.60409 9.4149 5.33733 9.28615 5.15633 9.02889C4.97558 8.77164 4.88508 8.42913 4.88508 8.00063C4.88508 7.05761 5.24258 6.58635 5.95659 6.58635C6.0996 6.58635 6.25435 6.6341 6.4211 6.7291C6.5543 6.80531 6.6707 6.92743 6.77056 7.09496L6.84236 7.22911L7.91412 6.67185C7.48537 5.90034 6.77611 5.51459 5.78534 5.51509ZM8.73564 6.1866C9.17814 5.73909 9.73765 5.51509 10.4139 5.51509C11.4044 5.51459 12.1097 5.90034 12.5284 6.67185L11.4712 7.22911L11.3995 7.09496C11.2996 6.92743 11.1829 6.80531 11.0497 6.7291C10.8827 6.6341 10.7229 6.58635 10.5712 6.58635C9.8569 6.58635 9.4994 7.05761 9.4994 8.00063C9.4994 8.42913 9.59015 8.77164 9.7709 9.02889C9.95166 9.28615 10.2182 9.4149 10.5712 9.4149C11.0374 9.4149 11.3662 9.18614 11.5564 8.72914L12.5564 9.22914L12.4407 9.41755C12.2371 9.71992 11.9804 9.9642 11.6712 10.1507C11.2997 10.3747 10.8949 10.4864 10.4569 10.4864C9.7329 10.4864 9.15464 10.2677 8.72164 9.82915C8.28763 9.39115 8.07113 8.78164 8.07113 8.00088C8.07113 7.23886 8.29238 6.63435 8.73564 6.1866Z"
      fill="currentColor" />
  </g>
</svg>