<svg xmlns="http://www.w3.org/2000/svg" width="16" height="16" viewBox="0 0 16 16" aria-hidden="true" focusable="false"><path fill="currentColor" d="M7.98537477,0 C10.2231597,0 12.1284395,0.781262207 13.6997141,2.34303661 C14.4517258,3.09529836 15.0234847,3.9550618 15.4139908,4.9215769 C15.8042469,5.88834201 16,6.91435804 16,8.000125 C16,9.09539212 15.806747,10.1216582 15.421491,11.0784231 C15.0357349,12.0354381 14.466476,12.8809513 13.7144643,13.6142127 C12.9337021,14.3854748 12.0479382,14.976234 11.0571728,15.3857404 C10.0669073,15.7952468 9.0428913,16 7.98587478,16 C6.92885826,16 5.91684245,15.7979968 4.95007734,15.3927405 C3.98356224,14.9882342 3.1167987,14.402475 2.35003672,13.6359631 C1.58327474,12.8694511 1.00001563,12.0049376 0.600009375,11.0429225 C0.200003125,10.0809075 0,9.06689167 0,8.000125 C0,6.94285848 0.20225316,5.9263426 0.607009485,4.95007734 C1.01176581,3.97381209 1.600025,3.10004844 2.37128705,2.32853638 C3.89506086,0.776512133 5.7663401,0 7.98537477,0 Z M5.7853404,5.5150852 C5.10882983,5.5150852 4.54932108,5.73908967 4.10656417,6.18659667 C3.66380725,6.63435366 3.44230379,7.23886311 3.44230379,8.00087501 C3.44230379,8.78163721 3.66130721,9.39114674 4.09931405,9.82915358 C4.5373209,10.2676604 5.1138299,10.4864139 5.82809106,10.4864139 C6.27584806,10.4864139 6.68560446,10.3746621 7.05661026,10.1506586 C7.37504381,9.95886989 7.63396622,9.70591696 7.8333775,9.39148493 L7.92812388,9.22914421 L6.94260848,8.72913639 C6.7518555,9.18614353 6.42335036,9.41489711 5.95659307,9.41489711 C5.60408756,9.41489711 5.3373334,9.2861451 5.15633057,9.02889108 C4.97557774,8.77163706 4.88507633,8.42913171 4.88507633,8.00062501 C4.88507633,7.05761028 5.24258192,6.58635291 5.95659307,6.58635291 C6.09959531,6.58635291 6.25434772,6.63410366 6.42110033,6.72910514 C6.55430241,6.80530633 6.67070423,6.92742824 6.77056179,7.09495886 L6.84235691,7.22911295 L7.91412366,6.67185425 C7.48536696,5.90034219 6.77610588,5.51458617 5.7853404,5.5150852 Z M10.4139127,5.5150852 C9.73765215,5.5150852 9.17814341,5.73908967 8.73563649,6.18659667 C8.29237957,6.63435366 8.07112611,7.23886311 8.07112611,8.00087501 C8.07112611,8.78163721 8.28762949,9.39114674 8.72163628,9.82915358 C9.15464304,10.2676604 9.73290208,10.4864139 10.4569134,10.4864139 C10.8949202,10.4864139 11.2996766,10.3746621 11.6711824,10.1506586 C11.9803539,9.96419736 12.237094,9.71992271 12.4406793,9.4175453 L12.5564462,9.22914421 L11.5564306,8.72913639 C11.3661776,9.18614353 11.0374225,9.41489711 10.5711652,9.41489711 C10.2181597,9.41489711 9.95165549,9.2861451 9.77090267,9.02889108 C9.59014985,8.77163706 9.49939843,8.42913171 9.49939843,8.00062501 C9.49939843,7.05761028 9.85690401,6.58635291 10.5711652,6.58635291 C10.7229175,6.58635291 10.88267,6.63410366 11.0496727,6.72910514 C11.1828747,6.80530633 11.2995966,6.92742824 11.3994541,7.09495886 L11.4711792,7.22911295 L12.5284458,6.67185425 C12.1096892,5.90034219 11.4044282,5.51458617 10.4139127,5.5150852 Z"></path></svg>