<svg width="16" height="16" viewBox="0 0 16 16" xmlns="http://www.w3.org/2000/svg"
  aria-hidden="true" focusable="false">
  <g fill-rule="evenodd">
    <rect fill="none" x="0" y="0" width="16" height="16"></rect>
    <path
      d="M13.6997 2.34304C12.1284 0.781262 10.2232 0 7.98537 0C5.76634 0 3.89506 0.776512 2.37129 2.32854C1.60003 3.10005 1.01177 3.97381 0.607009 4.95008C0.202253 5.92634 0 6.94286 0 8.00012C0 9.06689 0.200003 10.0809 0.600009 11.0429C1.00002 12.0049 1.58327 12.8695 2.35004 13.636C3.1168 14.4025 3.98356 14.9882 4.95008 15.3927C5.91684 15.798 6.92886 16 7.98587 16C9.04289 16 10.0669 15.7952 11.0572 15.3857C12.0479 14.9762 12.9337 14.3855 13.7145 13.6142C14.4665 12.881 15.0357 12.0354 15.4215 11.0784C15.8067 10.1217 16 9.09539 16 8.00012C16 6.91436 15.8042 5.88834 15.414 4.92158C15.0235 3.95506 14.4517 3.0953 13.6997 2.34304ZM3.3998 3.3573C4.64757 2.08128 6.18585 1.44302 8.01438 1.44302C9.8239 1.44302 11.3712 2.08603 12.6577 3.3718C13.2762 3.99131 13.748 4.69582 14.0712 5.48634C14.395 6.27685 14.557 7.11486 14.557 8.00062C14.557 9.83915 13.9335 11.3677 12.6859 12.5867C12.0379 13.2152 11.3124 13.6957 10.5077 14.0295C9.7019 14.363 8.87139 14.5292 8.01438 14.5292C7.14761 14.5292 6.31885 14.365 5.52859 14.0365C4.73757 13.7075 4.02831 13.2317 3.3998 12.6077C2.77104 11.9839 2.28804 11.2744 1.94978 10.4787C1.61128 9.6839 1.44252 8.85764 1.44252 8.00037C1.44252 7.13361 1.61128 6.3026 1.94978 5.50734C2.28779 4.71207 2.77104 3.99556 3.3998 3.3573ZM7.91412 6.67185L6.84236 7.22911C6.72786 6.99136 6.5876 6.82436 6.4211 6.7291C6.25435 6.6341 6.0996 6.58635 5.95659 6.58635C5.24258 6.58635 4.88508 7.05761 4.88508 8.00063C4.88508 8.42913 4.97558 8.77164 5.15633 9.02889C5.33733 9.28615 5.60409 9.4149 5.95659 9.4149C6.42335 9.4149 6.75186 9.18614 6.94261 8.72914L7.92812 9.22914C7.71862 9.6199 7.42812 9.9269 7.05661 10.1507C6.6856 10.3747 6.27585 10.4864 5.82809 10.4864C5.11383 10.4864 4.53732 10.2677 4.09931 9.82915C3.66131 9.39115 3.4423 8.78164 3.4423 8.00088C3.4423 7.23886 3.66381 6.63435 4.10656 6.1866C4.54932 5.73909 5.10883 5.51509 5.78534 5.51509C6.77611 5.51459 7.48537 5.90034 7.91412 6.67185ZM11.4712 7.22911L12.5284 6.67185C12.1097 5.90034 11.4044 5.51459 10.4139 5.51509C9.73765 5.51509 9.17814 5.73909 8.73564 6.1866C8.29238 6.63435 8.07113 7.23886 8.07113 8.00088C8.07113 8.78164 8.28763 9.39115 8.72164 9.82915C9.15464 10.2677 9.7329 10.4864 10.4569 10.4864C10.8949 10.4864 11.2997 10.3747 11.6712 10.1507C12.0422 9.9269 12.3377 9.6199 12.5564 9.22914L11.5564 8.72914C11.3662 9.18614 11.0374 9.4149 10.5712 9.4149C10.2182 9.4149 9.95166 9.28615 9.7709 9.02889C9.59015 8.77164 9.4994 8.42913 9.4994 8.00063C9.4994 7.05761 9.8569 6.58635 10.5712 6.58635C10.7229 6.58635 10.8827 6.6341 11.0497 6.7291C11.2162 6.82436 11.3569 6.99136 11.4712 7.22911Z"
      fill="currentColor" />
  </g>
</svg>