<svg xmlns="http://www.w3.org/2000/svg" width="16" height="16" viewBox="0 0 16 16" aria-hidden="true" focusable="false"><path fill="currentColor" d="M7.98325,0 C10.22125,0 12.13125,0.77975 13.70325,2.34175 C14.4555,3.09425 15.027,3.953 15.4175,4.92425 C15.8075,5.8865 16,6.91425 16,8 C16,9.09575 15.8075,10.125 15.41725,11.08675 C15.0365,12.039 14.467,12.88 13.71425,13.61325 C12.933,14.385 12.0495,14.97375 11.059,15.3835 C10.06825,15.79325 9.0405,15.99975 7.98325,15.99975 C6.92575,15.99975 5.9125,15.80075 4.941,15.40025 C3.97875,14.99075 3.11275,14.40325 2.3415,13.641 C1.5795,12.87 0.99925,12.0045 0.59925,11.042 C0.19925,10.08 0,9.067 0,8 C0,6.94275 0.19925,5.92975 0.59925,4.958 C1.009,3.97675 1.598,3.09675 2.36975,2.325 C3.8935,0.7725 5.764,0 7.98325,0 Z M8,3.395 C5.58107744,3.395 4.82033452,5.48533799 4.70940247,7.46012326 L4.70087556,7.64485352 L4.6945,8 L4.70087337,8.35518364 L4.70087337,8.35518364 L4.72089438,8.7144321 C4.86646914,10.6360123 5.652,12.605 8,12.605 C10.641,12.605 11.30525,10.113 11.30525,8 C11.30525,5.88725 10.641,3.395 8,3.395 Z M9.3165,6.62175 L9.35676736,6.87076968 C9.37957986,7.03692014 9.39473958,7.20226042 9.40471875,7.36028125 L9.41611111,7.59100926 L9.42267213,8.10741209 L9.42267213,8.10741209 L9.41475695,8.47041107 L9.41475695,8.47041107 L9.39995748,8.73740123 L9.39995748,8.73740123 L9.37404324,9.01600457 L9.37404324,9.01600457 L9.33401712,9.29903864 C9.19778738,10.1004619 8.85553704,10.86875 8.0005,10.86875 C7.92916667,10.86875 7.86161111,10.86375 7.79738889,10.8536759 L7.7035,10.83475 L7.569,10.7905 C7.28976923,10.6716538 7.10597041,10.4641923 7.29524761,10.1091259 L7.3505,10.01725 L9.3165,6.62175 Z M8,5.1315 C8.10725,5.1315 8.205,5.148 8.297,5.17075 C8.46611111,5.31652778 8.55838272,5.51149074 8.44862414,5.77460185 L8.39775,5.8765 L6.63875,9.109 L6.611592,8.86531 C6.589368,8.62408 6.581022,8.39248 6.578238,8.19076 L6.57856145,7.77758895 L6.58524468,7.52944923 L6.58524468,7.52944923 L6.60004801,7.26251269 L6.60004801,7.26251269 L6.62596977,6.98396115 L6.62596977,6.98396115 L6.66600828,6.70097644 C6.80228121,5.89968896 7.14464815,5.1315 8,5.1315 Z"></path></svg>