<svg width="16" height="16" viewBox="0 0 16 16" xmlns="http://www.w3.org/2000/svg"
  aria-hidden="true" focusable="false">
  <g fill-rule="evenodd">
    <rect fill="none" x="0" y="0" width="16" height="16"></rect>
    <path
      d="M13.7032 2.34175C12.1313 0.77975 10.2213 0 7.98325 0C5.764 0 3.8935 0.7725 2.36975 2.325C1.598 3.09675 1.009 3.97675 0.59925 4.958C0.19925 5.92975 0 6.94275 0 8C0 9.067 0.19925 10.08 0.59925 11.042C0.99925 12.0045 1.5795 12.87 2.3415 13.641C3.11275 14.4032 3.97875 14.9908 4.941 15.4003C5.9125 15.8008 6.92575 15.9998 7.98325 15.9998C9.0405 15.9998 10.0682 15.7933 11.059 15.3835C12.0495 14.9738 12.933 14.385 13.7142 13.6132C14.467 12.88 15.0365 12.039 15.4172 11.0868C15.8075 10.125 16 9.09575 16 8C16 6.91425 15.8075 5.8865 15.4175 4.92425C15.027 3.953 14.4555 3.09425 13.7032 2.34175ZM4.7094 7.46012C4.82033 5.48534 5.58108 3.395 8 3.395C10.641 3.395 11.3053 5.88725 11.3053 8C11.3053 10.113 10.641 12.605 8 12.605C5.652 12.605 4.86647 10.636 4.72089 8.71443L4.70087 8.35518L4.6945 8L4.70088 7.64485L4.7094 7.46012ZM9.3165 6.62175L9.35677 6.87077C9.37958 7.03692 9.39474 7.20226 9.40472 7.36028L9.41611 7.59101L9.42267 8.10741L9.41476 8.47041L9.39996 8.7374L9.37404 9.016L9.33402 9.29904C9.19779 10.1005 8.85554 10.8687 8.0005 10.8687C7.92917 10.8687 7.86161 10.8637 7.79739 10.8537L7.7035 10.8347L7.569 10.7905C7.28977 10.6717 7.10597 10.4642 7.29525 10.1091L7.3505 10.0173L9.3165 6.62175ZM8.297 5.17075C8.205 5.148 8.10725 5.1315 8 5.1315C7.14465 5.1315 6.80228 5.89969 6.66601 6.70098L6.62597 6.98396L6.60005 7.26251L6.58524 7.52945L6.57856 7.77759L6.57824 8.19076C6.58102 8.39248 6.58937 8.62408 6.61159 8.86531L6.63875 9.109L8.39775 5.8765L8.44862 5.7746C8.55838 5.51149 8.46611 5.31653 8.297 5.17075Z"
      fill="currentColor" />
  </g>
</svg>