<svg width="16" height="16" viewBox="0 0 16 16" xmlns="http://www.w3.org/2000/svg"
  aria-hidden="true" focusable="false">
  <g fill-rule="evenodd">
    <rect fill="none" x="0" y="0" width="16" height="16"></rect>
    <path
      d="M15.5792 2.33186C16.0294 2.65172 16.1351 3.276 15.8152 3.72623L8.81521 13.5792C8.61973 13.8543 8.29864 14.0123 7.96136 13.9993C7.62409 13.9862 7.31616 13.8039 7.1425 13.5145L4.14251 8.5145C3.85836 8.04092 4.01192 7.42666 4.4855 7.14251C4.95908 6.85836 5.57334 7.01193 5.85749 7.48551L8.07059 11.174L14.1848 2.5679C14.5047 2.11767 15.1289 2.01199 15.5792 2.33186Z"
      fill="currentColor" />
    <path
      d="M0.485503 7.14251C0.959084 6.85836 1.57334 7.01193 1.85749 7.48551L4.85749 12.4855C5.14164 12.9591 4.98807 13.5734 4.51449 13.8575C4.04091 14.1416 3.42665 13.9881 3.1425 13.5145L0.142506 8.5145C-0.141643 8.04092 0.0119229 7.42666 0.485503 7.14251Z"
      fill="currentColor" />
    <path
      d="M11.6 2.2C12.0418 2.53137 12.1314 3.15817 11.8 3.6L8.8 7.6C8.46863 8.04183 7.84183 8.13137 7.4 7.8C6.95818 7.46863 6.86863 6.84183 7.2 6.4L10.2 2.4C10.5314 1.95817 11.1582 1.86863 11.6 2.2Z"
      fill="currentColor" />
  </g>
</svg>