<svg width="16" height="16" viewBox="0 0 16 16" xmlns="http://www.w3.org/2000/svg"
  aria-hidden="true" focusable="false">
  <g fill-rule="evenodd">
    <rect fill="none" x="0" y="0" width="16" height="16"></rect>
    <path fill-rule="evenodd" clip-rule="evenodd"
      d="M2 0C0.895431 0 0 0.895431 0 2V14C0 15.1046 0.895431 16 2 16H14C15.1046 16 16 15.1046 16 14V2C16 0.895431 15.1046 0 14 0H2ZM12.1801 3.63558C11.8408 3.39804 11.3731 3.48057 11.1356 3.8199L6.548 10.3722L4.89312 7.61413L4.84379 7.54172C4.61473 7.24416 4.19394 7.15899 3.86413 7.35688C3.50894 7.56999 3.39377 8.03069 3.60688 8.38587L5.85688 12.1359L5.91007 12.2135C6.21355 12.6028 6.82124 12.5989 7.11442 12.1801L12.3644 4.6801L12.4136 4.59967C12.5877 4.27017 12.4933 3.85484 12.1801 3.63558Z"
      fill="currentColor" />
  </g>
</svg>