<svg width="16" height="16" viewBox="0 0 16 16" xmlns="http://www.w3.org/2000/svg"
  aria-hidden="true" focusable="false">
  <g fill-rule="evenodd">
    <rect fill="none" x="0" y="0" width="16" height="16"></rect>
    <path
      d="M8 0C12.0523 0 16 3.94772 16 8C16 12.0523 12.0523 16 8 16C3.94772 16 0 12.0523 0 8C0 3.94772 3.94772 0 8 0ZM8 2C5.05228 2 2 5.05228 2 8C2 10.9477 5.05228 14 8 14C10.9477 14 14 10.9477 14 8C14 5.05228 10.9477 2 8 2Z"
      fill="currentColor" />
    <path
      d="M8 3C8.55228 3 9 3.44772 9 4V7.46482L11.5547 9.16795C12.0142 9.4743 12.1384 10.0952 11.8321 10.5547C11.5257 11.0142 10.9048 11.1384 10.4453 10.8321L7.4453 8.83205C7.1671 8.64658 7 8.33435 7 8V4C7 3.44772 7.44772 3 8 3Z"
      fill="currentColor" />
  </g>
</svg>