<svg width="16" height="16" viewBox="0 0 16 16" xmlns="http://www.w3.org/2000/svg"
  aria-hidden="true" focusable="false">
  <g fill-rule="evenodd">
    <rect fill="none" x="0" y="0" width="16" height="16"></rect>
    <path
      d="M16 8C16 3.94772 12.0523 0 8 0C3.94772 0 0 3.94772 0 8C0 12.0523 3.94772 16 8 16C12.0523 16 16 12.0523 16 8ZM9 4C9 3.44772 8.55229 3 8 3C7.44772 3 7 3.44772 7 4V8C7 8.33435 7.1671 8.64658 7.4453 8.83205L10.4453 10.8321C10.9048 11.1384 11.5257 11.0142 11.8321 10.5547C12.1384 10.0952 12.0142 9.4743 11.5547 9.16795L9 7.46482V4Z"
      fill="currentColor" />
  </g>
</svg>