<svg width="16" height="16" viewBox="0 0 12 12" fill="none" xmlns="http://www.w3.org/2000/svg">
<path fill-rule="evenodd" clip-rule="evenodd" d="M6 0C9.03921 0 12 2.96079 12 6C12 9.03921 9.03921 12 6 12C2.96079 12 0 9.03921 0 6C0 2.96079 2.96079 0 6 0ZM6 1.5C3.78921 1.5 1.5 3.78921 1.5 6C1.5 8.21079 3.78921 10.5 6 10.5C8.21079 10.5 10.5 8.21079 10.5 6C10.5 3.78921 8.21079 1.5 6 1.5Z" fill="currentColor"/>
<path fill-rule="evenodd" clip-rule="evenodd" d="M6 2.25C6.41421 2.25 6.75 2.58579 6.75 3V5.59861L8.66603 6.87596C9.01067 7.10573 9.1038 7.57138 8.87404 7.91603C8.64427 8.26067 8.17862 8.3538 7.83397 8.12404L5.58397 6.62404C5.37533 6.48494 5.25 6.25076 5.25 6V3C5.25 2.58579 5.58579 2.25 6 2.25Z" fill="currentColor"/>
</svg>
