<svg width="16" height="16" viewBox="0 0 16 16" xmlns="http://www.w3.org/2000/svg"
  aria-hidden="true" focusable="false">
  <g fill-rule="evenodd">
    <rect fill="none" x="0" y="0" width="16" height="16"></rect>
    <path fill-rule="evenodd" clip-rule="evenodd"
      d="M12.7071 4.29289C12.3166 3.90237 11.6834 3.90237 11.2929 4.29289C10.9024 4.68342 10.9024 5.31658 11.2929 5.70711L13.5858 8L11.2929 10.2929C10.9024 10.6834 10.9024 11.3166 11.2929 11.7071C11.6834 12.0976 12.3166 12.0976 12.7071 11.7071L15.7071 8.70711C16.0488 8.3654 16.0915 7.83792 15.8352 7.44977C15.7986 7.39432 15.7559 7.34171 15.7071 7.29289L12.7071 4.29289ZM3.29289 4.29289C3.68342 3.90237 4.31658 3.90237 4.70711 4.29289C5.09763 4.68342 5.09763 5.31658 4.70711 5.70711L2.41421 8L4.70711 10.2929C5.09763 10.6834 5.09763 11.3166 4.70711 11.7071C4.31658 12.0976 3.68342 12.0976 3.29289 11.7071L0.292894 8.70711C-0.0976312 8.31658 -0.0976312 7.68342 0.292894 7.29289L3.29289 4.29289Z"
      fill="currentColor" />
  </g>
</svg>