<svg width="16" height="16" viewBox="0 0 16 16" xmlns="http://www.w3.org/2000/svg"
  aria-hidden="true" focusable="false">
  <g fill-rule="evenodd">
    <rect fill="none" x="0" y="0" width="16" height="16"></rect>
    <path
      d="M15.9933 0.883379C15.9355 0.38604 15.5128 0 15 0H7L6.88338 0.00672773C6.38604 0.0644928 6 0.487164 6 1V11L6.00673 11.1166C6.06449 11.614 6.48716 12 7 12H15L15.1166 11.9933C15.614 11.9355 16 11.5128 16 11V1L15.9933 0.883379ZM0.00672773 15.1166C0.0644928 15.614 0.487164 16 1 16H9L9.11662 15.9933C9.61396 15.9355 10 15.5128 10 15V14C10 13.4477 9.55229 13 9 13H5V5C5 4.44772 4.55228 4 4 4H1L0.883379 4.00673C0.38604 4.06449 0 4.48716 0 5V15L0.00672773 15.1166Z"
      fill="currentColor" />
  </g>
</svg>