<svg xmlns="http://www.w3.org/2000/svg" width="16" height="16" viewBox="0 0 16 16" aria-hidden="true" focusable="false"><path fill="currentColor" d="M1,16 C0.487164161,16 0.0644928393,15.6139598 0.00672773133,15.1166211 L0,15 L0,5 C0,4.48716416 0.38604019,4.06449284 0.883378875,4.00672773 L1,4 L4,4 C4.55228475,4 5,4.44771525 5,5 L5,13 L9,13 C9.55228475,13 10,13.4477153 10,14 L10,15 C10,15.5128358 9.61395981,15.9355072 9.11662113,15.9932723 L9,16 L1,16 Z M15,0 C15.5128358,0 15.9355072,0.38604019 15.9932723,0.883378875 L16,1 L16,11 C16,11.5128358 15.6139598,11.9355072 15.1166211,11.9932723 L15,12 L7,12 C6.48716416,12 6.06449284,11.6139598 6.00672773,11.1166211 L6,11 L6,1 C6,0.487164161 6.38604019,0.0644928393 6.88337887,0.00672773133 L7,0 L15,0 Z"></path></svg>