<svg width="16" height="16" viewBox="0 0 16 16" fill="none" xmlns="http://www.w3.org/2000/svg">
<path fill-rule="evenodd" clip-rule="evenodd" d="M6.95625 0.0675722C7.29825 0.0229612 7.64667 0 8 0C8.35333 0 8.70175 0.0229611 9.04375 0.0675721C9.53055 0.13107 9.8737 0.577172 9.8102 1.06397C9.7467 1.55076 9.3006 1.89391 8.8138 1.83042C8.54785 1.79572 8.27624 1.77778 8 1.77778C7.72376 1.77778 7.45215 1.79572 7.1862 1.83042C6.6994 1.89391 6.2533 1.55076 6.1898 1.06397C6.1263 0.577172 6.46945 0.131071 6.95625 0.0675722ZM11.6243 1.81642C11.9234 1.42716 12.4815 1.3541 12.8708 1.65323C13.4246 2.07887 13.9211 2.57536 14.3468 3.12924C14.6459 3.5185 14.5728 4.07655 14.1836 4.37569C13.7943 4.67482 13.2363 4.60175 12.9371 4.21249C12.6056 3.78113 12.2189 3.39435 11.7875 3.06287C11.3982 2.76373 11.3252 2.20568 11.6243 1.81642ZM4.37569 1.81643C4.67482 2.20568 4.60175 2.76374 4.21249 3.06287C3.78113 3.39435 3.39435 3.78113 3.06287 4.21249C2.76373 4.60175 2.20568 4.67482 1.81642 4.37569C1.42716 4.07656 1.3541 3.51851 1.65323 3.12925C2.07887 2.57536 2.57536 2.07887 3.12924 1.65323C3.5185 1.3541 4.07655 1.42717 4.37569 1.81643ZM14.936 6.1898C15.4228 6.1263 15.8689 6.46945 15.9324 6.95625C15.977 7.29825 16 7.64667 16 8C16 8.35333 15.977 8.70175 15.9324 9.04375C15.8689 9.53055 15.4228 9.8737 14.936 9.8102C14.4492 9.7467 14.1061 9.3006 14.1696 8.8138C14.2043 8.54785 14.2222 8.27624 14.2222 8C14.2222 7.72376 14.2043 7.45215 14.1696 7.1862C14.1061 6.6994 14.4492 6.2533 14.936 6.1898ZM1.06397 6.1898C1.55076 6.2533 1.89391 6.6994 1.83042 7.1862C1.79572 7.45215 1.77778 7.72376 1.77778 8C1.77778 8.27624 1.79572 8.54785 1.83042 8.8138C1.89391 9.3006 1.55076 9.7467 1.06397 9.8102C0.577172 9.8737 0.131071 9.53055 0.0675722 9.04375C0.0229612 8.70175 0 8.35333 0 8C0 7.64667 0.0229611 7.29825 0.0675721 6.95625C0.13107 6.46945 0.577172 6.1263 1.06397 6.1898ZM14.1836 11.6243C14.5728 11.9234 14.6459 12.4815 14.3468 12.8708C13.9211 13.4246 13.4246 13.9211 12.8708 14.3468C12.4815 14.6459 11.9234 14.5728 11.6243 14.1836C11.3252 13.7943 11.3982 13.2363 11.7875 12.9371C12.2189 12.6056 12.6056 12.2189 12.9371 11.7875C13.2363 11.3982 13.7943 11.3252 14.1836 11.6243ZM1.81643 11.6243C2.20568 11.3252 2.76374 11.3982 3.06287 11.7875C3.39435 12.2189 3.78113 12.6056 4.21249 12.9371C4.60175 13.2363 4.67482 13.7943 4.37569 14.1836C4.07656 14.5728 3.51851 14.6459 3.12925 14.3468C2.57536 13.9211 2.07887 13.4246 1.65323 12.8708C1.3541 12.4815 1.42717 11.9234 1.81643 11.6243ZM6.1898 14.936C6.2533 14.4492 6.6994 14.1061 7.1862 14.1696C7.45215 14.2043 7.72376 14.2222 8 14.2222C8.27624 14.2222 8.54785 14.2043 8.8138 14.1696C9.3006 14.1061 9.7467 14.4492 9.8102 14.936C9.8737 15.4228 9.53055 15.8689 9.04375 15.9324C8.70175 15.977 8.35333 16 8 16C7.64667 16 7.29825 15.977 6.95625 15.9324C6.46945 15.8689 6.1263 15.4228 6.1898 14.936Z" fill="currentColor"/>
</svg>
