<svg xmlns="http://www.w3.org/2000/svg" width="16" height="16" viewBox="0 0 16 16">
  <path fill="currentColor" fill-rule="nonzero" d="M8.70711 11.7071L8.6129 11.7903L8.5114 11.8596C8.12751 12.0884 7.62334 12.0375 7.29289 11.7071L3.29289 7.70711L3.2097 7.6129C2.90468 7.22061 2.93241 6.65338 3.29289 6.29289L3.3871 6.2097C3.77939 5.90468 4.34662 5.93241 4.70711 6.29289L7 8.585V1L7.00673 0.883379C7.06449 0.38604 7.48716 0 8 0C8.55229 0 9 0.447715 9 1V8.585L11.2929 6.29289L11.3871 6.2097C11.7794 5.90468 12.3466 5.93241 12.7071 6.29289C13.0976 6.68342 13.0976 7.31658 12.7071 7.70711L8.70711 11.7071ZM15.9933 9.88338C15.9355 9.38604 15.5128 9 15 9L14.8834 9.00673C14.386 9.06449 14 9.48716 14 10V14H2V10L1.99327 9.88338C1.93551 9.38604 1.51284 9 1 9C0.447715 9 0 9.44771 0 10V15L0.00672773 15.1166C0.0644928 15.614 0.487164 16 1 16H15L15.1166 15.9933C15.614 15.9355 16 15.5128 16 15V10L15.9933 9.88338Z" />
</svg>
