<svg width="16" height="16" viewBox="0 0 16 16" xmlns="http://www.w3.org/2000/svg"
  aria-hidden="true" focusable="false">
  <g fill-rule="evenodd">
    <rect fill="none" x="0" y="0" width="16" height="16"></rect>
    <path
      d="M3.53768 13.7449C3.35997 13.915 3.08113 14 2.70119 14H1.94742C1.56747 14 1.2917 13.8457 1.12011 13.537C0.948523 13.2283 0.96078 12.8913 1.15688 12.526L3.19757 8.70866C3.27111 8.58268 3.26192 8.46614 3.16999 8.35906C3.07807 8.25197 2.97083 8.19843 2.84826 8.19843H1.94742C1.75132 8.19843 1.57666 8.12283 1.42346 7.97165C1.27025 7.82047 1.19365 7.6378 1.19365 7.42362V2.7748C1.19365 2.57323 1.27025 2.3937 1.42346 2.23622C1.57666 2.07874 1.75132 2 1.94742 2H6.47002C6.66613 2 6.84078 2.07874 6.99398 2.23622C7.14719 2.3937 7.22379 2.57323 7.22379 2.7748V7.31024C7.22379 7.82677 7.14719 8.31811 6.99398 8.78425C6.84078 9.25039 6.64161 9.64724 6.39649 9.9748L3.98811 13.2252C3.86554 13.4016 3.7154 13.5748 3.53768 13.7449ZM11.3139 13.7449C11.1362 13.915 10.8635 14 10.4958 14H9.74201C9.36206 14 9.08323 13.8457 8.90551 13.537C8.7278 13.2283 8.74312 12.8913 8.95147 12.526L10.9738 8.70866C11.0473 8.58268 11.0412 8.46614 10.9554 8.35906C10.8696 8.25197 10.7654 8.19843 10.6429 8.19843H9.74201C9.54591 8.19843 9.37126 8.12283 9.21805 7.97165C9.06485 7.82047 8.98824 7.6378 8.98824 7.42362V2.7748C8.98824 2.57323 9.06178 2.3937 9.20886 2.23622C9.35594 2.07874 9.53365 2 9.74201 2H14.2462C14.4423 2 14.617 2.07874 14.7702 2.23622C14.9234 2.3937 15 2.57323 15 2.7748V7.31024C15 7.82677 14.9265 8.31811 14.7794 8.78425C14.6323 9.25039 14.4301 9.64724 14.1727 9.9748L11.7643 13.2252C11.6418 13.4016 11.4916 13.5748 11.3139 13.7449Z"
      fill="currentColor" />
  </g>
</svg>