<svg width="16" height="16" viewBox="0 0 16 16" xmlns="http://www.w3.org/2000/svg"
  aria-hidden="true" focusable="false">
  <g fill-rule="evenodd">
    <rect fill="none" x="0" y="0" width="16" height="16"></rect>
    <path
      d="M14.6129 0.209705C14.2206 -0.0953203 13.6534 -0.0675907 13.2929 0.292893L12.2929 1.29289L12.2097 1.3871C11.9047 1.77939 11.9324 2.34662 12.2929 2.70711L13.2929 3.70711L13.3871 3.7903C13.7794 4.09532 14.3466 4.06759 14.7071 3.70711L15.7071 2.70711L15.7903 2.6129C16.0953 2.22061 16.0676 1.65338 15.7071 1.29289L14.7071 0.292893L14.6129 0.209705ZM11.6129 3.2097C11.2206 2.90468 10.6534 2.93241 10.2929 3.29289L1.29289 12.2929L1.22123 12.3727C1.17641 12.4283 1.13762 12.4887 1.10557 12.5528L0.105574 14.5528L0.061859 14.6521C-0.254138 15.4805 0.620719 16.3077 1.44721 15.8944L3.44721 14.8944L3.54043 14.8414C3.60055 14.8028 3.65644 14.7578 3.70711 14.7071L12.7071 5.70711L12.7903 5.6129C13.0953 5.22061 13.0676 4.65338 12.7071 4.29289L11.7071 3.29289L11.6129 3.2097Z"
      fill="currentColor" />
  </g>
</svg>