<svg width="16" height="16" viewBox="0 0 16 16" xmlns="http://www.w3.org/2000/svg"
  aria-hidden="true" focusable="false">
  <g fill-rule="evenodd">
    <rect fill="none" x="0" y="0" width="16" height="16"></rect>
    <path
      d="M2 6C3.10457 6 4 6.89543 4 8C4 9.10457 3.10457 10 2 10C0.89543 10 0 9.10457 0 8C0 6.89543 0.89543 6 2 6ZM8 6C9.10457 6 10 6.89543 10 8C10 9.10457 9.10457 10 8 10C6.89543 10 6 9.10457 6 8C6 6.89543 6.89543 6 8 6ZM16 8C16 6.89543 15.1046 6 14 6C12.8954 6 12 6.89543 12 8C12 9.10457 12.8954 10 14 10C15.1046 10 16 9.10457 16 8Z"
      fill="currentColor" />
  </g>
</svg>