<svg xmlns="http://www.w3.org/2000/svg" width="16" height="16" viewBox="0 0 16 16" aria-hidden="true" focusable="false"><path fill="currentColor" d="M0.0310424035,3.64706271 L7.7,9.4 L7.77988338,9.44897959 C7.91852932,9.5170068 8.08147068,9.5170068 8.22011662,9.44897959 L8.3,9.4 L15.9691358,3.64806483 L15.9921737,3.82184812 L15.9921737,3.82184812 L16,4 L16,12 C16,13.0543618 15.1841222,13.9181651 14.1492623,13.9945143 L14,14 L2,14 C0.945638205,14 0.0818348781,13.1841222 0.00548573643,12.1492623 L-8.8817842e-16,12 L-8.8817842e-16,4 C-8.8817842e-16,3.87957173 0.0106439466,3.76162949 0.0310424035,3.64706271 Z M14,2 C14.6181536,2 15.1708071,2.2804391 15.5376736,2.7210303 L8,8.375 L0.462326444,2.7210303 C0.792506267,2.32449822 1.27317359,2.05768934 1.81663922,2.00829289 L2,2 L14,2 Z"></path></svg>