<svg width="16" height="16" viewBox="0 0 16 16" xmlns="http://www.w3.org/2000/svg"
  aria-hidden="true" focusable="false">
  <g fill-rule="evenodd">
    <rect fill="none" x="0" y="0" width="16" height="16"></rect>
    <path
      d="M15.5377 2.72103C15.1708 2.28044 14.6182 2 14 2H2L1.81664 2.00829C1.27317 2.05769 0.792506 2.3245 0.462326 2.72103L8 8.375L15.5377 2.72103ZM7.7 9.4L0.0310424 3.64706C0.0106439 3.76163 0 3.87957 0 4V12L0.00548574 12.1493C0.0818349 13.1841 0.945638 14 2 14H14L14.1493 13.9945C15.1841 13.9182 16 13.0544 16 12V4L15.9922 3.82185L15.9691 3.64806L8.3 9.4L8.22012 9.44898C8.08147 9.51701 7.91853 9.51701 7.77988 9.44898L7.7 9.4Z"
      fill="currentColor" />
  </g>
</svg>