<svg width="16" height="16" viewBox="0 0 16 16" xmlns="http://www.w3.org/2000/svg"
  aria-hidden="true" focusable="false">
  <g fill-rule="evenodd">
    <rect fill="none" x="0" y="0" width="16" height="16"></rect>
    <path
      d="M13 2C13.5128 2 13.9355 2.38604 13.9933 2.88338L14 3V9C14 9.55228 13.5523 10 13 10C12.4872 10 12.0645 9.61396 12.0067 9.11662L12 9V5.414L3.70711 13.7071C3.31658 14.0976 2.68342 14.0976 2.29289 13.7071C1.93241 13.3466 1.90468 12.7794 2.2097 12.3871L2.29289 12.2929L10.584 4H7C6.48716 4 6.06449 3.61396 6.00673 3.11662L6 3C6 2.48716 6.38604 2.06449 6.88338 2.00673L7 2H13Z"
      fill="currentColor" />
  </g>
</svg>