<svg xmlns="http://www.w3.org/2000/svg" width="16" height="16" viewBox="0 0 16 16" aria-hidden="true" focusable="false"><path fill="currentColor" d="M11,0 L11,3.5 C11,3.74545989 11.1768752,3.94960837 11.4101244,3.99194433 L11.5,4 L15,4 L15,15.5 C15,15.7761424 14.7761424,16 14.5,16 L1.5,16 C1.22385763,16 1,15.7761424 1,15.5 L1,0.5 C1,0.223857625 1.22385763,0 1.5,0 L11,0 Z M7.44899868,3 C7.04074339,3 6.3603179,3.3196347 6.3603179,4.27853881 C6.3603179,5.10045662 6.4510413,5.83105023 7.04074339,6.78995434 L6.88953772,7.18400135 L6.88953772,7.18400135 L6.70809093,7.62878404 C6.64256847,7.78437341 6.57200583,7.94672755 6.496403,8.11415525 C6.3149562,8.57077626 6.08814771,8.98173516 5.90670091,9.39269406 C4.96744691,9.71770078 4.38904601,10.0809436 4.01173971,10.3834585 L3.82491931,10.5418492 L3.82491931,10.5418492 L3.67222406,10.6846257 L3.67222406,10.6846257 L3.54789256,10.8082192 L3.54789256,10.8082192 C2.86242689,11.5388128 2.96547075,12.0890129 3.09240884,12.3626097 L3.13963727,12.4520548 L3.13963727,12.4520548 L3.23834433,12.5791781 C3.39366279,12.76621 3.6476883,13 4.04687125,13 C4.1149138,13 4.18295635,12.9885845 4.25666911,12.9714612 L4.50048824,12.9086758 L4.50048824,12.9086758 L4.61121111,12.8577507 L4.61121111,12.8577507 L4.68229793,12.8162557 L4.68229793,12.8162557 L4.76451349,12.7594182 L4.76451349,12.7594182 L4.85834165,12.6837477 L4.85834165,12.6837477 L4.96426625,12.5857534 L4.96426625,12.5857534 L5.08277117,12.4619449 C5.10359723,12.438965 5.12496763,12.4147641 5.14689245,12.3892694 L5.28517507,12.2201945 L5.28517507,12.2201945 L5.43724765,12.0165787 L5.43724765,12.0165787 L5.60359404,11.7749315 C5.6325348,11.7312938 5.66209047,11.6859259 5.69227112,11.6387553 L5.88093547,11.333516 C5.94637728,11.2241705 6.01439967,11.107032 6.08508327,10.9815187 L6.3051984,10.5792728 C6.38128509,10.4364282 6.46011364,10.2846271 6.5417647,10.1232877 C6.90465829,9.98630137 7.31291358,9.89497717 7.76653057,9.80365297 C8.31087096,9.71232877 8.85521135,9.62100457 9.35419004,9.57534247 L9.53186977,9.76034228 L9.53186977,9.76034228 L9.85144216,10.0824957 C10.5458372,10.7636631 10.9018245,10.9693795 11.3501048,11.0821918 C11.5315516,11.173516 11.7129984,11.173516 11.8490835,11.173516 C12.529509,11.173516 12.8470409,10.7625571 12.9377643,10.5342466 C13.0284877,10.260274 13.1192111,9.57534247 12.4387856,9.16438356 C11.9813884,8.91324201 11.2571763,8.73883815 10.3360293,8.71151488 L10.0799772,8.70776256 L9.71708363,8.70776256 L9.61431103,8.59717466 L9.61431103,8.59717466 L9.3917552,8.34175228 C9.35135493,8.29680365 9.30882834,8.25114155 9.26346664,8.20547945 L9.06757852,7.98903039 L9.06757852,7.98903039 L8.72045521,7.58823844 C8.45333505,7.26940639 8.2371582,6.98401826 8.03870077,6.69863014 C8.37135323,5.86149163 8.48445506,5.34358194 8.52112076,4.92880771 L8.53439997,4.7114967 L8.53439997,4.7114967 L8.53767946,4.50684932 L8.53767946,4.50684932 C8.49231776,3.2739726 7.72116887,3 7.44899868,3 Z M5.22627543,10.6712329 L5.02065084,11.0104566 C4.988376,11.062032 4.95708776,11.1111986 4.92676914,11.1580651 L4.75635658,11.4125285 L4.75635658,11.4125285 L4.60839805,11.616992 L4.60839805,11.616992 L4.48207706,11.776661 L4.48207706,11.776661 L4.37657709,11.8967409 L4.37657709,11.8967409 L4.29108163,11.9824372 C4.27845407,11.9941438 4.266626,12.0046347 4.25558043,12.0140183 L4.19856077,12.0578995 L4.19856077,12.0578995 L4.15950435,12.080411 L4.15950435,12.080411 L4.13759465,12.086758 L4.13759465,12.086758 C4.09223295,12.1324201 4.04687125,12.1324201 4.04687125,12.086758 C4.0241904,12.086758 4.00150955,12.0753425 3.98449892,12.0639269 L3.95614785,12.0410959 L4.00150955,12.0410959 L3.91078615,11.9954338 L3.91377293,11.9210215 C3.92422666,11.8184227 3.97126842,11.6605784 4.18295635,11.4474886 L4.37687761,11.2596804 C4.55628313,11.096347 4.81348397,10.8949772 5.22627543,10.6712329 Z M10.6243176,9.62100457 C10.9383601,9.63856691 11.1920099,9.68314825 11.3904286,9.73396475 L11.6023505,9.79660725 C11.6333625,9.80710309 11.6622478,9.81751579 11.6890477,9.82767909 L11.8750575,9.9079255 L11.8750575,9.9079255 L11.9398069,9.94063927 L11.9398069,9.94063927 L12.0053293,10.0015221 C12.0557312,10.0522577 12.1061331,10.1232877 12.075892,10.2146119 C12.075892,10.260274 11.9851686,10.3059361 11.8037218,10.3059361 L11.761904,10.2988014 L11.761904,10.2988014 L11.6442471,10.2674087 C11.622275,10.2631279 11.5995941,10.260274 11.5769133,10.260274 C11.4068069,10.2260274 11.2622165,10.1660959 10.9709093,9.92636986 L10.7530787,9.7382251 C10.7125209,9.70186454 10.6696793,9.66286149 10.6243176,9.62100457 Z M7.67580717,7.70319635 L7.83983508,7.90045662 L7.83983508,7.90045662 L8.18530978,8.32785388 C8.2462759,8.40273973 8.30941939,8.47945205 8.37546602,8.55799087 L8.58304116,8.79908676 L8.34418346,8.84046804 L7.84945743,8.94035388 C7.76369547,8.95605023 7.67580717,8.97031963 7.58508378,8.98173516 C7.49436038,8.98173516 7.4149774,8.99315068 7.33559443,9.01027397 L7.08610509,9.07305936 L7.17682848,9.02739726 L7.13146679,9.02739726 C7.15414764,8.95890411 7.18816891,8.87899543 7.2278604,8.793379 L7.35827528,8.52511416 L7.35827528,8.52511416 L7.4334056,8.32034817 L7.4334056,8.32034817 L7.67580717,7.74885845 L7.67580717,7.70319635 Z M7.44899868,3.91324201 C7.53972208,3.95890411 7.67580717,4.14155251 7.67580717,4.55251142 L7.67381599,4.71975121 C7.66684684,4.93415638 7.63548566,5.22222222 7.49436038,5.64840183 C7.31291358,5.10045662 7.26755188,4.73515982 7.31291358,4.32420091 C7.31291358,4.09589041 7.35827528,3.95890411 7.44899868,3.91324201 Z M12.3333333,0 C12.4649846,0 12.5913236,0.0519229236 12.684928,0.144498701 L14.8515947,2.28735584 C14.9465603,2.38127786 15,2.5092914 15,2.64285714 L15,3 L12.25,3 C12.1119288,3 12,2.88807119 12,2.75 L12,0 L12.3333333,0 Z"></path></svg>