<svg xmlns="http://www.w3.org/2000/svg" width="16" height="16" viewBox="0 0 16 16" aria-hidden="true" focusable="false"><path fill="currentColor" d="M12.3333333,0 C12.4649846,0 12.5913236,0.0519229236 12.684928,0.144498701 L14.8515947,2.28735584 C14.9465603,2.38127786 15,2.5092914 15,2.64285714 L15,15.5 C15,15.7761424 14.7761424,16 14.5,16 L1.5,16 C1.22385763,16 1,15.7761424 1,15.5 L1,0.5 C1,0.223857625 1.22385763,0 1.5,0 L12.3333333,0 Z M11,1 L2,1 L2,15 L14,15 L14,4 L11.5,4 C11.2238576,4 11,3.77614237 11,3.5 L11,1 Z M9.54145248,5.12213937 L9.59648295,5.19084277 L12.9293307,10.3336999 C13.0985213,10.594775 12.9458527,10.9370896 12.6629375,10.992329 L12.5826935,11 L9.22956549,11.000554 C9.38101295,10.7046385 9.37898764,10.3284054 9.15394288,10.0197277 L7.36454649,7.564 L8.90320872,5.19084277 C9.05162037,4.96183145 9.3608727,4.93893031 9.54145248,5.12213937 Z M6.18902068,6.81798942 L6.2502829,6.88571429 L8.74991868,10.3142857 C8.94005528,10.5750825 8.78770602,10.9386856 8.49312613,10.9930813 L8.41663391,11 L3.41736235,11 C3.10046801,11 2.90911637,10.6564582 3.04356266,10.3813883 L3.08407757,10.3142857 L5.58371336,6.88571429 C5.73183992,6.68253968 6.01163454,6.65996473 6.18902068,6.81798942 Z"></path></svg>