<svg width="16" height="16" viewBox="0 0 16 16" xmlns="http://www.w3.org/2000/svg"
  aria-hidden="true" focusable="false">
  <g fill-rule="evenodd">
    <rect fill="none" x="0" y="0" width="16" height="16"></rect>
    <path
      d="M12.6849 0.144499C12.5913 0.0519229 12.465 0 12.3333 0H1.5C1.22386 0 1 0.223858 1 0.5V15.5C1 15.7761 1.22386 16 1.5 16H14.5C14.7761 16 15 15.7761 15 15.5V2.64286C15 2.50929 14.9466 2.38128 14.8516 2.28736L12.6849 0.144499ZM2 1H11V3.5C11 3.77614 11.2239 4 11.5 4H14V15H2V1ZM6.53033 5.46967C6.7966 5.73594 6.8208 6.1526 6.60295 6.44621L6.53033 6.53033L5.061 8L6.53033 9.46967C6.7966 9.73594 6.8208 10.1526 6.60295 10.4462L6.53033 10.5303C6.26406 10.7966 5.8474 10.8208 5.55379 10.6029L5.46967 10.5303L3.46967 8.53033C3.2034 8.26406 3.1792 7.8474 3.39705 7.55379L3.46967 7.46967L5.46967 5.46967C5.76256 5.17678 6.23744 5.17678 6.53033 5.46967ZM10.5303 5.46967L10.4462 5.39705C10.1526 5.1792 9.73594 5.2034 9.46967 5.46967C9.2034 5.73594 9.1792 6.1526 9.39705 6.44621L9.46967 6.53033L10.939 8L9.46967 9.46967L9.38988 9.56362C9.20101 9.82701 9.2034 10.1852 9.39705 10.4462L9.46967 10.5303L9.56362 10.6101C9.82701 10.799 10.1852 10.7966 10.4462 10.6029L10.5303 10.5303L12.5303 8.53033L12.6101 8.43638C12.799 8.17299 12.7966 7.81478 12.6029 7.55379L12.5303 7.46967L10.5303 5.46967Z"
      fill="currentColor" />
  </g>
</svg>