<svg width="16" height="16" viewBox="0 0 16 16" xmlns="http://www.w3.org/2000/svg"
  aria-hidden="true" focusable="false">
  <g fill-rule="evenodd">
    <rect fill="none" x="0" y="0" width="16" height="16"></rect>
    <path
      d="M11 0V3.5C11 3.74546 11.1769 3.94961 11.4101 3.99194L11.5 4H15V15.5C15 15.7761 14.7761 16 14.5 16H1.5C1.22386 16 1 15.7761 1 15.5V0.5C1 0.223858 1.22386 0 1.5 0H11ZM7.449 3C7.04074 3 6.36032 3.31963 6.36032 4.27854C6.36032 5.10046 6.45104 5.83105 7.04074 6.78995L6.88954 7.184L6.70809 7.62878C6.64257 7.78437 6.57201 7.94673 6.4964 8.11415C6.38785 8.38733 6.26307 8.64416 6.14147 8.89442C6.05982 9.06248 5.9796 9.22759 5.9067 9.39269C4.96745 9.7177 4.38905 10.0809 4.01174 10.3835L3.82492 10.5418L3.67222 10.6846L3.54789 10.8082C2.86243 11.5388 2.96547 12.089 3.09241 12.3626L3.13964 12.4521L3.23834 12.5792C3.39366 12.7662 3.64769 13 4.04687 13C4.11491 13 4.18296 12.9886 4.25667 12.9715L4.50049 12.9087L4.61121 12.8578L4.6823 12.8163L4.76451 12.7594L4.85834 12.6837L4.96427 12.5858L5.08277 12.4619C5.1036 12.439 5.12497 12.4148 5.14689 12.3893L5.28518 12.2202L5.43725 12.0166L5.60359 11.7749C5.63253 11.7313 5.66209 11.6859 5.69227 11.6388L5.88094 11.3335C5.94638 11.2242 6.0144 11.107 6.08508 10.9815L6.3052 10.5793C6.38129 10.4364 6.46011 10.2846 6.54176 10.1233C6.90466 9.9863 7.31291 9.89498 7.76653 9.80365C8.31087 9.71233 8.85521 9.62101 9.35419 9.57534L9.53187 9.76034L9.85144 10.0825C10.5458 10.7637 10.9018 10.9694 11.3501 11.0822C11.5316 11.1735 11.713 11.1735 11.8491 11.1735C12.5295 11.1735 12.847 10.7626 12.9378 10.5342C13.0285 10.2603 13.1192 9.57534 12.4388 9.16438C11.9814 8.91324 11.2572 8.73884 10.336 8.71152L10.08 8.70776H9.71708L9.61431 8.59717L9.39176 8.34175C9.35135 8.2968 9.30883 8.25114 9.26347 8.20548L9.06758 7.98903L8.72046 7.58824C8.45333 7.26941 8.23716 6.98402 8.0387 6.69863C8.37135 5.86149 8.48445 5.34358 8.52112 4.92881L8.5344 4.7115L8.53768 4.50685C8.49232 3.27397 7.72117 3 7.449 3ZM5.02065 11.0105L5.22628 10.6712C4.81348 10.895 4.55628 11.0963 4.37688 11.2597L4.18296 11.4475C3.97127 11.6606 3.92423 11.8184 3.91377 11.921L3.91079 11.9954L4.00151 12.0411H3.95615L3.9845 12.0639C4.00151 12.0753 4.02419 12.0868 4.04687 12.0868C4.04687 12.1324 4.09223 12.1324 4.13759 12.0868L4.1595 12.0804L4.19856 12.0579L4.25558 12.014C4.26663 12.0046 4.27845 11.9941 4.29108 11.9824L4.37658 11.8967L4.48208 11.7767L4.6084 11.617L4.75636 11.4125L4.92677 11.1581C4.95709 11.1112 4.98838 11.062 5.02065 11.0105ZM10.6243 9.62101C10.9384 9.63857 11.192 9.68315 11.3904 9.73396L11.6024 9.79661C11.6334 9.8071 11.6622 9.81752 11.689 9.82768L11.8751 9.90793L11.9398 9.94064L12.0053 10.0015C12.0557 10.0523 12.1061 10.1233 12.0759 10.2146C12.0759 10.2603 11.9852 10.3059 11.8037 10.3059L11.7619 10.2988L11.6442 10.2674C11.6223 10.2631 11.5996 10.2603 11.5769 10.2603C11.4068 10.226 11.2622 10.1661 10.9709 9.92637L10.7531 9.73822C10.7125 9.70186 10.6697 9.66286 10.6243 9.62101ZM7.83983 7.90046L7.67581 7.7032V7.74886L7.43341 8.32035L7.35827 8.52511L7.22786 8.79338C7.18817 8.879 7.15415 8.9589 7.13147 9.0274H7.17683L7.0861 9.07306L7.33559 9.01027C7.41498 8.99315 7.49436 8.98174 7.58508 8.98174C7.67581 8.97032 7.7637 8.95605 7.84946 8.94035L8.34418 8.84047L8.58304 8.79909L8.37547 8.55799C8.30942 8.47945 8.24628 8.40274 8.18531 8.32785L7.83983 7.90046ZM7.449 3.91324C7.53972 3.9589 7.67581 4.14155 7.67581 4.55251L7.67382 4.71975C7.66685 4.93416 7.63549 5.22222 7.49436 5.6484C7.31291 5.10046 7.26755 4.73516 7.31291 4.3242C7.31291 4.09589 7.35828 3.9589 7.449 3.91324ZM12.6849 0.144499C12.5913 0.0519229 12.465 0 12.3333 0H12V2.75C12 2.88807 12.1119 3 12.25 3H15V2.64286C15 2.50929 14.9466 2.38128 14.8516 2.28736L12.6849 0.144499Z"
      fill="currentColor" />
  </g>
</svg>