<svg width="16" height="16" viewBox="0 0 16 16" xmlns="http://www.w3.org/2000/svg"
  aria-hidden="true" focusable="false">
  <g fill-rule="evenodd">
    <rect fill="none" x="0" y="0" width="16" height="16"></rect>
    <path
      d="M12.3333 0C12.465 0 12.5913 0.0519229 12.6849 0.144499L14.8516 2.28736C14.9466 2.38128 15 2.50929 15 2.64286V15.5C15 15.7761 14.7761 16 14.5 16H1.5C1.22386 16 1 15.7761 1 15.5V0.5C1 0.223858 1.22386 0 1.5 0H12.3333ZM11 1H2V15H14V4H11.5C11.2239 4 11 3.77614 11 3.5V1ZM8.53768 4.50685C8.49232 3.27397 7.72117 3 7.449 3C7.04074 3 6.36032 3.31963 6.36032 4.27854C6.36032 5.10046 6.45104 5.83105 7.04074 6.78995L6.88954 7.184L6.70809 7.62878C6.64257 7.78437 6.57201 7.94673 6.4964 8.11415C6.38785 8.38733 6.26307 8.64416 6.14147 8.89442C6.05982 9.06248 5.9796 9.22759 5.9067 9.39269C4.96745 9.7177 4.38905 10.0809 4.01174 10.3835L3.82492 10.5418C3.79679 10.567 3.77008 10.5916 3.74467 10.6154L3.54789 10.8082C2.86243 11.5388 2.96547 12.089 3.09241 12.3626L3.13964 12.4521L3.23834 12.5792C3.39366 12.7662 3.64769 13 4.04687 13C4.11491 13 4.18296 12.9886 4.25667 12.9715L4.50049 12.9087L4.61121 12.8578L4.6823 12.8163L4.76451 12.7594L4.85834 12.6837L4.96427 12.5858C4.98296 12.5674 5.00217 12.5479 5.02192 12.5273L5.14689 12.3893L5.28518 12.2202L5.43725 12.0166C5.46377 11.9796 5.49089 11.941 5.51861 11.9007L5.69227 11.6388C5.72245 11.5916 5.75326 11.5426 5.7847 11.4918L5.98104 11.1636C6.01507 11.1049 6.04974 11.0443 6.08508 10.9815L6.3052 10.5793C6.38129 10.4364 6.46011 10.2846 6.54176 10.1233C6.90466 9.9863 7.31291 9.89498 7.76653 9.80365C8.31087 9.71233 8.85521 9.62101 9.35419 9.57534C9.41556 9.63981 9.47474 9.70143 9.53187 9.76034L9.85144 10.0825C10.5458 10.7637 10.9018 10.9694 11.3501 11.0822C11.5316 11.1735 11.713 11.1735 11.8491 11.1735C12.5295 11.1735 12.847 10.7626 12.9378 10.5342C13.0285 10.2603 13.1192 9.57534 12.4388 9.16438C11.9398 8.89041 11.1233 8.70776 10.08 8.70776H9.71708C9.68306 8.67352 9.64904 8.63642 9.61431 8.59717L9.39176 8.34175L9.26347 8.20548C9.19542 8.13128 9.13022 8.05922 9.06758 7.98903L8.72046 7.58824C8.45333 7.26941 8.23716 6.98402 8.0387 6.69863C8.37135 5.86149 8.48445 5.34358 8.52112 4.92881L8.5344 4.7115L8.53768 4.50685ZM5.22628 10.6712C4.81348 10.895 4.55628 11.0963 4.37688 11.2597L4.18296 11.4475C3.97127 11.6606 3.92423 11.8184 3.91377 11.921L3.91079 11.9954L4.00151 12.0411H3.95615L3.9845 12.0639C4.00151 12.0753 4.02419 12.0868 4.04687 12.0868C4.04687 12.1324 4.09223 12.1324 4.13759 12.0868L4.1595 12.0804L4.19856 12.0579L4.25558 12.014L4.33138 11.9436L4.42678 11.8413L4.54258 11.7021L4.67962 11.5207C4.70428 11.4866 4.72985 11.4506 4.75636 11.4125L4.92677 11.1581L5.12045 10.8484C5.15472 10.7919 5.18999 10.7329 5.22628 10.6712ZM10.8681 9.83959L10.6243 9.62101C10.9384 9.63857 11.192 9.68315 11.3904 9.73396L11.6024 9.79661C11.6334 9.8071 11.6622 9.81752 11.689 9.82768L11.8252 9.88434L11.9398 9.94064L12.0053 10.0015C12.0557 10.0523 12.1061 10.1233 12.0759 10.2146C12.0759 10.2603 11.9852 10.3059 11.8037 10.3059C11.7924 10.3059 11.7782 10.3031 11.7619 10.2988L11.6442 10.2674L11.5769 10.2603C11.3879 10.2222 11.2304 10.1525 10.8681 9.83959ZM7.67581 7.7032V7.74886L7.43341 8.32035C7.40647 8.38813 7.38096 8.45662 7.35827 8.52511L7.22786 8.79338C7.18817 8.879 7.15415 8.9589 7.13147 9.0274H7.17683L7.0861 9.07306L7.33559 9.01027C7.41498 8.99315 7.49436 8.98174 7.58508 8.98174L7.84946 8.94035L8.34418 8.84047L8.58304 8.79909C8.43788 8.6347 8.30724 8.47763 8.18531 8.32785L7.83983 7.90046C7.78468 7.83288 7.73024 7.76712 7.67581 7.7032ZM7.31291 4.3242C7.31291 4.09589 7.35828 3.9589 7.449 3.91324C7.53972 3.9589 7.67581 4.14155 7.67581 4.55251C7.67581 4.57788 7.67581 4.60437 7.67556 4.63219L7.66909 4.81634C7.65565 5.01928 7.61532 5.28311 7.49436 5.6484C7.31291 5.10046 7.26755 4.73516 7.31291 4.3242Z"
      fill="currentColor" />
  </g>
</svg>