<svg xmlns="http://www.w3.org/2000/svg" width="16" height="16" viewBox="0 0 16 16" aria-hidden="true" focusable="false"><path fill="currentColor" d="M11,0 L11,3.5 C11,3.74545989 11.1768752,3.94960837 11.4101244,3.99194433 L11.5,4 L15,4 L15,15.5 C15,15.7761424 14.7761424,16 14.5,16 L1.5,16 C1.22385763,16 1,15.7761424 1,15.5 L1,0.5 C1,0.223857625 1.22385763,0 1.5,0 L11,0 Z M9.54145248,5.12213937 C9.38093712,4.95928688 9.11875456,4.95928688 8.9582392,5.12213937 L8.90320872,5.19084277 L7.36454649,7.564 L9.15394288,10.0197277 C9.35398266,10.2941079 9.37780955,10.6218651 9.2742684,10.8991436 L9.22956549,11.000554 L12.5826935,11 L12.6629375,10.992329 C12.9201332,10.9421113 13.069687,10.6546415 12.9676376,10.4066397 L12.9293307,10.3336999 L9.59648295,5.19084277 L9.54145248,5.12213937 Z M6.18902068,6.81798942 C6.03380781,6.67971781 5.80018845,6.67971781 5.64497558,6.81798942 L5.58371336,6.88571429 L3.08407757,10.3142857 L3.04356266,10.3813883 C2.92032023,10.6335357 3.07083856,10.9432185 3.34087012,10.9930813 L3.41736235,11 L8.41663391,11 L8.49312613,10.9930813 C8.7631577,10.9432185 8.91367603,10.6335357 8.7904336,10.3813883 L8.74991868,10.3142857 L6.2502829,6.88571429 L6.18902068,6.81798942 Z M12.3333333,0 C12.4649846,0 12.5913236,0.0519229236 12.684928,0.144498701 L14.8515947,2.28735584 C14.9465603,2.38127786 15,2.5092914 15,2.64285714 L15,3 L12.25,3 C12.1119288,3 12,2.88807119 12,2.75 L12,0 L12.3333333,0 Z"></path></svg>