<svg width="16" height="16" viewBox="0 0 16 16" xmlns="http://www.w3.org/2000/svg"
  aria-hidden="true" focusable="false">
  <g fill-rule="evenodd">
    <rect fill="none" x="0" y="0" width="16" height="16"></rect>
    <path
      d="M12.3333 0C12.465 0 12.5913 0.0519229 12.6849 0.144499L14.8516 2.28736C14.9466 2.38128 15 2.50929 15 2.64286V15.5C15 15.7761 14.7761 16 14.5 16H1.5C1.22386 16 1 15.7761 1 15.5V0.5C1 0.223858 1.22386 0 1.5 0H12.3333ZM11 1H2V15H14V4H11.5C11.2239 4 11 3.77614 11 3.5V1ZM8 11.25C8 10.8358 7.66421 10.5 7.25 10.5H4.75C4.33579 10.5 4 10.8358 4 11.25C4 11.6642 4.33579 12 4.75 12H7.25C7.66421 12 8 11.6642 8 11.25ZM11.25 7.75C11.6642 7.75 12 8.08579 12 8.5C12 8.91421 11.6642 9.25 11.25 9.25H4.75C4.33579 9.25 4 8.91421 4 8.5C4 8.08579 4.33579 7.75 4.75 7.75H11.25ZM12 5.75C12 5.33579 11.6642 5 11.25 5H4.75C4.33579 5 4 5.33579 4 5.75C4 6.16421 4.33579 6.5 4.75 6.5H11.25C11.6642 6.5 12 6.16421 12 5.75Z"
      fill="currentColor" />
  </g>
</svg>