<svg width="16" height="16" viewBox="0 0 16 16" xmlns="http://www.w3.org/2000/svg"
  aria-hidden="true" focusable="false">
  <g fill-rule="evenodd">
    <rect fill="none" x="0" y="0" width="16" height="16"></rect>
    <path
      d="M12.6849 0.144499C12.5913 0.0519229 12.465 0 12.3333 0H1.5C1.22386 0 1 0.223858 1 0.5V15.5C1 15.7761 1.22386 16 1.5 16H14.5C14.7761 16 15 15.7761 15 15.5V2.64286C15 2.50929 14.9466 2.38128 14.8516 2.28736L12.6849 0.144499ZM2 1H11V3.5C11 3.77614 11.2239 4 11.5 4H14V15H2V1ZM9.54145 5.12214L9.59648 5.19084L12.9293 10.3337C13.0985 10.5948 12.9459 10.9371 12.6629 10.9923L12.5827 11L9.22957 11.0006C9.38101 10.7046 9.37899 10.3284 9.15394 10.0197L7.36455 7.564L8.90321 5.19084C9.05162 4.96183 9.36087 4.93893 9.54145 5.12214ZM6.25028 6.88571L6.18902 6.81799C6.01163 6.65997 5.73184 6.68254 5.58371 6.88571L3.08408 10.3143L3.04356 10.3814C2.90912 10.6565 3.10047 11 3.41736 11H8.41663L8.49313 10.9931C8.78771 10.9387 8.94005 10.5751 8.74992 10.3143L6.25028 6.88571Z"
      fill="currentColor" />
  </g>
</svg>