<svg xmlns="http://www.w3.org/2000/svg" width="16" height="16" viewBox="0 0 16 16" aria-hidden="true" focusable="false"><path fill="currentColor" d="M12.3333333,0 C12.4649846,0 12.5913236,0.0519229236 12.684928,0.144498701 L14.8515947,2.28735584 C14.9465603,2.38127786 15,2.5092914 15,2.64285714 L15,15.5 C15,15.7761424 14.7761424,16 14.5,16 L1.5,16 C1.22385763,16 1,15.7761424 1,15.5 L1,0.5 C1,0.223857625 1.22385763,0 1.5,0 L12.3333333,0 Z M11,1 L2,1 L2,15 L14,15 L14,4 L11.5,4 C11.2238576,4 11,3.77614237 11,3.5 L11,1 Z M7.44899868,3 C7.72116887,3 8.49231776,3.2739726 8.53767946,4.50684932 L8.53439997,4.7114967 L8.53439997,4.7114967 L8.52112076,4.92880771 C8.48445506,5.34358194 8.37135323,5.86149163 8.03870077,6.69863014 C8.2371582,6.98401826 8.45333505,7.26940639 8.72045521,7.58823844 L9.06757852,7.98903039 C9.13021665,8.05921804 9.19542409,8.13127854 9.26346664,8.20547945 L9.3917552,8.34175228 L9.3917552,8.34175228 L9.61431103,8.59717466 C9.64904108,8.63641553 9.68306236,8.67351598 9.71708363,8.70776256 L10.0799772,8.70776256 C11.1232963,8.70776256 11.9398069,8.89041096 12.4387856,9.16438356 C13.1192111,9.57534247 13.0284877,10.260274 12.9377643,10.5342466 C12.8470409,10.7625571 12.529509,11.173516 11.8490835,11.173516 C11.7129984,11.173516 11.5315516,11.173516 11.3501048,11.0821918 C10.9018245,10.9693795 10.5458372,10.7636631 9.85144216,10.0824957 L9.53186977,9.76034228 C9.47473601,9.70142674 9.41556175,9.63980661 9.35419004,9.57534247 C8.85521135,9.62100457 8.31087096,9.71232877 7.76653057,9.80365297 C7.31291358,9.89497717 6.90465829,9.98630137 6.5417647,10.1232877 C6.46011364,10.2846271 6.38128509,10.4364282 6.3051984,10.5792728 L6.08508327,10.9815187 C6.04974147,11.0442753 6.01506497,11.1049383 5.9810437,11.1635802 L5.7846981,11.4917622 C5.7532574,11.5426112 5.72245177,11.5915846 5.69227112,11.6387553 L5.51860638,11.9007272 C5.49088534,11.9409775 5.46376912,11.9795704 5.43724765,12.0165787 L5.28517507,12.2201945 L5.28517507,12.2201945 L5.14689245,12.3892694 L5.14689245,12.3892694 L5.02191593,12.5272941 C5.00216847,12.5479046 4.98295527,12.5673668 4.96426625,12.5857534 L4.85834165,12.6837477 L4.85834165,12.6837477 L4.76451349,12.7594182 L4.76451349,12.7594182 L4.68229793,12.8162557 L4.68229793,12.8162557 L4.61121111,12.8577507 L4.61121111,12.8577507 L4.50048824,12.9086758 L4.50048824,12.9086758 L4.25666911,12.9714612 C4.18295635,12.9885845 4.1149138,13 4.04687125,13 C3.6476883,13 3.39366279,12.76621 3.23834433,12.5791781 L3.13963727,12.4520548 L3.13963727,12.4520548 L3.09240884,12.3626097 C2.96547075,12.0890129 2.86242689,11.5388128 3.54789256,10.8082192 L3.74466613,10.6154123 C3.77007533,10.5915914 3.79678638,10.5670456 3.82491931,10.5418492 L4.01173971,10.3834585 C4.38904601,10.0809436 4.96744691,9.71770078 5.90670091,9.39269406 C6.08814771,8.98173516 6.3149562,8.57077626 6.496403,8.11415525 C6.57200583,7.94672755 6.64256847,7.78437341 6.70809093,7.62878404 L6.88953772,7.18400135 L6.88953772,7.18400135 L7.04074339,6.78995434 L7.04074339,6.78995434 C6.4510413,5.83105023 6.3603179,5.10045662 6.3603179,4.27853881 C6.3603179,3.3196347 7.04074339,3 7.44899868,3 Z M5.22627543,10.6712329 C4.81348397,10.8949772 4.55628313,11.096347 4.37687761,11.2596804 L4.18295635,11.4474886 L4.18295635,11.4474886 C3.97126842,11.6605784 3.92422666,11.8184227 3.91377293,11.9210215 L3.91078615,11.9954338 L3.91078615,11.9954338 L4.00150955,12.0410959 L3.95614785,12.0410959 L3.98449892,12.0639269 C4.00150955,12.0753425 4.0241904,12.086758 4.04687125,12.086758 C4.04687125,12.1324201 4.09223295,12.1324201 4.13759465,12.086758 L4.15950435,12.080411 L4.15950435,12.080411 L4.19856077,12.0578995 L4.19856077,12.0578995 L4.25558043,12.0140183 L4.25558043,12.0140183 L4.33137983,11.9435616 L4.33137983,11.9435616 L4.42677548,11.8413242 L4.42677548,11.8413242 L4.5425839,11.7021005 L4.5425839,11.7021005 L4.67962159,11.5206849 C4.70427567,11.4866438 4.72984833,11.4506279 4.75635658,11.4125285 L4.92676914,11.1580651 L4.92676914,11.1580651 L5.12045225,10.8483961 C5.15471735,10.791895 5.18998607,10.7328767 5.22627543,10.6712329 Z M10.6243176,9.62100457 L10.8681367,9.83959073 C11.2304003,10.1524607 11.3879062,10.2222222 11.5769133,10.260274 L11.6442471,10.2674087 L11.6442471,10.2674087 L11.761904,10.2988014 C11.7782058,10.3030822 11.7923814,10.3059361 11.8037218,10.3059361 C11.9851686,10.3059361 12.075892,10.260274 12.075892,10.2146119 C12.1061331,10.1232877 12.0557312,10.0522577 12.0053293,10.0015221 L11.9398069,9.94063927 L11.9398069,9.94063927 L11.8251535,9.88433584 L11.8251535,9.88433584 L11.6890477,9.82767909 C11.6622478,9.81751579 11.6333625,9.80710309 11.6023505,9.79660725 L11.3904286,9.73396475 C11.1920099,9.68314825 10.9383601,9.63856691 10.6243176,9.62100457 Z M7.67580717,7.70319635 L7.67580717,7.74885845 L7.4334056,8.32034817 C7.40647209,8.38812785 7.38095613,8.456621 7.35827528,8.52511416 L7.2278604,8.793379 C7.18816891,8.87899543 7.15414764,8.95890411 7.13146679,9.02739726 L7.17682848,9.02739726 L7.08610509,9.07305936 L7.33559443,9.01027397 C7.4149774,8.99315068 7.49436038,8.98173516 7.58508378,8.98173516 L7.84945743,8.94035388 L7.84945743,8.94035388 L8.34418346,8.84046804 L8.34418346,8.84046804 L8.58304116,8.79908676 C8.43788372,8.6347032 8.30724202,8.47762557 8.18530978,8.32785388 L7.83983508,7.90045662 C7.78467525,7.83287671 7.73024121,7.76712329 7.67580717,7.70319635 Z M7.44899868,3.91324201 C7.35827528,3.95890411 7.31291358,4.09589041 7.31291358,4.32420091 C7.26755188,4.73515982 7.31291358,5.10045662 7.49436038,5.64840183 C7.61532491,5.28310502 7.65564642,5.01927955 7.66908692,4.81633688 L7.67555828,4.6321852 C7.67580717,4.60437454 7.67580717,4.57787925 7.67580717,4.55251142 C7.67580717,4.14155251 7.53972208,3.95890411 7.44899868,3.91324201 Z"></path></svg>