<svg xmlns="http://www.w3.org/2000/svg" width="16" height="16" viewBox="0 0 16 16" aria-hidden="true" focusable="false"><path fill="currentColor" d="M12.3333333,0 C12.4649846,0 12.5913236,0.0519229236 12.684928,0.144498701 L14.8515947,2.28735584 C14.9465603,2.38127786 15,2.5092914 15,2.64285714 L15,15.5 C15,15.7761424 14.7761424,16 14.5,16 L1.5,16 C1.22385763,16 1,15.7761424 1,15.5 L1,0.5 C1,0.223857625 1.22385763,0 1.5,0 L12.3333333,0 Z M11,1 L2,1 L2,15 L14,15 L14,4 L11.5,4 C11.2238576,4 11,3.77614237 11,3.5 L11,1 Z M7.25,10.5 C7.66421356,10.5 8,10.8357864 8,11.25 C8,11.6642136 7.66421356,12 7.25,12 L4.75,12 C4.33578644,12 4,11.6642136 4,11.25 C4,10.8357864 4.33578644,10.5 4.75,10.5 L7.25,10.5 Z M11.25,7.75 C11.6642136,7.75 12,8.08578644 12,8.5 C12,8.91421356 11.6642136,9.25 11.25,9.25 L4.75,9.25 C4.33578644,9.25 4,8.91421356 4,8.5 C4,8.08578644 4.33578644,7.75 4.75,7.75 L11.25,7.75 Z M11.25,5 C11.6642136,5 12,5.33578644 12,5.75 C12,6.16421356 11.6642136,6.5 11.25,6.5 L4.75,6.5 C4.33578644,6.5 4,6.16421356 4,5.75 C4,5.33578644 4.33578644,5 4.75,5 L11.25,5 Z"></path></svg>