<svg width="16" height="16" viewBox="0 0 16 16" xmlns="http://www.w3.org/2000/svg"
  aria-hidden="true" focusable="false">
  <g fill-rule="evenodd">
    <rect fill="none" x="0" y="0" width="16" height="16"></rect>
    <path
      d="M11 3.5V0H1.5C1.22386 0 1 0.223858 1 0.5V15.5C1 15.7761 1.22386 16 1.5 16H14.5C14.7761 16 15 15.7761 15 15.5V4H11.5L11.4101 3.99194C11.1769 3.94961 11 3.74546 11 3.5ZM8.95824 5.12214C9.11875 4.95929 9.38094 4.95929 9.54145 5.12214L9.59648 5.19084L12.9293 10.3337L12.9676 10.4066C13.0697 10.6546 12.9201 10.9421 12.6629 10.9923L12.5827 11L9.22957 11.0006L9.27427 10.8991C9.37781 10.6219 9.35398 10.2941 9.15394 10.0197L7.36455 7.564L8.90321 5.19084L8.95824 5.12214ZM6.18902 6.81799C6.03381 6.67972 5.80019 6.67972 5.64498 6.81799L5.58371 6.88571L3.08408 10.3143L3.04356 10.3814C2.92032 10.6335 3.07084 10.9432 3.34087 10.9931L3.41736 11H8.41663L8.49313 10.9931C8.76316 10.9432 8.91368 10.6335 8.79043 10.3814L8.74992 10.3143L6.25028 6.88571L6.18902 6.81799ZM12.6849 0.144499C12.5913 0.0519229 12.465 0 12.3333 0H12V2.75C12 2.88807 12.1119 3 12.25 3H15V2.64286C15 2.50929 14.9466 2.38128 14.8516 2.28736L12.6849 0.144499Z"
      fill="currentColor" />
  </g>
</svg>