<svg xmlns="http://www.w3.org/2000/svg" width="16" height="16" viewBox="0 0 16 16" aria-hidden="true" focusable="false"><path fill="currentColor" d="M11,0 L11,3.5 C11,3.74545989 11.1768752,3.94960837 11.4101244,3.99194433 L11.5,4 L15,4 L15,15.5 C15,15.7761424 14.7761424,16 14.5,16 L1.5,16 C1.22385763,16 1,15.7761424 1,15.5 L1,0.5 C1,0.223857625 1.22385763,0 1.5,0 L11,0 Z M6.53033009,5.46966991 C6.23743687,5.1767767 5.76256313,5.1767767 5.46966991,5.46966991 L5.46966991,5.46966991 L3.46966991,7.46966991 L3.39705176,7.55378835 C3.1791973,7.84739984 3.20340335,8.26406352 3.46966991,8.53033009 L3.46966991,8.53033009 L5.46966991,10.5303301 L5.55378835,10.6029482 C5.84739984,10.8208027 6.26406352,10.7965966 6.53033009,10.5303301 L6.53033009,10.5303301 L6.60294824,10.4462117 C6.8208027,10.1526002 6.79659665,9.73593648 6.53033009,9.46966991 L6.53033009,9.46966991 L5.061,8 L6.53033009,6.53033009 L6.60294824,6.44621165 C6.8208027,6.15260016 6.79659665,5.73593648 6.53033009,5.46966991 Z M10.4462117,5.39705176 C10.1526002,5.1791973 9.73593648,5.20340335 9.46966991,5.46966991 C9.20340335,5.73593648 9.1791973,6.15260016 9.39705176,6.44621165 L9.39705176,6.44621165 L9.46966991,6.53033009 L10.939,8 L9.46966991,9.46966991 L9.3898796,9.5636206 C9.20101263,9.82700924 9.20340335,10.1852237 9.39705176,10.4462117 L9.39705176,10.4462117 L9.46966991,10.5303301 L9.5636206,10.6101204 C9.82700924,10.7989874 10.1852237,10.7965966 10.4462117,10.6029482 L10.4462117,10.6029482 L10.5303301,10.5303301 L12.5303301,8.53033009 L12.6101204,8.4363794 C12.7989874,8.17299076 12.7965966,7.81477634 12.6029482,7.55378835 L12.6029482,7.55378835 L12.5303301,7.46966991 L10.5303301,5.46966991 Z M12.3333333,0 C12.4649846,0 12.5913236,0.0519229236 12.684928,0.144498701 L14.8515947,2.28735584 C14.9465603,2.38127786 15,2.5092914 15,2.64285714 L15,3 L12.25,3 C12.1119288,3 12,2.88807119 12,2.75 L12,0 L12.3333333,0 Z"></path></svg>