<svg width="16" height="16" viewBox="0 0 16 16" xmlns="http://www.w3.org/2000/svg"
  aria-hidden="true" focusable="false">
  <g fill-rule="evenodd">
    <rect fill="none" x="0" y="0" width="16" height="16"></rect>
    <path
      d="M8.39934 12L9.82791 14H5C4.44772 14 4 13.5523 4 13C4 12.4872 4.38604 12.0645 4.88338 12.0067L5 12H8.39934Z"
      fill="currentColor" />
    <path
      d="M11.1721 9H13L13.1166 8.99327C13.614 8.9355 14 8.51283 14 8C14 7.44771 13.5523 7 13 7H9.74352L11.1721 9Z"
      fill="currentColor" />
    <path
      d="M4.8279 7L6.25648 9H3C2.44772 9 2 8.55228 2 8C2 7.48716 2.38604 7.06449 2.88338 7.00673L3 7H4.8279Z"
      fill="currentColor" />
    <path
      d="M7.60066 4H15L15.1166 3.99327C15.614 3.93551 16 3.51283 16 3C16 2.44771 15.5523 2 15 2H6.17208L7.60066 4Z"
      fill="currentColor" />
    <path
      d="M1.26778 2C1.29976 2.05525 1.33467 2.10948 1.37253 2.16249L2.68504 4H1C0.447715 4 0 3.55228 0 3C0 2.48716 0.38604 2.06449 0.883379 2.00673L1 2H1.26778Z"
      fill="currentColor" />
    <path
      d="M13.5812 15.8137C14.0307 15.4927 14.1347 14.8682 13.8137 14.4188L3.81372 0.41877C3.49271 -0.0306423 2.86816 -0.134733 2.41875 0.186276C1.96934 0.507286 1.86525 1.13184 2.18626 1.58125L12.1863 15.5812C12.5073 16.0306 13.1318 16.1347 13.5812 15.8137Z"
      fill="currentColor" />
  </g>
</svg>