<svg width="16" height="16" viewBox="0 0 16 16" xmlns="http://www.w3.org/2000/svg"
  aria-hidden="true" focusable="false">
  <g fill-rule="evenodd">
    <rect fill="none" x="0" y="0" width="16" height="16"></rect>
    <path
      d="M0 4.5C0 4.22386 0.223858 4 0.5 4C0.776142 4 1 4.22386 1 4.5V11.5C1 11.7761 0.776142 12 0.5 12C0.223858 12 0 11.7761 0 11.5V4.5Z"
      fill="currentColor" />
    <path
      d="M0 11.5C0 11.7761 0.223858 12 0.5 12C0.776142 12 1 11.7761 1 11.5V4.5C1 4.22386 0.776142 4 0.5 4C0.223858 4 0 4.22386 0 4.5V11.5Z"
      fill="currentColor" />
    <path
      d="M15 4.5C15 4.22386 15.2239 4 15.5 4C15.7761 4 16 4.22386 16 4.5V11.5C16 11.7761 15.7761 12 15.5 12C15.2239 12 15 11.7761 15 11.5V4.5Z"
      fill="currentColor" />
    <path
      d="M15 11.5C15 11.7761 15.2239 12 15.5 12C15.7761 12 16 11.7761 16 11.5V4.5C16 4.22386 15.7761 4 15.5 4C15.2239 4 15 4.22386 15 4.5V11.5Z"
      fill="currentColor" />
    <path
      d="M2 5C2 3.89543 2.89543 3 4 3H12C13.1046 3 14 3.89543 14 5V11C14 12.1046 13.1046 13 12 13H4C2.89543 13 2 12.1046 2 11V5ZM12 5.5C12 5.22386 11.7761 5 11.5 5H4.5C4.22386 5 4 5.22386 4 5.5V10.5C4 10.7761 4.22386 11 4.5 11H11.5C11.7761 11 12 10.7761 12 10.5V5.5Z"
      fill="currentColor" />
  </g>
</svg>