<svg width="16" height="16" viewBox="0 0 16 16" xmlns="http://www.w3.org/2000/svg"
  aria-hidden="true" focusable="false">
  <g fill-rule="evenodd">
    <rect fill="none" x="0" y="0" width="16" height="16"></rect>
    <path
      d="M5.49999 1C6.08476 1 6.59138 1.33462 6.8388 1.82284L6.89515 1.94798L6.91299 2H13.5C14.231 2 14.8398 2.52285 14.9729 3.21497L14.9931 3.35554L15 3.5L15.001 4.13323C15.4777 4.34982 15.8213 4.81002 15.8751 5.36133L15.8825 5.51383L15.8781 5.61042L15 13.5C15 14.2797 14.4051 14.9204 13.6444 14.9931L13.5 15H2.49999C1.72029 15 1.07954 14.4051 1.00941 13.6905L1.00305 13.5552L0.126429 5.66565C0.0530802 5.00551 0.419926 4.39791 0.9997 4.13511L0.999989 2.5C0.999989 1.7203 1.59488 1.07955 2.35553 1.00687L2.49999 1H5.49999ZM1.59299 5L1.56204 5.00306C1.31808 5.03016 1.13471 5.2285 1.11839 5.465L1.12031 5.55522L1.99999 13.5C1.99999 13.7455 2.17686 13.9496 2.41011 13.9919L2.49999 14H13.5C13.7454 14 13.9496 13.8231 13.9941 13.5512L14.003 13.4449L14.8814 5.54147L14.8827 5.5C14.8827 5.25454 14.7058 5.05039 14.4726 5.00806L14.3827 5H1.59299ZM2.49999 2H5.49999L5.58987 2.00806C5.82311 2.05039 5.99999 2.25454 5.99999 2.5L6.00805 2.58988C6.05038 2.82312 6.25453 3 6.49999 3H13.5L13.5899 3.00806L13.6745 3.03128C13.8646 3.10207 14 3.28522 14 3.5V4H1.99999V2.5L2.00805 2.41012C2.05038 2.17688 2.25453 2 2.49999 2Z"
      fill="currentColor" />
  </g>
</svg>