<svg width="16" height="16" viewBox="0 0 16 16" xmlns="http://www.w3.org/2000/svg"
  aria-hidden="true" focusable="false">
  <g fill-rule="evenodd">
    <rect fill="none" x="0" y="0" width="16" height="16"></rect>
    <path
      d="M6.89516 1.94798C6.67528 1.39272 6.1335 1 5.49999 1H2.49999L2.35553 1.00687C1.59488 1.07955 0.999994 1.7203 0.999994 2.5L0.998929 4.13293C0.422632 4.39345 0.0528151 5.00308 0.126433 5.66565L1.00305 13.5552L1.00941 13.6905C1.07955 14.4051 1.7203 15 2.49999 15H13.5L13.6445 14.9931C14.4051 14.9204 15 14.2797 15 13.5L15.8736 5.66565L15.8804 5.58295L15.8827 5.5C15.8827 4.89184 15.5208 4.36821 15.0006 4.13275L15 3.5L14.9931 3.35554C14.9204 2.59489 14.2797 2 13.5 2H6.91299L6.89516 1.94798ZM2.49999 2H5.49999L5.58987 2.00806C5.82312 2.05039 5.99999 2.25454 5.99999 2.5L6.00805 2.58988C6.05039 2.82312 6.25453 3 6.49999 3H13.5L13.5899 3.00806C13.8231 3.05039 14 3.25454 14 3.5L13.9991 4H1.99913L1.99999 2.5L2.00805 2.41012C2.05039 2.17688 2.25453 2 2.49999 2Z"
      fill="currentColor" />
  </g>
</svg>