<svg xmlns="http://www.w3.org/2000/svg" width="16" height="16" viewBox="0 0 16 16" aria-hidden="true" focusable="false"><path fill="currentColor" d="M5.5,1 C6.08477209,1 6.59138843,1.33462455 6.83881221,1.82283684 L6.89516355,1.9479849 L6.913,2 L13.5,2 C14.2309651,2 14.8398119,2.52285085 14.9729528,3.21496507 L14.9931334,3.35553999 L15,3.5 L15.0010598,4.13322895 C15.4776831,4.34981658 15.8213063,4.81001691 15.8751588,5.36132835 L15.8825437,5.51383039 L15.8781572,5.61042101 L15,13.5 C15,14.2796961 14.4051119,14.9204487 13.64446,14.9931334 L13.5,15 L2.5,15 C1.72030388,15 1.07955132,14.4051119 1.00941616,13.6904938 L1.00305813,13.5552158 L0.126439413,5.66564729 C0.0530908166,5.00550992 0.41993647,4.39791149 0.999710191,4.1351147 L1,2.5 C1,1.72030388 1.59488808,1.07955132 2.35553999,1.00686658 L2.5,1 L5.5,1 Z M1.593,5 L1.56204925,5.00305813 C1.31809066,5.03016464 1.1347234,5.22850242 1.11840444,5.46500023 L1.12032315,5.55521576 L2,13.5 C2,13.7454599 2.17687516,13.9496084 2.41012437,13.9919443 L2.5,14 L13.5,14 C13.7454599,14 13.9496084,13.8231248 13.9940847,13.5511627 L14.0030476,13.4448794 L14.8813961,5.54147 L14.882735,5.5 C14.882735,5.25454011 14.7058598,5.05039163 14.4726106,5.00805567 L14.382735,5 L1.593,5 Z M5.5,2 L2.5,2 C2.25454011,2 2.05039163,2.17687516 2.00805567,2.41012437 L2,2.5 L2,4 L14,4 L14,3.5 C14,3.2852226 13.86458,3.10207424 13.6744662,3.03128126 L13.5898756,3.00805567 L13.5,3 L6.5,3 C6.25454011,3 6.05039163,2.82312484 6.00805567,2.58987563 L6,2.5 C6,2.25454011 5.82312484,2.05039163 5.58987563,2.00805567 L5.5,2 Z"></path></svg>