<svg xmlns="http://www.w3.org/2000/svg" width="16" height="16" viewBox="0 0 16 16" aria-hidden="true" focusable="false"><path fill="currentColor" d="M16,5 L16,13.5 C16,14.2796961 15.4051119,14.9204487 14.64446,14.9931334 L14.5,15 L1.5,15 C0.720303883,15 0.0795513218,14.4051119 0.00686657806,13.64446 L0,13.5 L0,5 L16,5 Z M0,2.5 C0,1.72030388 0.594888083,1.07955132 1.35553999,1.00686658 L1.5,1 L4.5,1 C5.15321869,1 5.70891488,1.41754351 5.91475048,2.00029246 L14.5,2 C15.2796961,2 15.9204487,2.59488808 15.9931334,3.35553999 L16,3.5 L16,4 L0,4 L0,2.5 Z"></path></svg>