<svg width="16" height="16" viewBox="0 0 16 16" xmlns="http://www.w3.org/2000/svg"
  aria-hidden="true" focusable="false">
  <g fill-rule="evenodd">
    <rect fill="none" x="0" y="0" width="16" height="16"></rect>
    <path
      d="M4.5 1C5.08477 1 5.59139 1.33462 5.83881 1.82284L5.89516 1.94798L5.913 2H14.5C15.231 2 15.8398 2.52285 15.973 3.21497L15.9931 3.35554L16 3.5V13.5C16 14.2797 15.4051 14.9204 14.6445 14.9931L14.5 15H1.5C0.720304 15 0.0795513 14.4051 0.00686658 13.6445L0 13.5V2.5C0 1.7203 0.594888 1.07955 1.35554 1.00687L1.5 1H4.5ZM15 5H1V13.5C1 13.7455 1.17688 13.9496 1.41012 13.9919L1.5 14H14.5C14.7455 14 14.9496 13.8231 14.9919 13.5899L15 13.5V5ZM1.5 2H4.5L4.58988 2.00806C4.79397 2.0451 4.9549 2.20603 4.99194 2.41012L5.00806 2.58988C5.05039 2.82312 5.25454 3 5.5 3H14.5L14.5899 3.00806C14.8231 3.05039 15 3.25454 15 3.5V4H1V2.5L1.00806 2.41012C1.05039 2.17688 1.25454 2 1.5 2Z"
      fill="currentColor" />
  </g>
</svg>