<svg xmlns="http://www.w3.org/2000/svg" width="16" height="16" viewBox="0 0 16 16" aria-hidden="true" focusable="false"><path fill="currentColor" d="M5.5,1 C6.1335031,1 6.67528173,1.39271909 6.89516355,1.9479849 L6.913,2 L13.5,2 C14.2796961,2 14.9204487,2.59488808 14.9931334,3.35553999 L15,3.5 L15.000587,4.13275264 C15.5208051,4.36820732 15.882735,4.89183703 15.882735,5.5 L15.8804396,5.58295058 L15.8804396,5.58295058 L15.8735606,5.66564729 L15,13.5 C15,14.2796961 14.4051119,14.9204487 13.64446,14.9931334 L13.5,15 L2.5,15 C1.72030388,15 1.07955132,14.4051119 1.00941616,13.6904938 L1.00305813,13.5552158 L0.126439413,5.66564729 C0.0528213209,5.00308446 0.422638124,4.39344735 0.998935589,4.13292877 L1,2.5 C1,1.72030388 1.59488808,1.07955132 2.35553999,1.00686658 L2.5,1 L5.5,1 Z M5.5,2 L2.5,2 C2.25454011,2 2.05039163,2.17687516 2.00805567,2.41012437 L2,2.5 L1.99913273,4 L13.9991327,4 L14,3.5 C14,3.25454011 13.8231248,3.05039163 13.5898756,3.00805567 L13.5,3 L6.5,3 C6.25454011,3 6.05039163,2.82312484 6.00805567,2.58987563 L6,2.5 C6,2.25454011 5.82312484,2.05039163 5.58987563,2.00805567 L5.5,2 Z"></path></svg>