<svg xmlns="http://www.w3.org/2000/svg" width="16" height="16" viewBox="0 0 16 16" aria-hidden="true" focusable="false"><path fill="currentColor" d="M4.5,1 C5.08477209,1 5.59138843,1.33462455 5.83881221,1.82283684 L5.89516355,1.9479849 L5.913,2 L14.5,2 C15.2309651,2 15.8398119,2.52285085 15.9729528,3.21496507 L15.9931334,3.35553999 L16,3.5 L16,13.5 C16,14.2796961 15.4051119,14.9204487 14.64446,14.9931334 L14.5,15 L1.5,15 C0.720303883,15 0.0795513218,14.4051119 0.00686657806,13.64446 L0,13.5 L0,2.5 C0,1.72030388 0.594888083,1.07955132 1.35553999,1.00686658 L1.5,1 L4.5,1 Z M15,5 L1,5 L1,13.5 C1,13.7454599 1.17687516,13.9496084 1.41012437,13.9919443 L1.5,14 L14.5,14 C14.7454599,14 14.9496084,13.8231248 14.9919443,13.5898756 L15,13.5 L15,5 Z M4.5,2 L1.5,2 C1.25454011,2 1.05039163,2.17687516 1.00805567,2.41012437 L1,2.5 L1,4 L15,4 L15,3.5 C15,3.25454011 14.8231248,3.05039163 14.5898756,3.00805567 L14.5,3 L5.5,3 C5.25454011,3 5.05039163,2.82312484 5.00805567,2.58987563 L4.99194433,2.41012437 C4.95490037,2.20603131 4.79396869,2.04509963 4.58987563,2.00805567 L4.5,2 Z"></path></svg>