<svg width="16" height="17" viewBox="0 0 16 17" fill="none" xmlns="http://www.w3.org/2000/svg">
<path transform="matrix(1.333 0 0 1.333 0 0)" fill-rule="evenodd" clip-rule="evenodd" d="M11.5291 7.9775C11.4759 6.73024 10.9166 6.20416 9.65625 6.20416C8.36183 6.20416 7.78125 6.78475 7.78125 8.07916V8.31354C7.78125 8.44298 7.88618 8.54791 8.01562 8.54791H8.48438C8.61382 8.54791 8.71875 8.44298 8.71875 8.31354V8.07916L8.72114 7.99653C8.76391 7.25834 8.90734 7.14166 9.65625 7.14166C10.4329 7.14166 10.5938 7.30251 10.5938 8.07916V8.31354C10.5938 8.44298 10.6987 8.54791 10.8281 8.54791H11.2969C11.4263 8.54791 11.5312 8.44298 11.5312 8.31354V8.07916L11.5291 7.9775ZM11.9968 9.43075C11.9698 9.19762 11.7716 9.01666 11.5312 9.01666H7.78125L7.72658 9.01982C7.49346 9.04689 7.3125 9.24502 7.3125 9.48541V12.2979L7.31565 12.3526C7.34273 12.5857 7.54086 12.7667 7.78125 12.7667H11.5312L11.5859 12.7635C11.819 12.7364 12 12.5383 12 12.2979V9.48541L11.9968 9.43075Z" fill="currentColor"/>
<path transform="matrix(1.333 0 0 1.333 0 0)" fill-rule="evenodd" clip-rule="evenodd" d="M6.25617 12.7613C6.17123 12.7649 6.08582 12.7667 6 12.7667C2.68629 12.7667 0 10.0804 0 6.76666C0 3.45295 2.68629 0.766663 6 0.766663C9.03054 0.766663 11.5363 3.01346 11.9424 5.93218C11.9031 5.88896 11.8617 5.84675 11.8182 5.80563C11.2131 5.23353 10.4152 5.07916 9.65625 5.07916C8.86634 5.07916 8.04494 5.25367 7.43785 5.86076C6.83076 6.46785 6.65625 7.28925 6.65625 8.07916V8.31354C6.65625 8.32772 6.65647 8.34185 6.6569 8.35593C6.5689 8.44346 6.49109 8.5412 6.42538 8.64724C6.2849 8.6434 6.14303 8.64166 6 8.64166C5.78203 8.64166 5.56674 8.64571 5.35529 8.65352C5.42503 9.26184 5.5289 9.81239 5.66048 10.2729C5.73054 10.5181 5.80629 10.7291 5.88328 10.8994L5.94119 11.0195L6 11.1234C6.03997 11.0442 6.14832 11.581 6.1875 11.4803V12.3303L6.1944 12.45L6.19817 12.4824C6.2093 12.5782 6.22889 12.6714 6.25617 12.7613ZM2.18232 9.15009L2.3095 9.10632L2.49582 9.05007C2.8811 8.94042 3.34091 8.84821 3.85149 8.77932L3.89155 9.11831L3.93212 9.40447C4.01835 9.96844 4.13517 10.4814 4.28258 10.9273C3.41094 10.5671 2.67715 9.94102 2.18232 9.15009ZM1.60848 5.78012L1.60982 5.77158C2.19688 5.98534 2.93179 6.14979 3.75579 6.25558L3.75117 6.53923V6.9941L3.75597 7.27855C2.93178 7.38436 2.19672 7.54885 1.61068 7.76303C1.53824 7.44253 1.5 7.10906 1.5 6.76666C1.5 6.42776 1.53746 6.09761 1.60848 5.78012ZM6.55148 6.38467L6.74575 6.3773L6.75 6.76666L6.74567 7.15603C6.50076 7.14651 6.25182 7.14166 6 7.14166C5.74834 7.14166 5.49955 7.14651 5.25427 7.15678C5.25144 7.02776 5.25 6.89764 5.25 6.76666L5.25433 6.37812C5.49924 6.38764 5.74818 6.3925 6 6.3925C6.18554 6.3925 6.36952 6.38986 6.55148 6.38467ZM5.99925 2.40916L5.94119 2.51381C5.84451 2.70094 5.74806 2.95387 5.66048 3.26039C5.52885 3.72112 5.42495 4.27194 5.35461 4.87903C5.56654 4.88845 5.78192 4.8925 6 4.8925C6.21797 4.8925 6.43326 4.88845 6.64471 4.88064C6.57505 4.27194 6.47115 3.72112 6.33952 3.26039C6.26946 3.01518 6.19371 2.80426 6.11672 2.63388L6.05881 2.51381L5.99925 2.40916ZM4.2484 2.62029L4.28229 2.60609C4.1106 3.1263 3.98027 3.73771 3.89155 4.41502L3.85086 4.75475C3.19301 4.66596 2.61946 4.53845 2.18185 4.38398C2.67021 3.60306 3.39148 2.98274 4.2484 2.62029ZM7.71742 2.606L7.75545 2.72404C7.88309 3.13558 7.98612 3.60025 8.06443 4.10643L8.10845 4.41502L8.14851 4.75484C8.80648 4.66606 9.38014 4.53856 9.81864 4.38491C9.36184 3.65401 8.70114 3.06381 7.9162 2.69386L7.71742 2.606Z" fill="currentColor"/>
</svg>
