<svg xmlns="http://www.w3.org/2000/svg" width="16" height="16" viewBox="0 0 16 16" aria-hidden="true" focusable="false"><g fill-rule="evenodd"><rect fill="none" stroke="none" x="0" y="0" width="16" height="16"></rect><path fill="none" stroke="currentColor" stroke-linecap="round" stroke-linejoin="round" stroke-width="2" d="M8 15A7 7 0 1 0 8 1a7 7 0 0 0 0 14zm0 0c1.105 0 2-3.134 2-7s-.895-7-2-7-2 3.134-2 7 .895 7 2 7zm6.272-9.61C13.127 6.049 10.748 6.501 8 6.501S2.873 6.05 1.728 5.39m12.544 5.221C13.127 9.953 10.748 9.5 8 9.5s-5.127.453-6.272 1.111"></path></g></svg>