<svg width="16" height="16" viewBox="0 0 16 16" xmlns="http://www.w3.org/2000/svg"
  aria-hidden="true" focusable="false">
  <g fill-rule="evenodd">
    <rect fill="none" x="0" y="0" width="16" height="16"></rect>
    <path
      d="M16 8C16 3.58172 12.4183 0 8 0C3.58172 0 0 3.58172 0 8C0 12.4183 3.58172 16 8 16C12.4183 16 16 12.4183 16 8ZM7.14039 10.5158C7.42233 10.5054 7.70937 10.5 8 10.5C8.29077 10.5 8.57794 10.5054 8.8604 10.5178C8.76662 11.3269 8.62813 12.061 8.45269 12.675L8.39337 12.8733L8.32004 13.095C8.2457 13.3074 8.16862 13.492 8.0913 13.6452L8 13.809L7.92159 13.6705L7.84438 13.5104C7.74172 13.2832 7.64073 13.002 7.54731 12.675C7.37187 12.061 7.23338 11.3269 7.14039 10.5158ZM3.07933 11.1195L2.90976 11.1779C3.56953 12.2325 4.54792 13.0673 5.71011 13.5475C5.51356 12.9529 5.3578 12.269 5.24282 11.5171L5.18873 11.1355L5.13531 10.6835C4.45455 10.7754 3.84147 10.8983 3.32776 11.0445L3.07933 11.1195ZM10.8113 11.1355L10.8655 10.6837L11.1889 10.7304C11.9304 10.845 12.5796 10.9975 13.0909 11.1769C12.4311 12.2319 11.4524 13.0671 10.2903 13.5474C10.5192 12.8538 10.693 12.0386 10.8113 11.1355ZM2.14643 6.67323L2.14463 6.68461C2.04995 7.10793 2 7.54813 2 8C2 8.45653 2.05099 8.90115 2.14758 9.32848C2.92896 9.04292 3.90904 8.8236 5.00796 8.68252L5.00156 8.30325V7.69675L5.00772 7.31856C3.90905 7.1775 2.92918 6.95823 2.14643 6.67323ZM13.7239 6.71921L13.8526 6.67252C13.9491 7.09954 14 7.54383 14 8C14 8.45653 13.949 8.90115 13.8536 9.32788C13.0708 9.04288 12.0909 8.82361 10.9923 8.68255L10.9984 8.30325L11 8C11 7.79685 10.9979 7.59563 10.9938 7.3966L10.992 7.31859C12.031 7.18521 12.9637 6.9819 13.7239 6.71921ZM8.99433 7.48084L8.7353 7.49067C8.49269 7.4976 8.24739 7.50111 8 7.50111C7.66424 7.50111 7.33232 7.49464 7.00578 7.48195L7 8C7 8.17464 7.00191 8.34813 7.00569 8.52016C7.33274 8.50646 7.66445 8.5 8 8.5C8.33576 8.5 8.66768 8.50647 8.99422 8.51916L9 8L8.99433 7.48084ZM7.92159 2.32952L7.999 2.19L8.07841 2.32952L8.15562 2.48963C8.25828 2.71679 8.35927 2.99802 8.45269 3.32497C8.62821 3.93928 8.76674 4.67371 8.85961 5.4853C8.57767 5.49572 8.29063 5.50111 8 5.50111C7.70923 5.50111 7.42206 5.49571 7.13948 5.48316C7.23326 4.67371 7.37179 3.93928 7.54731 3.32497C7.66408 2.91628 7.79269 2.57904 7.92159 2.32952ZM5.70972 2.45257L5.66453 2.47151C4.52198 2.95477 3.56027 3.78187 2.90913 4.82309C3.49262 5.02906 4.25735 5.19906 5.13449 5.31745L5.18873 4.86447C5.30702 3.9614 5.4808 3.14618 5.70972 2.45257ZM10.3406 2.60983L10.2899 2.45245L10.5549 2.56959C11.6015 3.06286 12.4825 3.84979 13.0915 4.82433C12.5069 5.0292 11.742 5.19919 10.8647 5.31757L10.8113 4.86447L10.7526 4.45302C10.6482 3.77812 10.5108 3.15856 10.3406 2.60983Z"
      fill="currentColor" />
  </g>
</svg>