<svg width="16" height="16" viewBox="0 0 16 16" xmlns="http://www.w3.org/2000/svg"
  aria-hidden="true" focusable="false">
  <g fill-rule="evenodd">
    <rect fill="none" x="0" y="0" width="16" height="16"></rect>
    <path
      d="M1 2C1 1.44772 1.44772 1 2 1H6.5C7.05228 1 7.5 1.44772 7.5 2V4C7.5 4.55228 7.05228 5 6.5 5H2C1.44772 5 1 4.55228 1 4V2Z"
      fill="currentColor" />
    <path
      d="M8.5 2C8.5 1.44772 8.94772 1 9.5 1H14C14.5523 1 15 1.44772 15 2V4C15 4.55228 14.5523 5 14 5H9.5C8.94772 5 8.5 4.55228 8.5 4V2Z"
      fill="currentColor" />
    <path
      d="M1 7C1 6.44772 1.44772 6 2 6H6.5C7.05228 6 7.5 6.44772 7.5 7V9C7.5 9.55228 7.05228 10 6.5 10H2C1.44772 10 1 9.55228 1 9V7Z"
      fill="currentColor" />
    <path
      d="M8.5 7C8.5 6.44772 8.94772 6 9.5 6H14C14.5523 6 15 6.44772 15 7V9C15 9.55228 14.5523 10 14 10H9.5C8.94772 10 8.5 9.55228 8.5 9V7Z"
      fill="currentColor" />
    <path
      d="M1 12C1 11.4477 1.44772 11 2 11H6.5C7.05228 11 7.5 11.4477 7.5 12V14C7.5 14.5523 7.05228 15 6.5 15H2C1.44772 15 1 14.5523 1 14V12Z"
      fill="currentColor" />
    <path
      d="M8.5 12C8.5 11.4477 8.94772 11 9.5 11H14C14.5523 11 15 11.4477 15 12V14C15 14.5523 14.5523 15 14 15H9.5C8.94772 15 8.5 14.5523 8.5 14V12Z"
      fill="currentColor" />
  </g>
</svg>