<svg width="16" height="16" viewBox="0 0 16 16" xmlns="http://www.w3.org/2000/svg"
  aria-hidden="true" focusable="false">
  <g fill-rule="evenodd">
    <rect fill="none" x="0" y="0" width="16" height="16"></rect>
    <path
      d="M15.3721 10.3033C15.3011 8.64035 14.5555 7.9389 12.875 7.9389C11.1491 7.9389 10.375 8.71301 10.375 10.4389V10.7514C10.375 10.924 10.5149 11.0639 10.6875 11.0639H11.3125C11.4851 11.0639 11.625 10.924 11.625 10.7514V10.4389L11.6282 10.3287C11.6852 9.34448 11.8764 9.1889 12.875 9.1889C13.9105 9.1889 14.125 9.40337 14.125 10.4389V10.7514C14.125 10.924 14.2649 11.0639 14.4375 11.0639H15.0625C15.2351 11.0639 15.375 10.924 15.375 10.7514V10.4389L15.3721 10.3033ZM15.9958 12.241C15.9597 11.9302 15.6955 11.6889 15.375 11.6889H10.375L10.3021 11.6931C9.99127 11.7292 9.75 11.9934 9.75 12.3139V16.0639L9.7542 16.1368C9.79031 16.4476 10.0545 16.6889 10.375 16.6889H15.375L15.4479 16.6847C15.7587 16.6486 16 16.3844 16 16.0639V12.3139L15.9958 12.241Z"
      fill="currentColor" />
    <path
      d="M8.34157 16.6817C8.2283 16.6865 8.11443 16.6889 8 16.6889C3.58172 16.6889 0 13.1072 0 8.6889C0 4.27063 3.58172 0.688904 8 0.688904C12.0407 0.688904 15.3817 3.68463 15.9232 7.57626C15.8708 7.51863 15.8156 7.46235 15.7576 7.40753C14.9508 6.64473 13.8869 6.4389 12.875 6.4389C11.8218 6.4389 10.7266 6.67158 9.91713 7.48104C9.10768 8.29049 8.875 9.38569 8.875 10.4389V10.7514C8.875 10.7703 8.87529 10.7892 8.87586 10.8079C8.75853 10.9246 8.65478 11.055 8.56717 11.1963C8.37987 11.1912 8.19071 11.1889 8 11.1889C7.70937 11.1889 7.42233 11.1943 7.14039 11.2047C7.23338 12.0158 7.37187 12.7499 7.54731 13.3639C7.64073 13.6909 7.74172 13.9721 7.84438 14.1993L7.92159 14.3594L8 14.4979C8.05329 14.3923 8.19776 15.1081 8.25 14.9738V16.1071L8.2592 16.2666L8.26422 16.3099C8.27906 16.4376 8.30518 16.5619 8.34157 16.6817ZM2.90976 11.8668L3.07933 11.8085L3.32776 11.7334C3.84147 11.5872 4.45455 11.4643 5.13531 11.3724L5.18873 11.8244L5.24282 12.206C5.3578 12.9579 5.51356 13.6418 5.71011 14.2364C4.54792 13.7562 3.56953 12.9214 2.90976 11.8668ZM2.14463 7.37352L2.14643 7.36213C2.92918 7.64714 3.90905 7.8664 5.00772 8.00746L5.00156 8.38566V8.99215L5.00796 9.37143C3.90904 9.51251 2.92896 9.73182 2.14758 10.0174C2.05099 9.59006 2 9.14544 2 8.6889C2 8.23703 2.04995 7.79683 2.14463 7.37352ZM8.7353 8.17958L8.99433 8.16975L9 8.6889L8.99422 9.20807C8.66768 9.19537 8.33576 9.1889 8 9.1889C7.66445 9.1889 7.33274 9.19536 7.00569 9.20906C7.00191 9.03704 7 8.86355 7 8.6889L7.00578 8.17085C7.33232 8.18355 7.66424 8.19001 8 8.19001C8.24739 8.19001 8.49269 8.1865 8.7353 8.17958ZM7.999 2.8789L7.92159 3.01843C7.79269 3.26794 7.66408 3.60518 7.54731 4.01388C7.37179 4.62818 7.23326 5.36261 7.13948 6.17206C7.42206 6.18462 7.70923 6.19001 8 6.19001C8.29063 6.19002 8.57767 6.18462 8.85961 6.17421C8.76674 5.36261 8.62821 4.62818 8.45269 4.01388C8.35927 3.68692 8.25828 3.4057 8.15562 3.17853L8.07841 3.01843L7.999 2.8789ZM5.66453 3.16041L5.70972 3.14148C5.4808 3.83508 5.30702 4.65031 5.18873 5.55338L5.13449 6.00636C4.25735 5.88796 3.49262 5.71796 2.90913 5.512C3.56027 4.47077 4.52198 3.64367 5.66453 3.16041ZM10.2899 3.14136L10.3406 3.29873C10.5108 3.84747 10.6482 4.46702 10.7526 5.14192L10.8113 5.55338L10.8647 6.00647C11.742 5.8881 12.5069 5.7181 13.0915 5.51323C12.4825 4.53869 11.6015 3.75176 10.5549 3.2585L10.2899 3.14136Z"
      fill="currentColor" />
  </g>
</svg>