<svg width="16" height="16" viewBox="0 0 16 16" xmlns="http://www.w3.org/2000/svg"
  aria-hidden="true" focusable="false">
  <g fill-rule="evenodd">
    <rect fill="none" x="0" y="0" width="16" height="16"></rect>
    <path
      d="M2 14C2 12.3431 3.34315 11 5 11H11C12.6569 11 14 12.3431 14 14V15C14 15.5523 13.5523 16 13 16C12.4477 16 12 15.5523 12 15V14C12 13.4477 11.5523 13 11 13H5C4.44772 13 4 13.4477 4 14V15C4 15.5523 3.55228 16 3 16C2.44772 16 2 15.5523 2 15V14Z"
      fill="currentColor" />
    <path
      d="M0 8C0 6.61929 1.11929 5.5 2.5 5.5H3C3.55228 5.5 4 5.94772 4 6.5C4 7.05228 3.55228 7.5 3 7.5H2.5C2.22386 7.5 2 7.72386 2 8V9.5C2 10.0523 1.55228 10.5 1 10.5C0.447715 10.5 0 10.0523 0 9.5V8Z"
      fill="currentColor" />
    <path
      d="M16 8C16 6.61929 14.8807 5.5 13.5 5.5H13C12.4477 5.5 12 5.94772 12 6.5C12 7.05228 12.4477 7.5 13 7.5H13.5C13.7761 7.5 14 7.72386 14 8V9.5C14 10.0523 14.4477 10.5 15 10.5C15.5523 10.5 16 10.0523 16 9.5V8Z"
      fill="currentColor" />
    <path
      d="M8 8.5C8.82843 8.5 9.5 7.82843 9.5 7C9.5 6.17157 8.82843 5.5 8 5.5C7.17157 5.5 6.5 6.17157 6.5 7C6.5 7.82843 7.17157 8.5 8 8.5ZM8 10.5C9.933 10.5 11.5 8.933 11.5 7C11.5 5.067 9.933 3.5 8 3.5C6.067 3.5 4.5 5.067 4.5 7C4.5 8.933 6.067 10.5 8 10.5Z"
      fill="currentColor" />
    <path
      d="M12.5 4.25C13.6046 4.25 14.5 3.35457 14.5 2.25C14.5 1.14543 13.6046 0.25 12.5 0.25C11.3954 0.25 10.5 1.14543 10.5 2.25C10.5 3.35457 11.3954 4.25 12.5 4.25Z"
      fill="currentColor" />
    <path
      d="M3.5 4.25C4.60457 4.25 5.5 3.35457 5.5 2.25C5.5 1.14543 4.60457 0.25 3.5 0.25C2.39543 0.25 1.5 1.14543 1.5 2.25C1.5 3.35457 2.39543 4.25 3.5 4.25Z"
      fill="currentColor" />
  </g>
</svg>