<svg width="16" height="16" viewBox="0 0 16 16" xmlns="http://www.w3.org/2000/svg"
  aria-hidden="true" focusable="false">
  <g fill-rule="evenodd">
    <rect fill="none" x="0" y="0" width="16" height="16"></rect>
    <path
      d="M11.4286 6.85714C11.4286 8.75069 9.89355 10.2857 8 10.2857C6.10645 10.2857 4.57143 8.75069 4.57143 6.85714C4.57143 4.9636 6.10645 3.42857 8 3.42857C9.89355 3.42857 11.4286 4.9636 11.4286 6.85714Z"
      fill="currentColor" />
    <path
      d="M3.42857 4.57143C4.69094 4.57143 5.71429 3.54808 5.71429 2.28571C5.71429 1.02335 4.69094 0 3.42857 0C2.16621 0 1.14286 1.02335 1.14286 2.28571C1.14286 3.54808 2.16621 4.57143 3.42857 4.57143Z"
      fill="currentColor" />
    <path
      d="M12.5714 4.57143C13.8338 4.57143 14.8571 3.54808 14.8571 2.28571C14.8571 1.02335 13.8338 0 12.5714 0C11.3091 0 10.2857 1.02335 10.2857 2.28571C10.2857 3.54808 11.3091 4.57143 12.5714 4.57143Z"
      fill="currentColor" />
    <path
      d="M4.57143 11.4286C3.30906 11.4286 2.28571 12.4519 2.28571 13.7143V14.8571C2.28571 15.4883 2.79739 16 3.42857 16H12.5714C13.2026 16 13.7143 15.4883 13.7143 14.8571V13.7143C13.7143 12.4519 12.6909 11.4286 11.4286 11.4286H4.57143Z"
      fill="currentColor" />
    <path
      d="M4.9762 10.2857H1.14286C0.511675 10.2857 0 9.77404 0 9.14286V8C0 6.73764 1.02335 5.71429 2.28571 5.71429H3.57259C3.47857 6.07957 3.42857 6.46251 3.42857 6.85714C3.42857 8.22251 4.02715 9.44806 4.9762 10.2857Z"
      fill="currentColor" />
    <path
      d="M11.0238 10.2857H14.8571C15.4883 10.2857 16 9.77404 16 9.14286V8C16 6.73764 14.9767 5.71429 13.7143 5.71429H12.4274C12.5214 6.07957 12.5714 6.46251 12.5714 6.85714C12.5714 8.22251 11.9729 9.44806 11.0238 10.2857Z"
      fill="currentColor" />
  </g>
</svg>