<svg xmlns="http://www.w3.org/2000/svg" width="16" height="16" viewBox="0 0 16 16" aria-hidden="true" focusable="false"><path fill="currentColor" d="M4,11 C6.209139,11 8,12.790861 8,15 C8,15.5128358 7.61395981,15.9355072 7.11662113,15.9932723 L7,16 L1,16 C0.44771525,16 0,15.5522847 0,15 C0,12.790861 1.790861,11 4,11 Z M12,7 C14.209139,7 16,8.790861 16,11 C16,11.5128358 15.6139598,11.9355072 15.1166211,11.9932723 L15,12 L9,12 C8.44771525,12 8,11.5522847 8,11 C8,8.790861 9.790861,7 12,7 Z M4,4 C5.65685425,4 7,5.34314575 7,7 C7,8.65685425 5.65685425,10 4,10 C2.34314575,10 1,8.65685425 1,7 C1,5.34314575 2.34314575,4 4,4 Z M12,0 C13.6568542,0 15,1.34314575 15,3 C15,4.65685425 13.6568542,6 12,6 C10.3431458,6 9,4.65685425 9,3 C9,1.34314575 10.3431458,0 12,0 Z"></path></svg>