<svg width="16" height="16" viewBox="0 0 16 16" xmlns="http://www.w3.org/2000/svg"
  aria-hidden="true" focusable="false">
  <g fill-rule="evenodd">
    <rect fill="none" x="0" y="0" width="16" height="16"></rect>
    <path
      d="M1.6129 0.209705L1.70711 0.292893L15.7071 14.2929C16.0976 14.6834 16.0976 15.3166 15.7071 15.7071C15.3466 16.0676 14.7794 16.0953 14.3871 15.7903L14.2929 15.7071L0.292893 1.70711C-0.0976311 1.31658 -0.0976311 0.683418 0.292893 0.292893C0.653377 -0.0675907 1.22061 -0.0953203 1.6129 0.209705ZM2.19605 5.05494C2.65878 5.35643 2.7895 5.97595 2.48802 6.43869C2.16489 6.93464 2 7.4614 2 8C2 10.1229 4.62796 12 8 12C8.22061 12 8.43967 11.9919 8.6566 11.9758C9.20738 11.935 9.68694 12.3485 9.72773 12.8992C9.76852 13.45 9.3551 13.9296 8.80433 13.9704C8.53823 13.9901 8.26989 14 8 14C3.64005 14 0 11.4 0 8C0 7.06308 0.282817 6.15959 0.812302 5.34691C1.11379 4.88417 1.73331 4.75346 2.19605 5.05494ZM16 8C16 4.60004 12.3599 2 8 2C7.73011 2 7.46177 2.00992 7.19568 2.02963C6.6449 2.07042 6.23148 2.54998 6.27227 3.10076C6.31306 3.65153 6.79262 4.06496 7.3434 4.02416C7.56033 4.0081 7.77939 4 8 4C11.372 4 14 5.87711 14 8C14 8.5386 13.8351 9.06536 13.512 9.56131C13.2105 10.024 13.3412 10.6436 13.804 10.9451C14.2667 11.2465 14.8862 11.1158 15.1877 10.6531C15.7172 9.84041 16 8.93692 16 8Z"
      fill="currentColor" />
  </g>
</svg>