<svg xmlns="http://www.w3.org/2000/svg" width="16" height="16" viewBox="0 0 16 16" aria-hidden="true" focusable="false"><path fill="currentColor" d="M1.61289944,0.209704612 L1.70710678,0.292893219 L15.7071068,14.2928932 C16.0976311,14.6834175 16.0976311,15.3165825 15.7071068,15.7071068 C15.3466228,16.0675907 14.7793918,16.0953203 14.3871006,15.7902954 L14.2928932,15.7071068 L0.292893219,1.70710678 C-0.0976310729,1.31658249 -0.0976310729,0.683417511 0.292893219,0.292893219 C0.65337718,-0.0675907428 1.22060824,-0.0953202783 1.61289944,0.209704612 Z M2.19604887,5.05494269 C2.65878442,5.35642943 2.78950241,5.97595401 2.48801567,6.43868956 C2.16488794,6.93464068 2,7.46139686 2,8 C2,10.1228856 4.62796016,12 8,12 C8.22060643,12 8.4396701,11.9919023 8.65660209,11.9758355 C9.20737829,11.9350431 9.68693944,12.3484666 9.72773191,12.8992428 C9.76852437,13.450019 9.35510087,13.9295801 8.80432467,13.9703726 C8.53822524,13.9900809 8.26988704,14 8,14 C3.64005335,14 0,11.3999619 0,8 C0,7.06308249 0.28281658,6.15958778 0.812302005,5.34690949 C1.11378875,4.88417394 1.73331332,4.75345595 2.19604887,5.05494269 Z M8,2 C12.3599467,2 16,4.6000381 16,8 C16,8.93691751 15.7171834,9.84041222 15.187698,10.6530905 C14.8862113,11.1158261 14.2666867,11.246544 13.8039511,10.9450573 C13.3412156,10.6435706 13.2104976,10.024046 13.5119843,9.56131044 C13.8351121,9.06535932 14,8.53860314 14,8 C14,5.8771144 11.3720398,4 8,4 C7.77939357,4 7.5603299,4.00809769 7.34339791,4.02416445 C6.79262171,4.06495692 6.31306056,3.65153342 6.27226809,3.10075722 C6.23147563,2.54998102 6.64489913,2.07041987 7.19567533,2.02962741 C7.46177476,2.00991913 7.73011296,2 8,2 Z"></path></svg>