<svg width="16" height="16" viewBox="0 0 16 16" xmlns="http://www.w3.org/2000/svg"
  aria-hidden="true" focusable="false">
  <g fill-rule="evenodd">
    <rect fill="none" x="0" y="0" width="16" height="16"></rect>
    <path
      d="M1.6129 0.209705L1.70711 0.292893L15.7071 14.2929C16.0976 14.6834 16.0976 15.3166 15.7071 15.7071C15.3466 16.0676 14.7794 16.0953 14.3871 15.7903L14.2929 15.7071L0.292893 1.70711C-0.0976311 1.31658 -0.0976311 0.683418 0.292893 0.292893C0.653377 -0.0675907 1.22061 -0.0953203 1.6129 0.209705ZM1.57494 4.4045L5.00454 7.83362L5 8C5 9.65685 6.34315 11 8 11L8.166 10.994L10.7974 13.6264C9.92343 13.8687 8.97989 14 8 14C3.64005 14 0 11.4 0 8C0 6.63326 0.58821 5.39578 1.57494 4.4045ZM16 8C16 4.60004 12.3599 2 8 2C7.01973 2 6.07585 2.13143 5.20155 2.37384L7.833 5.005L8 5C9.65685 5 11 6.34315 11 8L10.9955 8.16633L14.4251 11.5955C15.4118 10.6042 16 9.36674 16 8Z"
      fill="currentColor" />
  </g>
</svg>