<svg xmlns="http://www.w3.org/2000/svg" width="16" height="16" viewBox="0 0 16 16" aria-hidden="true" focusable="false"><path fill="currentColor" d="M1.61289944,0.209704612 L1.70710678,0.292893219 L15.7071068,14.2928932 C16.0976311,14.6834175 16.0976311,15.3165825 15.7071068,15.7071068 C15.3466228,16.0675907 14.7793918,16.0953203 14.3871006,15.7902954 L14.2928932,15.7071068 L0.292893219,1.70710678 C-0.0976310729,1.31658249 -0.0976310729,0.683417511 0.292893219,0.292893219 C0.65337718,-0.0675907428 1.22060824,-0.0953202783 1.61289944,0.209704612 Z M1.57493899,4.40449804 L5.00453586,7.83361728 L5,8 L5,8 C5,9.65685425 6.34314575,11 8,11 L8.166,10.994 L10.7974423,13.6264349 C9.92342583,13.8686663 8.97989462,14 8,14 C3.64005335,14 0,11.3999619 0,8 C0,6.63325914 0.58820946,5.39578088 1.57493899,4.40449804 Z M8,2 C12.3599467,2 16,4.6000381 16,8 C16,9.36674086 15.4117905,10.6042191 14.425061,11.595502 L10.9954672,8.1663265 L11,8 L11,8 C11,6.34314575 9.65685425,5 8,5 L7.833,5.005 L5.20154887,2.37384475 C6.0758481,2.13143476 7.01972836,2 8,2 Z"></path></svg>