<svg width="16" height="16" viewBox="0 0 16 16" xmlns="http://www.w3.org/2000/svg"
  aria-hidden="true" focusable="false">
  <g fill-rule="evenodd">
    <rect fill="none" x="0" y="0" width="16" height="16"></rect>
    <path
      d="M13 1C13 0.447715 12.5523 0 12 0H10L9.88338 0.00672773C9.38604 0.0644928 9 0.487164 9 1C9 1.1826 9.04894 1.35378 9.13386 1.49987C9.04873 1.64699 9 1.8178 9 2V8L9.00895 8.1343C9.02667 8.26605 9.07015 8.38948 9.13443 8.49889C9.04894 8.64622 9 8.8174 9 9C9 9.37334 9.20459 9.6989 9.50854 9.86954C9.50288 9.91256 9.5 9.95613 9.5 10V12L9.50598 12.1136C9.59282 12.9277 10.6045 13.3097 11.2071 12.7071L12.2071 11.7071L12.2939 11.608C12.4268 11.4345 12.5 11.221 12.5 11L12.5011 9.86557C12.7994 9.69251 13 9.36968 13 9C13 8.8174 12.9511 8.64622 12.8661 8.50013C12.9513 8.35301 13 8.1822 13 8V2L12.991 1.8657C12.9733 1.73395 12.9298 1.61052 12.8656 1.50111C12.9511 1.35378 13 1.1826 13 1ZM13 15C13 14.4477 12.5523 14 12 14H1L0.883379 14.0067C0.38604 14.0645 0 14.4872 0 15C0 15.5523 0.447715 16 1 16H12L12.1166 15.9933C12.614 15.9355 13 15.5128 13 15Z"
      fill="currentColor" />
  </g>
</svg>