<svg width="16" height="16" viewBox="0 0 16 16" xmlns="http://www.w3.org/2000/svg"
  aria-hidden="true" focusable="false">
  <g fill-rule="evenodd">
    <rect fill="none" x="0" y="0" width="16" height="16"></rect>
    <path
      d="M2 0H14C15.1046 0 16 0.89543 16 2V14C16 15.1046 15.1046 16 14 16H2C0.89543 16 0 15.1046 0 14V2C0 0.89543 0.89543 0 2 0ZM9.54145 5.12214L9.59648 5.19084L12.9293 10.3337C13.0985 10.5948 12.9459 10.9371 12.6629 10.9923L12.5827 11L9.22956 11.0006C9.38101 10.7046 9.37899 10.3284 9.15394 10.0197L7.36455 7.564L8.90321 5.19084C9.05162 4.96183 9.36087 4.93893 9.54145 5.12214ZM6.18902 6.81799L6.25028 6.88571L8.74992 10.3143C8.94005 10.5751 8.78771 10.9387 8.49313 10.9931L8.41663 11H3.41736C3.10047 11 2.90912 10.6565 3.04356 10.3814L3.08408 10.3143L5.58371 6.88571C5.73184 6.68254 6.01163 6.65996 6.18902 6.81799Z"
      fill="currentColor" />
  </g>
</svg>