<svg xmlns="http://www.w3.org/2000/svg" width="16" height="16" viewBox="0 0 16 16" aria-hidden="true" focusable="false"><path fill="currentColor" d="M14,0 C15.1045695,0 16,0.8954305 16,2 L16,2 L16,14 C16,15.1045695 15.1045695,16 14,16 L14,16 L2,16 C0.8954305,16 0,15.1045695 0,14 L0,14 L0,2 C0,0.8954305 0.8954305,0 2,0 L2,0 Z M9.54145248,5.12213937 C9.3608727,4.93893031 9.05162037,4.96183145 8.90320872,5.19084277 L8.90320872,5.19084277 L7.36454649,7.564 L9.15394288,10.0197277 C9.37898764,10.3284054 9.38101295,10.7046385 9.22956549,11.000554 L9.22956549,11.000554 L12.5826935,11 L12.6629375,10.992329 C12.9458527,10.9370896 13.0985213,10.594775 12.9293307,10.3336999 L12.9293307,10.3336999 L9.59648295,5.19084277 Z M6.18902068,6.81798942 C6.01163454,6.65996473 5.73183992,6.68253968 5.58371336,6.88571429 L5.58371336,6.88571429 L3.08407757,10.3142857 L3.04356266,10.3813883 C2.90911637,10.6564582 3.10046801,11 3.41736235,11 L3.41736235,11 L8.41663391,11 L8.49312613,10.9930813 C8.78770602,10.9386856 8.94005528,10.5750825 8.74991868,10.3142857 L8.74991868,10.3142857 L6.2502829,6.88571429 Z"></path></svg>