<svg width="16" height="16" viewBox="0 0 16 16" xmlns="http://www.w3.org/2000/svg"
  aria-hidden="true" focusable="false">
  <g fill-rule="evenodd">
    <rect fill="none" x="0" y="0" width="16" height="16"></rect>
    <path
      d="M8 16C12.4183 16 16 12.4183 16 8C16 3.58172 12.4183 0 8 0C3.58172 0 0 3.58172 0 8C0 12.4183 3.58172 16 8 16ZM8 5.5C8.82843 5.5 9.5 4.82843 9.5 4C9.5 3.17157 8.82843 2.5 8 2.5C7.17157 2.5 6.5 3.17157 6.5 4C6.5 4.82843 7.17157 5.5 8 5.5ZM8 7C7.44772 7 7 7.44772 7 8V12C7 12.5523 7.44772 13 8 13C8.55228 13 9 12.5523 9 12V8C9 7.44772 8.55228 7 8 7Z"
      fill="currentColor" />
  </g>
</svg>