<svg xmlns="http://www.w3.org/2000/svg" width="16" height="16" viewBox="0 0 16 16" aria-hidden="true" focusable="false"><path fill="currentColor" d="M8,0 C12.0522847,0 16,3.94771525 16,8 C16,12.0522847 12.0522847,16 8,16 C3.94771525,16 0,12.0522847 0,8 C0,3.94771525 3.94771525,0 8,0 Z M8,2 C5.05228475,2 2,5.05228475 2,8 C2,10.9477153 5.05228475,14 8,14 C10.9477153,14 14,10.9477153 14,8 C14,5.05228475 10.9477153,2 8,2 Z M10.7864022,6.62017694 L10.7071068,6.70710678 L9.415,8 L10.7071068,9.29289322 C11.0976311,9.68341751 11.0976311,10.3165825 10.7071068,10.7071068 C10.3466228,11.0675907 9.77939176,11.0953203 9.38710056,10.7902954 L9.29289322,10.7071068 L8,9.415 L6.70710678,10.7071068 C5.79286771,11.6213459 4.43536121,10.3192478 5.21359778,9.37982306 L5.29289322,9.29289322 L6.585,8 L5.29289322,6.70710678 C4.90236893,6.31658249 4.90236893,5.68341751 5.29289322,5.29289322 C5.65337718,4.93240926 6.22060824,4.90467972 6.61289944,5.20970461 L6.70710678,5.29289322 L8,6.585 L9.29289322,5.29289322 C10.2071323,4.37865415 11.5646388,5.68075222 10.7864022,6.62017694 Z"></path></svg>