<svg width="16" height="16" viewBox="0 0 16 16" xmlns="http://www.w3.org/2000/svg"
  aria-hidden="true" focusable="false">
  <g fill-rule="evenodd">
    <rect fill="none" x="0" y="0" width="16" height="16"></rect>
    <path
      d="M0 8C0 3.94772 3.94772 0 8 0C12.0523 0 16 3.94772 16 8C16 12.0523 12.0523 16 8 16C3.94772 16 0 12.0523 0 8ZM6.6129 5.2097C6.2533 4.9301 5.7467 4.9301 5.3871 5.2097L5.29289 5.29289L5.2097 5.3871C4.9301 5.7467 4.9301 6.2533 5.2097 6.6129L5.29289 6.70711L6.585 8L5.29289 9.29289L5.2097 9.3871C4.90468 9.77939 4.93241 10.3466 5.29289 10.7071L5.3871 10.7903C5.77939 11.0953 6.34662 11.0676 6.70711 10.7071L8 9.415L9.29289 10.7071L9.3871 10.7903C9.77939 11.0953 10.3466 11.0676 10.7071 10.7071C11.0976 10.3166 11.0976 9.68342 10.7071 9.29289L9.415 8L10.7071 6.70711L10.7903 6.6129C11.0953 6.22061 11.0676 5.65338 10.7071 5.29289C10.3466 4.93241 9.77939 4.90468 9.3871 5.2097L9.29289 5.29289L8 6.585L6.70711 5.29289L6.6129 5.2097Z"
      fill="currentColor" />
  </g>
</svg>