<svg width="16" height="16" viewBox="0 0 16 16" xmlns="http://www.w3.org/2000/svg"
  aria-hidden="true" focusable="false">
  <g fill-rule="evenodd">
    <rect fill="none" x="0" y="0" width="16" height="16"></rect>
    <path
      d="M8 0C12.0523 0 16 3.94772 16 8C16 12.0523 12.0523 16 8 16C3.94772 16 0 12.0523 0 8C0 3.94772 3.94772 0 8 0ZM8 2C5.05228 2 2 5.05228 2 8C2 10.9477 5.05228 14 8 14C10.9477 14 14 10.9477 14 8C14 5.05228 10.9477 2 8 2ZM10.7071 6.70711L10.7864 6.62018C11.5646 5.68075 10.2071 4.37865 9.29289 5.29289L8 6.585L6.70711 5.29289L6.6129 5.2097C6.22061 4.90468 5.65338 4.93241 5.29289 5.29289C4.90237 5.68342 4.90237 6.31658 5.29289 6.70711L6.585 8L5.29289 9.29289L5.2136 9.37982C4.43536 10.3192 5.79287 11.6213 6.70711 10.7071L8 9.415L9.29289 10.7071L9.3871 10.7903C9.77939 11.0953 10.3466 11.0676 10.7071 10.7071C11.0976 10.3166 11.0976 9.68342 10.7071 9.29289L9.415 8L10.7071 6.70711Z"
      fill="currentColor" />
  </g>
</svg>