<svg xmlns="http://www.w3.org/2000/svg" width="16" height="16" viewBox="0 0 16 16" aria-hidden="true" focusable="false"><path fill="currentColor" d="M8,0 C12.0522847,0 16,3.94771525 16,8 C16,12.0522847 12.0522847,16 8,16 C3.94771525,16 0,12.0522847 0,8 C0,3.94771525 3.94771525,0 8,0 Z M6.61289944,5.20970461 C6.25329917,4.93009846 5.74670083,4.93009846 5.38710056,5.20970461 L5.38710056,5.20970461 L5.29289322,5.29289322 L5.20970461,5.38710056 C4.93009846,5.74670083 4.93009846,6.25329917 5.20970461,6.61289944 L5.20970461,6.61289944 L5.29289322,6.70710678 L6.585,8 L5.29289322,9.29289322 L5.20970461,9.38710056 C4.90467972,9.77939176 4.93240926,10.3466228 5.29289322,10.7071068 L5.29289322,10.7071068 L5.38710056,10.7902954 C5.77939176,11.0953203 6.34662282,11.0675907 6.70710678,10.7071068 L6.70710678,10.7071068 L8,9.415 L9.29289322,10.7071068 L9.38710056,10.7902954 C9.77939176,11.0953203 10.3466228,11.0675907 10.7071068,10.7071068 C11.0976311,10.3165825 11.0976311,9.68341751 10.7071068,9.29289322 L10.7071068,9.29289322 L9.415,8 L10.7071068,6.70710678 L10.7902954,6.61289944 C11.0953203,6.22060824 11.0675907,5.65337718 10.7071068,5.29289322 C10.3466228,4.93240926 9.77939176,4.90467972 9.38710056,5.20970461 L9.38710056,5.20970461 L9.29289322,5.29289322 L8,6.585 L6.70710678,5.29289322 Z"></path></svg>