<svg width="16" height="16" viewBox="0 0 16 16" xmlns="http://www.w3.org/2000/svg"
  aria-hidden="true" focusable="false">
  <g fill-rule="evenodd">
    <rect fill="none" x="0" y="0" width="16" height="16"></rect>
    <path
      d="M15.0039 6.10771C16.4156 4.64172 16.2939 2.37328 14.8524 1.03542C13.4019 -0.310799 10.9712 -0.380166 9.44595 1.03542L9.35671 1.12975L8.29934 2.40385L8.22523 2.50535C7.95782 2.92419 8.03793 3.48642 8.43023 3.81199L8.53174 3.88611C8.95057 4.15351 9.5128 4.0734 9.83838 3.6811L10.843 2.47L10.9342 2.39366C11.6823 1.82119 12.83 1.88702 13.4919 2.50133C14.152 3.11401 14.1862 4.14611 13.4919 4.79052L13.4129 4.8726L10.335 8.4649C9.52996 9.18756 8.47899 9.17825 7.68028 8.43694C7.27548 8.06124 6.64276 8.08483 6.26705 8.48963C5.89135 8.89443 5.91493 9.52715 6.31973 9.90286C7.89587 11.3657 10.15 11.3657 11.7262 9.90286L11.7858 9.84276L14.904 6.205L15.0039 6.10771ZM9.73297 7.51037C10.1087 7.10557 10.0851 6.47285 9.68028 6.09714C8.10415 4.63428 5.84997 4.63428 4.27384 6.09714L4.19493 6.17922L1.09501 9.794L0.996102 9.89228C-0.415571 11.3583 -0.293851 13.6267 1.14762 14.9646C2.59809 16.3108 5.02885 16.3802 6.55407 14.9646L6.64331 14.8702L7.70068 13.5961L7.77479 13.4946C8.0422 13.0758 7.96209 12.5136 7.56979 12.188L7.46828 12.1139C7.04944 11.8465 6.48721 11.9266 6.16164 12.3189L5.15601 13.529L5.06582 13.6063C4.3177 14.1788 3.17006 14.113 2.50817 13.4987C1.84805 12.886 1.81385 11.8539 2.50817 11.2095L2.58707 11.1274L5.66501 7.5351C6.47006 6.81243 7.52103 6.82175 8.31973 7.56305C8.72453 7.93876 9.35726 7.91517 9.73297 7.51037Z"
      fill="currentColor" />
  </g>
</svg>