<svg xmlns="http://www.w3.org/2000/svg" width="16" height="16" viewBox="0 0 16 16" aria-hidden="true" focusable="false"><path fill="currentColor" d="M9.68027557,6.09714063 C10.0850762,6.47284645 10.1086623,7.10557198 9.73295644,7.51037264 C9.35725062,7.9151733 8.72452509,7.93875933 8.31972443,7.56305351 C7.52101725,6.821753 6.4700536,6.81243414 5.66500421,7.53509692 L2.58706553,11.1273971 L2.50815798,11.2094765 C1.81384474,11.8538863 1.84803625,12.885989 2.50815798,13.4986648 C3.17004601,14.1129799 4.31769172,14.1788096 5.06581128,13.6063341 L5.156,13.529 L6.16163376,12.3189006 C6.48720494,11.9265987 7.04943452,11.8464869 7.46827399,12.1138931 L7.56977663,12.1880051 C7.96207853,12.5135762 8.04219031,13.0758058 7.77478412,13.4946453 L7.70067217,13.5961479 L6.64329964,14.8702449 L6.554056,14.9645777 C5.02884562,16.3801643 2.59807851,16.3107974 1.14760683,14.9645777 C-0.293859995,13.6267155 -0.415580233,11.3582822 0.996093014,9.89228498 L1.095,9.794 L4.19491885,6.17921998 L4.2738264,6.09714063 C5.8499647,4.63428646 8.10413728,4.63428646 9.68027557,6.09714063 Z M14.8523932,1.03542234 C16.29386,2.37328448 16.4155802,4.64171776 15.003907,6.10771502 L14.904,6.205 L11.7857496,9.84275726 L11.7261736,9.90285937 C10.1500353,11.3657135 7.89586272,11.3657135 6.31972443,9.90285937 C5.91492376,9.52715355 5.89133773,8.89442802 6.26704356,8.48962736 C6.64274938,8.0848267 7.27547491,8.06124067 7.68027557,8.43694649 C8.47898275,9.178247 9.5299464,9.18756586 10.3349958,8.46490308 L13.4129345,4.87260289 L13.491842,4.79052353 C14.1861553,4.1461137 14.1519637,3.11401104 13.491842,2.50133522 C12.829954,1.88702005 11.6823083,1.82119037 10.9341887,2.39366585 L10.843,2.47 L9.83836624,3.6810994 C9.51279506,4.0734013 8.95056548,4.15351308 8.53172601,3.88610689 L8.43022337,3.81199494 C8.03792147,3.48642376 7.95780969,2.92419418 8.22521588,2.5053547 L8.29932783,2.40385206 L9.35670036,1.12975511 L9.445944,1.03542234 C10.9711544,-0.380164327 13.4019215,-0.310797434 14.8523932,1.03542234 Z"></path></svg>