<svg width="16" height="16" viewBox="0 0 16 16" xmlns="http://www.w3.org/2000/svg"
  aria-hidden="true" focusable="false">
  <g fill-rule="evenodd">
    <rect fill="none" x="0" y="0" width="16" height="16"></rect>
    <path
      d="M16 3C16 2.44772 15.5523 2 15 2H1L0.883379 2.00673C0.38604 2.06449 0 2.48716 0 3C0 3.55228 0.447715 4 1 4H15L15.1166 3.99327C15.614 3.93551 16 3.51284 16 3ZM15 7C15.5523 7 16 7.44772 16 8C16 8.51284 15.614 8.93551 15.1166 8.99327L15 9H1C0.447715 9 0 8.55228 0 8C0 7.48716 0.38604 7.06449 0.883379 7.00673L1 7H15ZM15 12C15.5523 12 16 12.4477 16 13C16 13.5128 15.614 13.9355 15.1166 13.9933L15 14H1C0.447715 14 0 13.5523 0 13C0 12.4872 0.38604 12.0645 0.883379 12.0067L1 12H15Z"
      fill="currentColor" />
  </g>
</svg>