<svg width="16" height="16" viewBox="0 0 16 16" xmlns="http://www.w3.org/2000/svg"
  aria-hidden="true" focusable="false">
  <g fill-rule="evenodd">
    <rect fill="none" x="0" y="0" width="16" height="16"></rect>
    <path
      d="M3.23683 0.000892566L3.28871 0.00783402C3.33287 0.0183677 3.37315 0.0392281 3.40834 0.069111C3.45125 0.105557 3.48047 0.150471 3.4924 0.201063L3.49843 0.253446L3.49415 3.42L4.23779 3.42096L4.28908 3.42752C4.3327 3.43751 4.3727 3.4574 4.40784 3.48605C4.45173 3.52183 4.48162 3.56677 4.49383 3.61775L4.5 3.67063L4.49851 4.26621L4.48925 4.31635C4.47548 4.3597 4.44943 4.3975 4.41369 4.42912C4.37843 4.46032 4.33743 4.48142 4.29262 4.49202L4.2228 4.5L1.28941 4.49911L1.23754 4.49217C1.19338 4.48163 1.1531 4.46077 1.11791 4.43089C1.075 4.39444 1.04578 4.34953 1.03385 4.29894L1.02782 4.24655L1.02933 3.65086L1.0387 3.60058C1.05278 3.55676 1.07954 3.51888 1.11617 3.48777C1.15134 3.4579 1.19194 3.43779 1.23617 3.42771L1.30502 3.42013L2.23738 3.42212L2.23954 1.46329L1.44369 2.09186L1.37612 2.12886C1.31384 2.15122 1.2471 2.14957 1.18011 2.12726C1.08917 2.09698 1.02846 2.03286 1.00782 1.94807L1 1.88081L1.00024 1.29401L1.00681 1.20547L1.02202 1.13019C1.035 1.08276 1.06008 1.03856 1.09494 0.997771L1.15427 0.939157L1.98428 0.180995L2.02562 0.145157C2.05783 0.119625 2.09535 0.0943349 2.13828 0.0690384C2.19137 0.0377492 2.25228 0.0174952 2.32052 0.00746909L2.42831 0L3.23683 0.000892566ZM2.77738 5.5C3.01061 5.5 3.23063 5.53371 3.43691 5.60133C3.64413 5.66926 3.82577 5.76505 3.98104 5.88877C4.13711 6.01313 4.26122 6.15906 4.35252 6.32596C4.44585 6.49658 4.4927 6.68102 4.4927 6.87734C4.4927 7.06676 4.44421 7.24781 4.34808 7.41851C4.2784 7.54224 4.19235 7.6558 4.08998 7.75916L3.98217 7.85913L2.70908 8.93165L4.22979 8.93318L4.28197 8.93938C4.32589 8.94882 4.36644 8.96773 4.40241 8.99525C4.44854 9.03053 4.48037 9.07558 4.4934 9.12731L4.5 9.18116L4.49817 9.77015L4.48751 9.82162C4.47196 9.86573 4.44325 9.90324 4.40451 9.93411C4.36827 9.96299 4.32748 9.98265 4.28362 9.99254L4.21571 10L1.26963 9.99921L1.21689 9.99266C1.17243 9.98271 1.13155 9.96285 1.09549 9.93411C1.05032 9.89812 1.01919 9.85308 1.00645 9.80174L1 9.74838L1.00023 9.03668L1.00356 8.98667C1.00929 8.94325 1.02217 8.90475 1.04484 8.87164L1.07818 8.8287L1.11259 8.79571L3.04103 7.16742L3.07654 7.13086C3.10026 7.10314 3.12742 7.06517 3.15747 7.01729C3.19525 6.95707 3.21226 6.90816 3.21226 6.87153C3.21226 6.79091 3.18101 6.72355 3.1131 6.66181C3.04507 6.59996 2.94636 6.56755 2.81023 6.56755C2.64713 6.56755 2.52519 6.59994 2.44118 6.66093C2.3847 6.70193 2.35128 6.74945 2.33809 6.80848L2.33155 6.87153L2.32972 6.9951L2.31906 7.04658C2.30351 7.09068 2.27481 7.12819 2.23606 7.15906C2.19982 7.18794 2.15903 7.2076 2.11517 7.21749L2.04726 7.22495L1.32074 7.22416L1.268 7.21761C1.22354 7.20766 1.18266 7.1878 1.1466 7.15906C1.10143 7.12307 1.0703 7.07804 1.05756 7.02669L1.05111 6.97334L1.05136 6.86929L1.06012 6.73233C1.07822 6.58893 1.12354 6.45272 1.19573 6.32455C1.28958 6.15789 1.41614 6.01221 1.57459 5.88809C1.73195 5.7648 1.91381 5.66925 2.11943 5.60141C2.32459 5.53373 2.54408 5.5 2.77738 5.5ZM3.39366 11.6032C3.19059 11.5343 2.97525 11.5 2.74823 11.5C2.52121 11.5 2.30587 11.5343 2.1028 11.6032C1.89946 11.6721 1.7215 11.7674 1.56968 11.8892C1.41713 12.0116 1.29497 12.1552 1.20397 12.3193C1.13394 12.4456 1.08998 12.5797 1.07243 12.7209L1.06394 12.8558L1.0637 12.9525L1.06999 13.0052C1.08242 13.0559 1.11281 13.1005 1.157 13.1363C1.19246 13.165 1.23278 13.1849 1.2767 13.1949L1.32851 13.2014L2.0405 13.2022L2.10763 13.1948C2.15097 13.1848 2.19123 13.1652 2.2269 13.1363C2.26485 13.1056 2.29292 13.0683 2.30807 13.0247L2.31843 12.9739L2.3202 12.8637L2.32648 12.7989C2.33912 12.7386 2.37107 12.6911 2.4244 12.6513C2.50441 12.5917 2.61091 12.5608 2.74823 12.5608C2.89024 12.5608 2.99834 12.5917 3.07679 12.6509C3.14699 12.7038 3.1798 12.7708 3.1798 12.8637C3.1798 12.9612 3.1463 13.0314 3.07555 13.0861C3.01749 13.1309 2.94372 13.1597 2.85169 13.1717L2.73976 13.1783L2.6633 13.1781L2.59397 13.1857C2.54943 13.1957 2.50854 13.2158 2.47306 13.2458C2.4364 13.2767 2.40943 13.3139 2.39501 13.3572L2.38525 13.4072L2.3836 13.9777L2.3899 14.0303C2.40233 14.0811 2.43272 14.1257 2.4769 14.1615C2.51237 14.1902 2.55268 14.2101 2.59661 14.22L2.64842 14.2266L2.74823 14.2274L2.86217 14.2339C2.96921 14.2469 3.05577 14.2791 3.12354 14.3295C3.20477 14.3899 3.24349 14.4698 3.24349 14.5819C3.24349 14.6939 3.20477 14.7739 3.12354 14.8343C3.03317 14.9014 2.90942 14.9363 2.74823 14.9363C2.58255 14.9363 2.45796 14.9014 2.37045 14.835C2.30703 14.7869 2.27079 14.7269 2.25808 14.6486L2.25258 14.5718L2.25297 14.5246L2.2466 14.4706C2.23399 14.4186 2.20308 14.3731 2.15758 14.3377C2.12219 14.3102 2.0822 14.2913 2.03881 14.2818L1.98756 14.2756L1.2797 14.2748L1.21037 14.2824C1.16583 14.2925 1.12493 14.3126 1.08946 14.3425C1.05279 14.3734 1.02583 14.4107 1.01141 14.454L1.00164 14.504L1 14.5819L1.00883 14.7303C1.0265 14.8765 1.07063 15.0158 1.1411 15.1475C1.23363 15.3205 1.36129 15.4707 1.52314 15.5975C1.6828 15.7225 1.86789 15.8208 2.07775 15.8925C2.28801 15.9642 2.5117 16 2.74823 16C2.98476 16 3.20846 15.9642 3.41871 15.8925C3.62857 15.8208 3.81366 15.7225 3.97332 15.5975C4.13498 15.4708 4.2631 15.3208 4.35677 15.1482C4.45213 14.9724 4.5 14.783 4.5 14.5819C4.5 14.3957 4.45317 14.216 4.3604 14.0444L4.28475 13.9219L4.22753 13.8469C4.18758 13.7988 4.14402 13.7543 4.0969 13.7134L4.04985 13.678L4.11293 13.6166C4.1864 13.535 4.24903 13.4459 4.30193 13.3484C4.38425 13.1966 4.42569 13.0344 4.42569 12.8637C4.42569 12.6707 4.381 12.4893 4.29187 12.3214C4.20419 12.1562 4.08262 12.0118 3.92812 11.8889C3.77524 11.7672 3.59685 11.672 3.39366 11.6032ZM16 14C16 13.4477 15.5523 13 15 13H7L6.88338 13.0067C6.38604 13.0645 6 13.4872 6 14C6 14.5523 6.44772 15 7 15H15L15.1166 14.9933C15.614 14.9355 16 14.5128 16 14ZM16 8C16 7.44772 15.5523 7 15 7H7L6.88338 7.00673C6.38604 7.06449 6 7.48716 6 8C6 8.55229 6.44772 9 7 9H15L15.1166 8.99327C15.614 8.93551 16 8.51284 16 8ZM16 2C16 1.44772 15.5523 1 15 1H7L6.88338 1.00673C6.38604 1.06449 6 1.48716 6 2C6 2.55228 6.44772 3 7 3H15L15.1166 2.99327C15.614 2.93551 16 2.51284 16 2Z"
      fill="currentColor" />
  </g>
</svg>