<svg xmlns="http://www.w3.org/2000/svg" width="16" height="16" viewBox="0 0 16 16" aria-hidden="true" focusable="false"><path fill="currentColor" d="M2.74823068,11.5 C2.97524895,11.5 3.1905939,11.5343408 3.39366257,11.603155 C3.59684892,11.6720091 3.77524112,11.7672163 3.92811884,11.8888526 C4.08261947,12.0117802 4.20418892,12.156176 4.29187398,12.3213933 C4.38099535,12.489317 4.42568877,12.6706965 4.42568877,12.8637096 C4.42568877,13.0343925 4.38425005,13.1965655 4.30193102,13.3483633 C4.2490321,13.4459099 4.1864049,13.5350392 4.1129322,13.6165937 L4.04984615,13.678 L4.09689729,13.7134462 C4.1440201,13.7542692 4.18757668,13.798784 4.2275306,13.8469317 L4.28475493,13.9218707 L4.36039919,14.0444001 C4.45317113,14.2160007 4.5,14.3957363 4.5,14.5818816 C4.5,14.7829974 4.45212751,14.9723959 4.35676927,15.1481679 C4.26309551,15.320835 4.13497752,15.4708273 3.973323,15.5974593 C3.8136645,15.7225277 3.62857226,15.8208403 3.41870764,15.8924562 C3.20845593,15.9642041 2.98476013,16 2.74823068,16 C2.51170124,16 2.28800544,15.9642041 2.07775373,15.8924562 C1.86788911,15.8208403 1.68279687,15.7225277 1.52313837,15.5974593 C1.36129205,15.4706771 1.23362688,15.3204523 1.14109689,15.1474913 C1.07063396,15.015779 1.02649843,14.8764526 1.00883459,14.7302917 L1,14.5818816 L1.00164157,14.5040028 L1.01140889,14.4539704 C1.02582527,14.4107075 1.05279311,14.3734256 1.08945882,14.3425177 C1.12493487,14.3126126 1.16582677,14.2925055 1.21036894,14.2824235 L1.27969922,14.2748479 L1.98756339,14.275596 L2.03880852,14.2818104 C2.08219582,14.2912785 2.12219058,14.3102242 2.15757967,14.3377172 C2.20307663,14.3730626 2.23398517,14.4185737 2.24659587,14.4705773 L2.25296992,14.5246092 L2.25258047,14.5718213 L2.25807808,14.6486267 C2.27079066,14.7268552 2.30703478,14.7869418 2.3704462,14.83505 C2.45795803,14.9014424 2.58255226,14.9363441 2.74823068,14.9363441 C2.90942468,14.9363441 3.03317339,14.9014105 3.12354059,14.834251 C3.20476584,14.7738856 3.24349145,14.6939404 3.24349145,14.5818816 C3.24349145,14.4698229 3.20476584,14.3898777 3.12354059,14.3295123 C3.05576519,14.2791427 2.96921269,14.2469001 2.86216869,14.2339269 L2.74823068,14.2274192 L2.64842249,14.226608 L2.59661089,14.2200403 C2.55268483,14.2100552 2.5123734,14.1901638 2.47690455,14.1614608 C2.43271565,14.1257011 2.40232873,14.081078 2.38989708,14.0303367 L2.38360435,13.9776578 L2.38524592,13.4072363 L2.39501324,13.3572039 C2.40942962,13.313941 2.43639745,13.2766591 2.47306317,13.2457512 C2.50853922,13.2158461 2.54943112,13.195739 2.59397329,13.1856571 L2.66330356,13.1780814 L2.73975563,13.1783439 L2.85168659,13.171719 C2.9437197,13.159688 3.01749149,13.1309337 3.07554665,13.0860883 C3.14630362,13.0314312 3.17979611,12.9612082 3.17979611,12.8637096 C3.17979611,12.7707791 3.14699089,12.703807 3.07678781,12.650869 C2.99833824,12.5917126 2.89023521,12.5607923 2.74823068,12.5607923 C2.61090557,12.5607923 2.5044056,12.5916531 2.4243983,12.6513063 C2.37106807,12.6910692 2.33912383,12.7385788 2.32648485,12.7989128 L2.32020389,12.8637096 L2.31842543,12.9739248 L2.3080742,13.0246617 C2.2929189,13.0683229 2.26484596,13.1055802 2.22690369,13.1362848 C2.19123111,13.1651527 2.15096982,13.1848449 2.10763134,13.1947655 L2.04050468,13.2022432 L1.32851348,13.201432 L1.27670188,13.1948643 C1.23277582,13.1848792 1.19246439,13.1649878 1.15699554,13.1362848 C1.11280664,13.1005251 1.08241973,13.055902 1.06998808,13.0051607 L1.06369534,12.9524818 L1.06393749,12.8557746 L1.07242996,12.7209412 C1.08997955,12.5797335 1.13393935,12.4455677 1.2039704,12.3192694 C1.29496951,12.155156 1.41713001,12.0116018 1.56968036,11.8891974 C1.72150283,11.7673769 1.89945766,11.6720615 2.1027988,11.603155 C2.30586747,11.5343408 2.52121242,11.5 2.74823068,11.5 Z M15,13 C15.5522847,13 16,13.4477153 16,14 C16,14.5128358 15.6139598,14.9355072 15.1166211,14.9932723 L15,15 L7,15 C6.44771525,15 6,14.5522847 6,14 C6,13.4871642 6.38604019,13.0644928 6.88337887,13.0067277 L7,13 L15,13 Z M2.7773794,5.5 C3.01061163,5.5 3.23063146,5.5337146 3.43690633,5.60133257 C3.64413053,5.66926173 3.82577219,5.7650503 3.98104183,5.88877206 C4.13710704,6.01312774 4.26121525,6.15905988 4.35251855,6.32596194 C4.4458521,6.49657529 4.49269883,6.68102126 4.49269883,6.87734324 C4.49269883,7.06676157 4.44420922,7.24780552 4.34808196,7.41850518 C4.27840068,7.54224292 4.19235414,7.65579573 4.08998064,7.75916145 L3.98216624,7.8591314 L2.70907692,8.93164706 L4.22978618,8.93317541 L4.2819717,8.93938021 C4.32589213,8.9488175 4.3664409,8.96773068 4.4024143,8.99524839 C4.44854332,9.0305346 4.48037077,9.07558051 4.49340143,9.12731154 L4.5,9.18115708 L4.49816677,9.77015236 L4.48750644,9.82162448 C4.47195889,9.86572783 4.44325396,9.90323894 4.40450989,9.93411094 C4.36826988,9.96298765 4.327482,9.98264611 4.28362146,9.99254322 L4.21571056,10 L1.26963414,9.99921332 L1.21688863,9.99265811 C1.17242832,9.98270676 1.1315541,9.9628474 1.09549011,9.93411094 C1.0503175,9.89811655 1.01919062,9.8530851 1.00645046,9.80173694 L1,9.74838397 L1.00023177,9.03667757 L1.00355503,8.98666953 C1.00929123,8.94324778 1.02217372,8.90475398 1.04484149,8.87164013 L1.07818082,8.82870401 L1.07818082,8.82870401 L1.11259372,8.79570542 L3.0410264,7.16741642 L3.07654241,7.13085815 C3.10025944,7.10314083 3.12742004,7.06517228 3.15746767,7.01728725 C3.19525076,6.95707469 3.21225554,6.90816349 3.21225554,6.87152553 C3.21225554,6.79090998 3.18100574,6.72355114 3.1131028,6.66181443 C3.04506831,6.5999581 2.94635937,6.5675501 2.81023468,6.5675501 C2.64713406,6.5675501 2.52518911,6.59993944 2.44117557,6.66093246 C2.38470254,6.70193134 2.35127551,6.74944837 2.33809157,6.80847605 L2.3315515,6.87152553 L2.32971827,6.99510388 L2.31905794,7.046576 C2.30351039,7.09067935 2.27480546,7.12819046 2.23606139,7.15906246 C2.19982138,7.18793917 2.1590335,7.20759763 2.11517296,7.21749474 L2.04726206,7.22495152 L1.32074236,7.22416484 L1.26799684,7.21760963 C1.22353654,7.20765828 1.18266232,7.18779892 1.14659833,7.15906246 C1.10142571,7.12306807 1.07029883,7.07803662 1.05755868,7.02668846 L1.05110821,6.97333549 L1.05135795,6.86928498 L1.06011863,6.73232654 C1.07821769,6.58893392 1.12354325,6.45272403 1.19572508,6.32454589 C1.28957677,6.15788712 1.41614427,6.01221295 1.57458539,5.88808592 C1.73194983,5.7648024 1.91380696,5.66924767 2.11943393,5.60141275 C2.3245881,5.53373381 2.54408196,5.5 2.7773794,5.5 Z M15,7 C15.5522847,7 16,7.44771525 16,8 C16,8.51283584 15.6139598,8.93550716 15.1166211,8.99327227 L15,9 L7,9 C6.44771525,9 6,8.55228475 6,8 C6,7.48716416 6.38604019,7.06449284 6.88337887,7.00672773 L7,7 L15,7 Z M3.23683366,0.000892565676 L3.28871073,0.00783402044 C3.33286644,0.0183677239 3.37314954,0.0392281526 3.40833624,0.0691110527 C3.45125131,0.105557407 3.4804697,0.15047096 3.49239669,0.201063483 L3.49842676,0.25344573 L3.49415385,3.42 L4.23779051,3.42095615 L4.28908093,3.4275216 C4.33270312,3.43751177 4.37269953,3.45739525 4.40784121,3.48604614 C4.45172591,3.52182516 4.48162288,3.56677356 4.49382857,3.61775241 L4.5,3.67062515 L4.498507,4.26621158 L4.48924681,4.31635115 C4.4754812,4.35970406 4.44942679,4.39750461 4.41369292,4.42911668 C4.37842528,4.46031631 4.3374287,4.48142013 4.29262358,4.49202272 L4.22279954,4.5 L1.28941458,4.49910743 L1.23753751,4.49216598 C1.1933818,4.48163228 1.1530987,4.46077185 1.117912,4.43088895 C1.07499693,4.39444259 1.04577855,4.34952904 1.03385155,4.29893652 L1.02782148,4.24655427 L1.02933048,3.65086338 L1.03870489,3.60058458 C1.05277955,3.55675636 1.07953979,3.51887873 1.11617316,3.48776722 C1.15134466,3.45789723 1.19194091,3.4377942 1.23617227,3.42771107 L1.30502194,3.42013291 L2.23738462,3.42211765 L2.23953846,1.46329412 L1.44368956,2.09185679 L1.37612125,2.12885556 C1.31383831,2.15121761 1.2470982,2.14957471 1.18010744,2.12726371 C1.08916935,2.09697716 1.02846344,2.03286164 1.0078186,1.94807494 L1,1.88081467 L1.00024153,1.29400722 L1.00681164,1.20546936 L1.0220171,1.13018676 C1.03500364,1.08276189 1.06008142,1.03856361 1.09493964,0.997770613 L1.15427346,0.939157422 L1.98428355,0.180994532 L2.02561691,0.145157104 C2.05782836,0.119624731 2.0953492,0.0943348848 2.13827642,0.0690384205 C2.19137322,0.0377491519 2.25228164,0.0174951656 2.32051982,0.00746909355 L2.42831415,0 L3.23683366,0.000892565676 Z M15,1 C15.5522847,1 16,1.44771525 16,2 C16,2.51283584 15.6139598,2.93550716 15.1166211,2.99327227 L15,3 L7,3 C6.44771525,3 6,2.55228475 6,2 C6,1.48716416 6.38604019,1.06449284 6.88337887,1.00672773 L7,1 L15,1 Z"></path></svg>