<svg xmlns="http://www.w3.org/2000/svg" width="16" height="16" viewBox="0 0 16 16" aria-hidden="true" focusable="false"><path fill="currentColor" d="M15,12 C15.5522847,12 16,12.4477153 16,13 C16,13.5128358 15.6139598,13.9355072 15.1166211,13.9932723 L15,14 L1,14 C0.44771525,14 0,13.5522847 0,13 C0,12.4871642 0.38604019,12.0644928 0.883378875,12.0067277 L1,12 L15,12 Z M15,7 C15.5522847,7 16,7.44771525 16,8 C16,8.51283584 15.6139598,8.93550716 15.1166211,8.99327227 L15,9 L1,9 C0.44771525,9 0,8.55228475 0,8 C0,7.48716416 0.38604019,7.06449284 0.883378875,7.00672773 L1,7 L15,7 Z M15,2 C15.5522847,2 16,2.44771525 16,3 C16,3.51283584 15.6139598,3.93550716 15.1166211,3.99327227 L15,4 L1,4 C0.44771525,4 0,3.55228475 0,3 C0,2.48716416 0.38604019,2.06449284 0.883378875,2.00672773 L1,2 L15,2 Z"></path></svg>