<svg width="16" height="16" viewBox="0 0 16 16" xmlns="http://www.w3.org/2000/svg"
  aria-hidden="true" focusable="false">
  <g fill-rule="evenodd">
    <rect fill="none" x="0" y="0" width="16" height="16"></rect>
    <path
      d="M2 0C3.10457 0 4 0.89543 4 2C4 3.10457 3.10457 4 2 4C0.89543 4 0 3.10457 0 2C0 0.89543 0.89543 0 2 0ZM2 6C3.10457 6 4 6.89543 4 8C4 9.10457 3.10457 10 2 10C0.89543 10 0 9.10457 0 8C0 6.89543 0.89543 6 2 6ZM4 14C4 12.8954 3.10457 12 2 12C0.89543 12 0 12.8954 0 14C0 15.1046 0.89543 16 2 16C3.10457 16 4 15.1046 4 14ZM16 14C16 13.4477 15.5523 13 15 13H7L6.88338 13.0067C6.38604 13.0645 6 13.4872 6 14C6 14.5523 6.44772 15 7 15H15L15.1166 14.9933C15.614 14.9355 16 14.5128 16 14ZM16 8C16 7.44772 15.5523 7 15 7H7L6.88338 7.00673C6.38604 7.06449 6 7.48716 6 8C6 8.55229 6.44772 9 7 9H15L15.1166 8.99327C15.614 8.93551 16 8.51284 16 8ZM16 2C16 1.44772 15.5523 1 15 1H7L6.88338 1.00673C6.38604 1.06449 6 1.48716 6 2C6 2.55228 6.44772 3 7 3H15L15.1166 2.99327C15.614 2.93551 16 2.51284 16 2Z"
      fill="currentColor" />
  </g>
</svg>