<svg width="16" height="16" viewBox="0 0 16 16" xmlns="http://www.w3.org/2000/svg"
  aria-hidden="true" focusable="false">
  <g fill-rule="evenodd">
    <rect fill="none" x="0" y="0" width="16" height="16"></rect>
    <path
      d="M11.9954 4.78311C11.8818 2.12231 10.6888 1 8 1C5.23858 1 4 2.23858 4 5V5.5C4 5.77614 4.22386 6 4.5 6H5.5C5.77614 6 6 5.77614 6 5.5V5L6.00509 4.82373C6.09634 3.24892 6.40232 3 8 3C9.65685 3 10 3.34315 10 5V5.5C10 5.77614 10.2239 6 10.5 6H11.5C11.7761 6 12 5.77614 12 5.5V5L11.9954 4.78311Z"
      fill="currentColor" />
    <path
      d="M5.5 9C5.22386 9 5 9.22386 5 9.5V12.5C5 12.7761 5.22386 13 5.5 13H10.5C10.7761 13 11 12.7761 11 12.5V9.5C11 9.22386 10.7761 9 10.5 9H5.5ZM4 7C3.44772 7 3 7.44772 3 8V14C3 14.5523 3.44772 15 4 15H12C12.5523 15 13 14.5523 13 14V8C13 7.44772 12.5523 7 12 7H4Z"
      fill="currentColor" />
  </g>
</svg>