<svg width="16" height="16" viewBox="0 0.5 8 11" xmlns="http://www.w3.org/2000/svg">
<path fill-rule="evenodd" clip-rule="evenodd" d="M6.99654 3.58733C6.91136 1.59173 6.01657 0.75 4 0.75C1.92893 0.75 1 1.67893 1 3.75V4.125C1 4.33211 1.16789 4.5 1.375 4.5H2.125C2.33211 4.5 2.5 4.33211 2.5 4.125V3.75L2.50382 3.6178C2.57225 2.43669 2.80174 2.25 4 2.25C5.24264 2.25 5.5 2.50736 5.5 3.75V4.125C5.5 4.33211 5.66789 4.5 5.875 4.5H6.625C6.83211 4.5 7 4.33211 7 4.125V3.75L6.99654 3.58733ZM7.74495 5.91253C7.70163 5.53953 7.38463 5.25 7 5.25H1L0.912534 5.25505C0.53953 5.29837 0.25 5.61537 0.25 6V10.5L0.255046 10.5875C0.29837 10.9605 0.615373 11.25 1 11.25H7L7.08747 11.245C7.46047 11.2016 7.75 10.8846 7.75 10.5V6L7.74495 5.91253Z" fill="currentColor" />
</svg>
