<svg width="16" height="16" viewBox="0 0 16 16" xmlns="http://www.w3.org/2000/svg"
  aria-hidden="true" focusable="false">
  <g fill-rule="evenodd">
    <rect fill="none" x="0" y="0" width="16" height="16"></rect>
    <path
      d="M11.9954 4.78311C11.8818 2.12231 10.6888 1 8 1C5.23858 1 4 2.23858 4 5V5.5C4 5.77614 4.22386 6 4.5 6H5.5C5.77614 6 6 5.77614 6 5.5V5L6.00509 4.82373C6.09634 3.24892 6.40232 3 8 3C9.65685 3 10 3.34315 10 5V5.5C10 5.77614 10.2239 6 10.5 6H11.5C11.7761 6 12 5.77614 12 5.5V5L11.9954 4.78311ZM12.9933 7.88338C12.9355 7.38604 12.5128 7 12 7H4L3.88338 7.00673C3.38604 7.06449 3 7.48716 3 8V14L3.00673 14.1166C3.06449 14.614 3.48716 15 4 15H12L12.1166 14.9933C12.614 14.9355 13 14.5128 13 14V8L12.9933 7.88338Z"
      fill="currentColor" />
  </g>
</svg>