<svg xmlns="http://www.w3.org/2000/svg" width="16" height="16" viewBox="0 0 16 16" aria-hidden="true" focusable="false"><path fill="currentColor" d="M8,0 C10.6887547,0 12.8818181,2.12230671 12.9953805,4.78311038 L13,5 L13,7 L15,7 C15.5128358,7 15.9355072,7.38604019 15.9932723,7.88337887 L16,8 L16,15 C16,15.5128358 15.6139598,15.9355072 15.1166211,15.9932723 L15,16 L1,16 C0.487164161,16 0.0644928393,15.6139598 0.00672773133,15.1166211 L0,15 L0,8 C0,7.48716416 0.38604019,7.06449284 0.883378875,7.00672773 L1,7 L3,7 L3,5 C3,2.23857625 5.23857625,0 8,0 Z M14,9 L2,9 L2,14 L14,14 L14,9 Z M8,2 C6.40231912,2 5.09633912,3.24891996 5.00509269,4.82372721 L5,5 L5,7 L11,7 L11,5 C11,3.34314575 9.65685425,2 8,2 Z"></path></svg>