<svg width="16" height="16" viewBox="0 0 16 16" xmlns="http://www.w3.org/2000/svg"
  aria-hidden="true" focusable="false">
  <g fill-rule="evenodd">
    <rect fill="none" x="0" y="0" width="16" height="16"></rect>
    <path
      d="M13.83 0C14.476 0 15 0.53 15 1.185V12.69C15 13.344 14.476 13.875 13.83 13.875H9.75L8 16L6.25 13.875H2.17C1.524 13.875 1 13.345 1 12.69V1.186C1 0.53 1.524 0 2.17 0H13.83Z"
      fill="currentColor" />
    <path
      d="M4.78504 2.13298H3.07504V11.733H4.78504V8.73498C4.78504 7.21275 5.25759 6.98071 5.68954 6.9417L5.91804 6.93298L6.08848 6.9364C6.59724 6.95571 7.06704 7.08648 7.06704 8.13498V11.733H8.77704V7.59798C8.77704 5.73298 7.62504 5.13498 6.48704 5.13498L6.09782 5.13764C5.34398 5.1554 5.27548 5.2915 4.78504 6.33498V2.13298Z"
      fill="white" />
    <path
      d="M11.889 9.60002C11.316 9.60002 10.852 10.077 10.852 10.667C10.852 11.256 11.316 11.733 11.889 11.733C12.462 11.733 12.926 11.256 12.926 10.667C12.926 10.078 12.462 9.60002 11.889 9.60002Z"
      fill="white" />
  </g>
</svg>