<svg xmlns="http://www.w3.org/2000/svg" width="16" height="16" viewBox="0 0 16 16" aria-hidden="true" focusable="false"><path fill="currentColor" d="M9,0 C9.55228475,0 10,0.44771525 10,1 C10,1.51283584 9.61395981,1.93550716 9.11662113,1.99327227 L9,2 L1.999,2 L1.999,14 L9,14 C9.51283584,14 9.93550716,14.3860402 9.99327227,14.8833789 L10,15 C10,15.5128358 9.61395981,15.9355072 9.11662113,15.9932723 L9,16 L1,16 C0.487164161,16 0.0644928393,15.6139598 0.00672773133,15.1166211 L-8.8817842e-16,15 L-8.8817842e-16,1 C-8.8817842e-16,0.487164161 0.38604019,0.0644928393 0.883378875,0.00672773133 L1,0 L9,0 Z M11.6128994,3.20970461 L11.7071068,3.29289322 L15.7071068,7.29289322 C16.0675907,7.65337718 16.0953203,8.22060824 15.7902954,8.61289944 L15.7071068,8.70710678 L11.7071068,12.7071068 C11.3165825,13.0976311 10.6834175,13.0976311 10.2928932,12.7071068 C9.93240926,12.3466228 9.90467972,11.7793918 10.2097046,11.3871006 L10.2928932,11.2928932 L12.585,9 L5,9 C4.44771525,9 4,8.55228475 4,8 C4,7.48716416 4.38604019,7.06449284 4.88337887,7.00672773 L5,7 L12.585,7 L10.2928932,4.70710678 C9.93240926,4.34662282 9.90467972,3.77939176 10.2097046,3.38710056 L10.2928932,3.29289322 C10.6533772,2.93240926 11.2206082,2.90467972 11.6128994,3.20970461 Z"></path></svg>