<svg width="16" height="16" viewBox="0 0 16 16" xmlns="http://www.w3.org/2000/svg"
  aria-hidden="true" focusable="false">
  <g fill-rule="evenodd">
    <rect fill="none" x="0" y="0" width="16" height="16"></rect>
    <path
      d="M10 1C10 0.447715 9.55229 0 9 0H1L0.883379 0.00672773C0.38604 0.0644928 0 0.487164 0 1V15L0.00672773 15.1166C0.0644928 15.614 0.487164 16 1 16H9L9.11662 15.9933C9.61396 15.9355 10 15.5128 10 15L9.99327 14.8834C9.93551 14.386 9.51284 14 9 14H1.999V2H9L9.11662 1.99327C9.61396 1.93551 10 1.51284 10 1ZM11.7071 3.29289L11.6129 3.2097C11.2206 2.90468 10.6534 2.93241 10.2929 3.29289L10.2097 3.3871C9.90468 3.77939 9.93241 4.34662 10.2929 4.70711L12.585 7H5L4.88338 7.00673C4.38604 7.06449 4 7.48716 4 8C4 8.55229 4.44772 9 5 9H12.585L10.2929 11.2929L10.2097 11.3871C9.90468 11.7794 9.93241 12.3466 10.2929 12.7071C10.6834 13.0976 11.3166 13.0976 11.7071 12.7071L15.7071 8.70711L15.7903 8.6129C16.0953 8.22061 16.0676 7.65338 15.7071 7.29289L11.7071 3.29289Z"
      fill="currentColor" />
  </g>
</svg>