<svg width="16" height="16" viewBox="0 0 16 16" xmlns="http://www.w3.org/2000/svg"
  aria-hidden="true" focusable="false">
  <g fill-rule="evenodd">
    <rect fill="none" x="0" y="0" width="16" height="16"></rect>
    <path
      d="M8.19548 16C6.89577 16 5.73867 15.8235 4.72416 15.4705C3.70966 15.1216 2.85202 14.6083 2.15124 13.9308C1.45045 13.2573 0.91672 12.4336 0.550032 11.4599C0.183344 10.4861 0 9.37847 0 8.13693C0 6.91163 0.183344 5.79992 0.550032 4.80183C0.920794 3.80373 1.46064 2.94764 2.16957 2.23355C2.8785 1.51541 3.74429 0.963611 4.76694 0.578167C5.79367 0.192722 6.963 0 8.27493 0C9.48907 0 10.5728 0.176493 11.5262 0.52948C12.4837 0.882465 13.2945 1.38557 13.9586 2.0388C14.6268 2.68797 15.134 3.46089 15.4803 4.35755C15.8307 5.25016 16.0039 6.23811 15.9998 7.32142C16.0039 8.06796 15.9387 8.75365 15.8043 9.37847C15.6698 10.0033 15.4579 10.549 15.1687 11.0156C14.8835 11.4781 14.5086 11.8453 14.0442 12.1172C13.5797 12.3849 13.0174 12.5371 12.3574 12.5736C11.8848 12.6101 11.5018 12.5756 11.2084 12.4701C10.9151 12.3647 10.691 12.2084 10.5362 12.0015C10.3854 11.7905 10.2876 11.5451 10.2428 11.2651H10.1695C10.0717 11.5086 9.8802 11.7297 9.595 11.9285C9.3098 12.1232 8.96145 12.2754 8.54994 12.3849C8.14251 12.4904 7.7086 12.529 7.2482 12.5006C6.76743 12.4722 6.31111 12.3606 5.87923 12.1658C5.45143 11.9711 5.07048 11.6891 4.73639 11.3199C4.40637 10.9507 4.14561 10.4942 3.95412 9.95055C3.7667 9.40687 3.67095 8.77799 3.66688 8.0639C3.67095 7.35793 3.77078 6.74325 3.96634 6.21986C4.16598 5.69646 4.42878 5.25624 4.75472 4.8992C5.08474 4.54216 5.45143 4.2622 5.85478 4.05934C6.25814 3.85647 6.66354 3.72664 7.07097 3.66984C7.53136 3.60086 7.96731 3.60086 8.37882 3.66984C8.79033 3.73881 9.13664 3.85039 9.41777 4.00457C9.70297 4.15874 9.8802 4.32509 9.94947 4.50361H10.035V3.82199H11.9479V9.76189C11.952 10.0418 12.0151 10.2589 12.1374 10.4131C12.2596 10.5673 12.4246 10.6444 12.6324 10.6444C12.9135 10.6444 13.1478 10.5206 13.3352 10.2731C13.5267 10.0256 13.6693 9.64625 13.763 9.13503C13.8608 8.62381 13.9097 7.97261 13.9097 7.18144C13.9097 6.41866 13.8078 5.74921 13.6041 5.17307C13.4045 4.59287 13.1234 4.09991 12.7607 3.69418C12.4022 3.28439 11.9846 2.95169 11.5079 2.69608C11.0312 2.44047 10.5138 2.25384 9.95558 2.13617C9.40147 2.01851 8.83107 1.95968 8.24437 1.95968C7.22987 1.95968 6.3437 2.11386 5.58588 2.42221C4.82806 2.72651 4.19654 3.15456 3.69133 3.70635C3.18611 4.25815 2.8072 4.90529 2.55459 5.64778C2.30606 6.38621 2.17976 7.19158 2.17568 8.0639C2.17976 9.02548 2.31421 9.87752 2.57904 10.62C2.84794 11.3584 3.24315 11.9792 3.76466 12.4823C4.28618 12.9854 4.92992 13.3668 5.69589 13.6265C6.46186 13.8861 7.34191 14.016 8.33604 14.016C8.80459 14.016 9.26295 13.9815 9.71112 13.9125C10.1593 13.8476 10.5647 13.7665 10.9273 13.6691C11.2899 13.5758 11.5812 13.4845 11.8012 13.3952L12.4063 15.1601C12.1496 15.3062 11.8012 15.4421 11.3612 15.5679C10.9253 15.6977 10.4323 15.8012 9.88224 15.8783C9.33628 15.9594 8.77403 16 8.19548 16ZM7.91435 10.4983C8.41142 10.4983 8.80662 10.4029 9.09997 10.2122C9.3974 10.0216 9.60926 9.73957 9.73557 9.3663C9.86594 8.98897 9.92706 8.52441 9.91891 7.97261C9.91484 7.48574 9.85168 7.07392 9.72945 6.73716C9.6113 6.39635 9.40555 6.13871 9.1122 5.96425C8.82292 5.78572 8.41956 5.69646 7.90213 5.69646C7.44988 5.69646 7.06486 5.79181 6.74706 5.9825C6.43334 6.1732 6.19295 6.44098 6.02591 6.78585C5.86293 7.12666 5.77941 7.52834 5.77534 7.99087C5.77941 8.42095 5.84867 8.82871 5.98313 9.21415C6.11758 9.59554 6.33963 9.90592 6.64928 10.1453C6.95892 10.3806 7.38061 10.4983 7.91435 10.4983Z"
      fill="currentColor" />
  </g>
</svg>