<svg xmlns="http://www.w3.org/2000/svg" width="16" height="16" viewBox="0 0 16 16" aria-hidden="true" focusable="false"><path fill="currentColor" d="M14,0 C15.0543618,0 15.9181651,0.815877791 15.9945143,1.85073766 L16,2 L16,9 C16,9.27541264 15.8865388,9.53676152 15.6894833,9.7243131 L15.6,9.8 L7.6,15.8 C7.46152306,15.9038577 7.29908616,15.9695431 7.12886893,15.9916629 L7,16 L2,16 C0.945638205,16 0.0818348781,15.1841222 0.00548573643,14.1492623 L0,14 L0,2 C0,0.945638205 0.815877791,0.0818348781 1.85073766,0.00548573643 L2,0 L14,0 Z M14,2 L2,2 L2,14 L6,14 L6,9 C6,8.48716416 6.38604019,8.06449284 6.88337887,8.00672773 L7,8 L14,8 L14,2 Z M12,10 L8,10 L8,13 L12,10 Z"></path></svg>