<svg xmlns="http://www.w3.org/2000/svg" width="16" height="16" viewBox="0 0 16 16" aria-hidden="true" focusable="false"><path fill="currentColor" d="M14,0 C15.0543618,0 15.9181651,0.815877791 15.9945143,1.85073766 L16,2 L16,7 C16,7.55228475 15.5522847,8 15,8 L7,8 C6.44771525,8 6,8.44771525 6,9 L6,15 C6,15.5522847 5.55228475,16 5,16 L2,16 C0.945638205,16 0.0818348781,15.1841222 0.00548573643,14.1492623 L0,14 L0,2 C0,0.945638205 0.815877791,0.0818348781 1.85073766,0.00548573643 L2,0 L14,0 Z M15.75,9 C15.8880712,9 16,9.11192881 16,9.25 L7.25,16 C7.11192881,16 7,15.8880712 7,15.75 L7,10 C7,9.44771525 7.44771525,9 8,9 L15.75,9 Z"></path></svg>