<svg width="16" height="16" viewBox="0 0 16 16" xmlns="http://www.w3.org/2000/svg"
  aria-hidden="true" focusable="false">
  <g fill-rule="evenodd">
    <rect fill="none" x="0" y="0" width="16" height="16"></rect>
    <path
      d="M15.9945 1.85074C15.9182 0.815878 15.0544 0 14 0H2L1.85074 0.00548574C0.815878 0.0818349 0 0.945638 0 2V14L0.00548574 14.1493C0.0818349 15.1841 0.945638 16 2 16H5C5.55228 16 6 15.5523 6 15V9C6 8.44771 6.44772 8 7 8H15C15.5523 8 16 7.55228 16 7V2L15.9945 1.85074ZM16 9.25C16 9.11193 15.8881 9 15.75 9H8C7.44772 9 7 9.44771 7 10V15.75C7 15.8881 7.11193 16 7.25 16L16 9.25Z"
      fill="currentColor" />
  </g>
</svg>