<svg width="16" height="16" viewBox="0 0 16 16" xmlns="http://www.w3.org/2000/svg"
  aria-hidden="true" focusable="false">
  <g fill-rule="evenodd">
    <rect fill="none" x="0" y="0" width="16" height="16"></rect>
    <path
      d="M14 0C15.0544 0 15.9182 0.815878 15.9945 1.85074L16 2V9C16 9.27541 15.8865 9.53676 15.6895 9.72431L15.6 9.8L7.6 15.8C7.46152 15.9039 7.29909 15.9695 7.12887 15.9917L7 16H2C0.945638 16 0.0818349 15.1841 0.00548574 14.1493L0 14V2C0 0.945638 0.815878 0.0818349 1.85074 0.00548574L2 0H14ZM14 2H2V14H6V9C6 8.48716 6.38604 8.06449 6.88338 8.00673L7 8H14V2ZM8 10H12L8 13V10Z"
      fill="currentColor" />
  </g>
</svg>