<svg width="16" height="16" viewBox="0 0 16 16" xmlns="http://www.w3.org/2000/svg"
  aria-hidden="true" focusable="false">
  <g fill-rule="evenodd">
    <rect fill="none" x="0" y="0" width="16" height="16"></rect>
    <path
      d="M5.14085 8.27748C5.29469 7.65589 5.61268 7.08703 6.0616 6.63039C6.51051 6.17375 7.07385 5.8461 7.69273 5.68167C8.3116 5.51725 8.96329 5.5221 9.57965 5.69572C10.196 5.86933 10.7544 6.20534 11.1965 6.66861C11.4901 6.57093 11.7958 6.51441 12.1049 6.50069V6.39674C12.1049 4.41205 10.6295 2.80238 8.81037 2.80238C7.51016 2.80238 6.39547 3.6324 5.85972 4.82626C5.46151 4.55063 4.98942 4.40153 4.50514 4.39845C3.07779 4.39845 1.92152 5.65948 1.92152 7.21556C1.92152 7.38349 1.94071 7.54661 1.9671 7.70574C0.866004 7.81449 0.00399817 8.94037 0.00399817 10.1686C0.00399817 10.1814 0.00719671 10.1918 0.00719671 10.2046C0.00639707 10.2158 0 10.227 0 10.2382C0 10.73 0.171122 11.1793 0.448595 11.5424C0.646213 11.8098 0.904239 12.0267 1.20162 12.1753C1.49901 12.324 1.82733 12.4003 2.15981 12.398H3.16815C2.96198 11.9985 2.85294 11.5561 2.8499 11.1066C2.85033 10.444 3.07803 9.80171 3.49498 9.28682C3.91193 8.77193 4.49288 8.41566 5.14085 8.27748ZM14.3047 9.82077C14.2847 9.82077 14.2647 9.82637 14.2447 9.82717C14.2503 9.768 14.2623 9.71042 14.2623 9.64965C14.2623 9.36984 14.2071 9.09277 14.1 8.83426C13.9929 8.57576 13.836 8.34089 13.6381 8.14307C13.4402 7.94525 13.2052 7.78836 12.9467 7.68135C12.6882 7.57434 12.4111 7.51932 12.1312 7.51942C11.681 7.52009 11.2428 7.66466 10.8806 7.93204C10.662 7.51956 10.3353 7.17428 9.9356 6.93315C9.53587 6.69201 9.07809 6.56409 8.61126 6.56306C7.92477 6.56306 7.26639 6.83577 6.78097 7.32119C6.29555 7.80661 6.02284 8.46499 6.02284 9.15148C6.02284 9.16987 6.02764 9.18586 6.02844 9.20425C5.93363 9.18735 5.83766 9.17772 5.74137 9.17547C5.45465 9.17525 5.17148 9.2389 4.91244 9.36181C4.6534 9.48472 4.42499 9.66379 4.24381 9.88602C4.06263 10.1082 3.93323 10.368 3.86501 10.6465C3.7968 10.925 3.79148 11.2152 3.84944 11.496C3.93962 11.9743 4.19399 12.406 4.56862 12.7167C4.94325 13.0274 5.41461 13.1975 5.9013 13.1976H14.4622V13.1824C14.8955 13.1447 15.2974 12.9407 15.5837 12.6133C15.87 12.2859 16.0185 11.8604 15.9982 11.4259C15.9778 10.9915 15.7901 10.5817 15.4745 10.2825C15.1588 9.98332 14.7396 9.81785 14.3047 9.82077Z"
      fill="currentColor" />
  </g>
</svg>