<svg width="16" height="16" viewBox="0 0 16 16" fill="none" xmlns="http://www.w3.org/2000/svg">
<path fill-rule="evenodd" clip-rule="evenodd" d="M4.29289 5.29289C3.90237 5.68342 3.90237 6.31658 4.29289 6.70711C4.68342 7.09763 5.31658 7.09763 5.70711 6.70711L8 4.41421L10.2929 6.70711C10.6834 7.09763 11.3166 7.09763 11.7071 6.70711C12.0976 6.31658 12.0976 5.68342 11.7071 5.29289L8.70711 2.29289C8.3654 1.95118 7.83792 1.90847 7.44977 2.16475C7.39432 2.20136 7.34171 2.24408 7.29289 2.29289L4.29289 5.29289ZM4.29289 10.7071C3.90237 10.3166 3.90237 9.68342 4.29289 9.29289C4.68342 8.90237 5.31658 8.90237 5.70711 9.29289L8 11.5858L10.2929 9.29289C10.6834 8.90237 11.3166 8.90237 11.7071 9.29289C12.0976 9.68342 12.0976 10.3166 11.7071 10.7071L8.70711 13.7071C8.31658 14.0976 7.68342 14.0976 7.29289 13.7071L4.29289 10.7071Z" fill="currentColor" />
</svg>
