<svg width="16" height="16" viewBox="0 0 16 16" xmlns="http://www.w3.org/2000/svg"
  aria-hidden="true" focusable="false">
  <g fill-rule="evenodd">
    <rect fill="none" x="0" y="0" width="16" height="16"></rect>
    <path
      d="M4 0C3.44772 0 3 0.447715 3 1C3 1.55228 3.44772 2 4 2C4.27614 2 4.5 2.22386 4.5 2.5V2.6459C4.5 2.72352 4.48193 2.80008 4.44721 2.8695L3.10557 5.55279C3.03615 5.69164 3 5.84475 3 6V9C3 9.55229 3.44772 10 4 10H12C12.5523 10 13 9.55229 13 9V6C13 5.84475 12.9639 5.69164 12.8944 5.55279L11.5528 2.8695C11.5181 2.80008 11.5 2.72352 11.5 2.6459V2.5C11.5 2.22386 11.7239 2 12 2C12.5523 2 13 1.55228 13 1C13 0.447715 12.5523 0 12 0H4Z"
      fill="currentColor" />
    <path
      d="M9.04261 11H7.0421L7.11792 15.0235C7.13091 15.5757 7.58904 16.0127 8.14117 15.9997C8.6933 15.9867 9.13036 15.5286 9.11737 14.9765L9.04261 11Z"
      fill="currentColor" />
  </g>
</svg>