<svg width="16" height="16" viewBox="0 0 16 16" xmlns="http://www.w3.org/2000/svg"
  aria-hidden="true" focusable="false">
  <g fill-rule="evenodd">
    <rect fill="none" x="0" y="0" width="16" height="16"></rect>
    <path fill-rule="evenodd" clip-rule="evenodd"
      d="M3 1C3 0.447715 3.44772 0 4 0H12C12.5523 0 13 0.447715 13 1C13 1.55228 12.5523 2 12 2C11.7239 2 11.5 2.22386 11.5 2.5V2.6459C11.5 2.72352 11.5181 2.80008 11.5528 2.8695L12.8944 5.55279C12.9639 5.69164 13 5.84475 13 6V9C13 9.55229 12.5523 10 12 10H9.02381L9.11737 14.9765C9.13036 15.5286 8.6933 15.9867 8.14117 15.9997C7.58904 16.0127 7.13091 15.5757 7.11792 15.0235L7.02325 10H4C3.44772 10 3 9.55229 3 9V6C3 5.84475 3.03615 5.69164 3.10557 5.55279L4.44721 2.8695C4.48193 2.80008 4.5 2.72352 4.5 2.6459V2.5C4.5 2.22386 4.27614 2 4 2C3.44772 2 3 1.55228 3 1ZM7 2C6.72386 2 6.5 2.22386 6.5 2.5V3C6.5 3.15525 6.46385 3.30836 6.39443 3.44721L5.05279 6.1305C5.01807 6.19992 5 6.27648 5 6.3541V7.5C5 7.77614 5.22386 8 5.5 8H10.5C10.7761 8 11 7.77614 11 7.5V6.3541C11 6.27648 10.9819 6.19992 10.9472 6.1305L9.60557 3.44721C9.53615 3.30836 9.5 3.15525 9.5 3V2.5C9.5 2.22386 9.27614 2 9 2H7Z"
      fill="currentColor" />
  </g>
</svg>