<svg width="16" height="16" viewBox="0 0 16 16" xmlns="http://www.w3.org/2000/svg"
  aria-hidden="true" focusable="false">
  <g fill-rule="evenodd">
    <rect fill="none" x="0" y="0" width="16" height="16"></rect>
    <path fill-rule="evenodd" clip-rule="evenodd"
      d="M9.29289 0.292893C9.68342 -0.0976311 10.3166 -0.0976311 10.7071 0.292893L15.7071 5.29289C16.0976 5.68342 16.0976 6.31658 15.7071 6.70711C15.3166 7.09763 14.6834 7.09763 14.2929 6.70711L14.25 6.66421L11.3903 9.52388L10.4615 12.7747C10.4148 12.9381 10.3273 13.0869 10.2071 13.2071L8.70711 14.7071C8.31658 15.0976 7.68342 15.0976 7.29289 14.7071L5 12.4142L1.70711 15.7071C1.31658 16.0976 0.683418 16.0976 0.292893 15.7071C-0.0976311 15.3166 -0.0976311 14.6834 0.292893 14.2929L3.58579 11L1.29289 8.70711C0.902369 8.31658 0.902369 7.68342 1.29289 7.29289L2.79289 5.79289C2.91306 5.67272 3.06187 5.58516 3.22528 5.53848L6.47612 4.60966L9.33579 1.75L9.29289 1.70711C8.90237 1.31658 8.90237 0.683417 9.29289 0.292893ZM10.75 3.16421L7.70711 6.20711C7.58694 6.32728 7.43813 6.41484 7.27472 6.46152L4.02388 7.39034L3.41421 8L8 12.5858L8.60966 11.9761L9.53848 8.72528C9.58516 8.56187 9.67272 8.41306 9.79289 8.29289L12.8358 5.25L10.75 3.16421Z"
      fill="currentColor" />
  </g>
</svg>