<svg width="16" height="16" viewBox="0 0 16 16" xmlns="http://www.w3.org/2000/svg"
  aria-hidden="true" focusable="false">
  <g fill-rule="evenodd">
    <rect fill="none" x="0" y="0" width="16" height="16"></rect>
    <path
      d="M8.99303 2.86683L9 3V6.999L13 7C13.5523 7 14 7.44772 14 8C14 8.51284 13.614 8.93551 13.1166 8.99327L13 9H9V13C9 14.2874 7.13555 14.3317 7.00697 13.1332L7 13V9H3C2.44772 9 2 8.55228 2 8C2 7.48716 2.38604 7.06449 2.88338 7.00673L3 7H7V3C7 1.71264 8.86445 1.66825 8.99303 2.86683Z"
      fill="currentColor" />
  </g>
</svg>