<svg xmlns="http://www.w3.org/2000/svg" width="16" height="16" viewBox="0 0 16 16" aria-hidden="true" focusable="false"><path fill="currentColor" d="M8.99302964,2.86682521 L9,3 L9,6.999 L13,7 C13.5522847,7 14,7.44771525 14,8 C14,8.51283584 13.6139598,8.93550716 13.1166211,8.99327227 L13,9 L9,9 L9,13 C9,14.2873563 7.13555291,14.3317479 7.00697036,13.1331748 L7,13 L7,9 L3,9 C2.44771525,9 2,8.55228475 2,8 C2,7.48716416 2.38604019,7.06449284 2.88337887,7.00672773 L3,7 L7,7 L7,3 C7,1.71264368 8.86444709,1.66825208 8.99302964,2.86682521 Z"></path></svg>