<svg xmlns="http://www.w3.org/2000/svg" width="16" height="16" viewBox="0 0 16 16" aria-hidden="true" focusable="false"><path fill="currentColor" d="M8,0 C12.418278,0 16,3.581722 16,8 C16,12.418278 12.418278,16 8,16 C3.581722,16 0,12.418278 0,8 C0,3.581722 3.581722,0 8,0 Z M7.6,4.2 C6.97072903,3.72804677 6.08494231,4.1351861 6.00571639,4.88987971 L6,5 L6,11 C6,11.7865887 6.8571835,12.2509345 7.50847393,11.8614991 L7.6,11.8 L11.6,8.8 C12.0977778,8.42666667 12.130963,7.70488889 11.6995556,7.2850963 L11.6,7.2 L7.6,4.2 Z"></path></svg>