<svg xmlns="http://www.w3.org/2000/svg" width="16" height="16" viewBox="0 0 16 16" aria-hidden="true" focusable="false"><path fill="currentColor" d="M8,0 C12.418278,0 16,3.581722 16,8 C16,12.418278 12.418278,16 8,16 C3.581722,16 0,12.418278 0,8 C0,3.581722 3.581722,0 8,0 Z M8,2 C4.6862915,2 2,4.6862915 2,8 C2,11.3137085 4.6862915,14 8,14 C11.3137085,14 14,11.3137085 14,8 C14,4.6862915 11.3137085,2 8,2 Z M6,5 C6,4.21341129 6.8571835,3.74906551 7.50847393,4.13850094 L7.6,4.2 L11.6,7.2 C12.0977778,7.57333333 12.130963,8.29511111 11.6995556,8.7149037 L11.6,8.8 L7.6,11.8 C6.97072903,12.2719532 6.08494231,11.8648139 6.00571639,11.1101203 L6,11 L6,5 Z"></path></svg>