<svg width="16" height="16" viewBox="0 0 16 16" xmlns="http://www.w3.org/2000/svg"
  aria-hidden="true" focusable="false">
  <g fill-rule="evenodd">
    <rect fill="none" x="0" y="0" width="16" height="16"></rect>
    <path
      d="M16 8C16 3.58172 12.4183 0 8 0C3.58172 0 0 3.58172 0 8C0 12.4183 3.58172 16 8 16C12.4183 16 16 12.4183 16 8ZM6.00572 4.88988C6.08494 4.13519 6.97073 3.72805 7.6 4.2L11.6 7.2L11.6996 7.2851C12.131 7.70489 12.0978 8.42667 11.6 8.8L7.6 11.8L7.50847 11.8615C6.85718 12.2509 6 11.7866 6 11V5L6.00572 4.88988Z"
      fill="currentColor" />
  </g>
</svg>