<svg width="16" height="16" viewBox="0 0 16 16" xmlns="http://www.w3.org/2000/svg"
  aria-hidden="true" focusable="false">
  <g fill-rule="evenodd">
    <rect fill="none" x="0" y="0" width="16" height="16"></rect>
    <path
      d="M8 0C12.4183 0 16 3.58172 16 8C16 12.4183 12.4183 16 8 16C3.58172 16 0 12.4183 0 8C0 3.58172 3.58172 0 8 0ZM8 2C4.68629 2 2 4.68629 2 8C2 11.3137 4.68629 14 8 14C11.3137 14 14 11.3137 14 8C14 4.68629 11.3137 2 8 2ZM7.50847 4.1385C6.85718 3.74907 6 4.21341 6 5V11L6.00572 11.1101C6.08494 11.8648 6.97073 12.272 7.6 11.8L11.6 8.8L11.6996 8.7149C12.131 8.29511 12.0978 7.57333 11.6 7.2L7.6 4.2L7.50847 4.1385Z"
      fill="currentColor" />
  </g>
</svg>