<svg width="16" height="16" viewBox="0 0 16 16" xmlns="http://www.w3.org/2000/svg"
  aria-hidden="true" focusable="false">
  <g fill-rule="evenodd">
    <rect fill="none" x="0" y="0" width="16" height="16"></rect>
    <path
      d="M3.71657 5.41922C3.51112 5.75948 3.15907 6 2.7616 6H2.63076C1.96181 6 1.48348 5.35208 1.79361 4.75936C2.96275 2.52486 5.30326 1 7.99992 1C10.5463 1 12.7751 2.35964 14 4.39255V3C14 2.44772 14.4477 2 15 2C15.5523 2 16 2.44772 16 3V7C16 7.55228 15.5523 8 15 8H11C10.4477 8 10 7.55228 10 7C10 6.44772 10.4477 6 11 6H12.5839C11.8123 4.2341 10.0502 3 7.99992 3C6.18275 3 4.592 3.96938 3.71657 5.41922Z"
      fill="currentColor" />
    <path
      d="M2 13V11.6077C3.22492 13.6405 5.45365 15 7.99992 15C10.6966 15 13.0371 13.4751 14.2062 11.2406C14.5163 10.6479 14.038 10 13.3691 10H13.2382C12.8408 10 12.4887 10.2405 12.2833 10.5808C11.4078 12.0306 9.81708 13 7.99992 13C5.9496 13 4.18752 11.7659 3.41596 10H5C5.55228 10 6 9.55228 6 9C6 8.44771 5.55228 8 5 8L1 8C0.447715 8 0 8.44772 0 9V13C0 13.5523 0.447715 14 1 14C1.55228 14 2 13.5523 2 13Z"
      fill="currentColor" />
  </g>
</svg>