<svg width="16" height="16" viewBox="0 0 16 16" xmlns="http://www.w3.org/2000/svg"
  aria-hidden="true" focusable="false">
  <g fill-rule="evenodd">
    <rect fill="none" x="0" y="0" width="16" height="16"></rect>
    <path
      d="M8 0C8.51284 0 8.93551 0.38604 8.99327 0.883379L9 1V8.585L10.2929 7.29289C10.6534 6.93241 11.2206 6.90468 11.6129 7.2097L11.7071 7.29289C12.0676 7.65338 12.0953 8.22061 11.7903 8.6129L11.7071 8.70711L8.70711 11.7071C8.34662 12.0676 7.77939 12.0953 7.3871 11.7903L7.29289 11.7071L4.29289 8.70711C3.90237 8.31658 3.90237 7.68342 4.29289 7.29289C4.65338 6.93241 5.22061 6.90468 5.6129 7.2097L5.70711 7.29289L7 8.585V1C7 0.447715 7.44772 0 8 0Z"
      fill="currentColor" />
    <path fill-rule="evenodd" clip-rule="evenodd"
      d="M4.82019 1.68259C5.13615 2.13557 5.02507 2.75892 4.5721 3.07488C3.01524 4.16082 2 5.96193 2 8C2 11.3137 4.68629 14 8 14C11.3137 14 14 11.3137 14 8C14 5.96193 12.9848 4.16082 11.4279 3.07488C10.9749 2.75892 10.8639 2.13557 11.1798 1.68259C11.4958 1.22962 12.1191 1.11855 12.5721 1.43451C14.6422 2.87846 16 5.28059 16 8C16 12.4183 12.4183 16 8 16C3.58172 16 0 12.4183 0 8C0 5.28059 1.35779 2.87846 3.4279 1.43451C3.88088 1.11855 4.50422 1.22962 4.82019 1.68259Z"
      fill="currentColor" />
  </g>
</svg>