<svg width="16" height="16" viewBox="0 0 16 16" xmlns="http://www.w3.org/2000/svg"
  aria-hidden="true" focusable="false">
  <g fill-rule="evenodd">
    <rect fill="none" x="0" y="0" width="16" height="16"></rect>
    <path
      d="M7.70711 0.292893C8.06759 0.653377 8.09532 1.22061 7.7903 1.6129L7.70711 1.70711L5.415 4H8C11.3137 4 14 6.68629 14 10C14 13.3137 11.3137 16 8 16C7.44772 16 7 15.5523 7 15C7 14.4477 7.44772 14 8 14C10.2091 14 12 12.2091 12 10C12 7.79086 10.2091 6 8 6H5.415L7.70711 8.29289C8.06759 8.65338 8.09532 9.22061 7.7903 9.6129L7.70711 9.70711C7.34662 10.0676 6.77939 10.0953 6.3871 9.7903L6.29289 9.70711L2.29289 5.70711C1.93241 5.34662 1.90468 4.77939 2.2097 4.3871L2.29289 4.29289L6.29289 0.292893C6.68342 -0.0976311 7.31658 -0.0976311 7.70711 0.292893Z"
      fill="currentColor" />
  </g>
</svg>