<svg xmlns="http://www.w3.org/2000/svg" width="16" height="16" viewBox="0 0 16 16" aria-hidden="true" focusable="false"><path fill="currentColor" d="M7.70710678,0.292893219 C8.06759074,0.65337718 8.09532028,1.22060824 7.79029539,1.61289944 L7.70710678,1.70710678 L5.415,4 L8,4 C11.3137085,4 14,6.6862915 14,10 C14,13.3137085 11.3137085,16 8,16 C7.44771525,16 7,15.5522847 7,15 C7,14.4477153 7.44771525,14 8,14 C10.209139,14 12,12.209139 12,10 C12,7.790861 10.209139,6 8,6 L5.415,6 L7.70710678,8.29289322 C8.06759074,8.65337718 8.09532028,9.22060824 7.79029539,9.61289944 L7.70710678,9.70710678 C7.34662282,10.0675907 6.77939176,10.0953203 6.38710056,9.79029539 L6.29289322,9.70710678 L2.29289322,5.70710678 C1.93240926,5.34662282 1.90467972,4.77939176 2.20970461,4.38710056 L2.29289322,4.29289322 L6.29289322,0.292893219 C6.68341751,-0.0976310729 7.31658249,-0.0976310729 7.70710678,0.292893219 Z"></path></svg>