<svg width="16" height="16" viewBox="0 0 16 16" xmlns="http://www.w3.org/2000/svg"
  aria-hidden="true" focusable="false">
  <g fill-rule="evenodd">
    <rect fill="none" x="0" y="0" width="16" height="16"></rect>
    <path
      d="M8 0C9.68208 0 11.3461 0.680204 12.7173 1.76574L12.7968 1.82941L13.0822 2.07022L13.3921 2.35533L13.5196 2.48043L13.6802 2.64503L13.923 2.91015L14.2343 3.28268C15.3198 4.65386 16 6.31792 16 8C16 12.0523 12.0523 16 8 16C6.31792 16 4.65386 15.3198 3.28268 14.2343L3.22655 14.1895C3.11729 14.1016 3.00993 14.0111 2.90462 13.9182L2.77357 13.8003L2.60705 13.6439L2.4755 13.5147L2.3228 13.3582L2.07025 13.0822L1.76574 12.7173C0.680204 11.3461 0 9.68208 0 8C0 3.94772 3.94772 0 8 0ZM12.7649 4.65131L4.65131 12.7649C5.654 13.5234 6.83516 14 8 14C10.9477 14 14 10.9477 14 8C14 6.83516 13.5234 5.654 12.7649 4.65131ZM2 8C2 5.05228 5.05228 2 8 2C9.16522 2 10.3468 2.47695 11.3497 3.23585L3.23585 11.3497C2.47695 10.3468 2 9.16522 2 8Z"
      fill="currentColor" />
  </g>
</svg>