<svg xmlns="http://www.w3.org/2000/svg" width="16" height="16" viewBox="0 0 16 16" aria-hidden="true" focusable="false"><path fill="currentColor" d="M8,0 C9.68208046,0 11.3461433,0.680204408 12.7173184,1.76574326 L12.7968302,1.82941136 L13.0821869,2.07021798 L13.0821869,2.07021798 L13.3921258,2.35532672 L13.3921258,2.35532672 L13.5196418,2.4804269 L13.5196418,2.4804269 L13.6802379,2.64503003 L13.6802379,2.64503003 L13.9230383,2.91014998 L13.9230383,2.91014998 L14.2342567,3.28268159 C15.3197956,4.65385675 16,6.31791954 16,8 C16,12.0522847 12.0522847,16 8,16 C6.31791954,16 4.65385675,15.3197956 3.28268159,14.2342567 L3.22655228,14.1894621 C3.11728724,14.1015615 3.00992829,14.0110805 2.90461703,13.9181609 L2.77356586,13.8003012 L2.77356586,13.8003012 L2.60704997,13.6438799 L2.60704997,13.6438799 L2.47549501,13.5147055 L2.47549501,13.5147055 L2.3227975,13.3581572 L2.3227975,13.3581572 L2.07024759,13.082218 L2.07024759,13.082218 L1.76574326,12.7173184 C0.680204408,11.3461433 0,9.68208046 0,8 C0,3.94771525 3.94771525,0 8,0 Z M12.7649054,4.65130747 L4.65130747,12.7649054 C5.65399996,13.523368 6.83516455,14 8,14 C10.9477153,14 14,10.9477153 14,8 C14,6.83516455 13.523368,5.65399996 12.7649054,4.65130747 Z M8,2 C5.05228475,2 2,5.05228475 2,8 C2,9.1652227 2.47694891,10.3467854 3.23585116,11.3496925 L11.3496925,3.23585116 C10.3467854,2.47694891 9.1652227,2 8,2 Z"></path></svg>