<svg width="16" height="16" viewBox="0 0 16 16" xmlns="http://www.w3.org/2000/svg"
  aria-hidden="true" focusable="false">
  <g fill-rule="evenodd">
    <rect fill="none" x="0" y="0" width="16" height="16"></rect>
    <path
      d="M7.50386 1.13176C7.81129 0.956081 8.18871 0.956081 8.49614 1.13176L15.4793 5.12212C15.5376 5.15405 15.5925 5.19162 15.643 5.23411C15.8613 5.41755 16 5.69258 16 6V12C16 12.5523 15.5523 13 15 13C14.4477 13 14 12.5523 14 12V7.72318L8.49614 10.8682C8.18871 11.0439 7.81129 11.0439 7.50386 10.8682L0.503861 6.86824C0.192286 6.6902 0 6.35886 0 6C0 5.64114 0.192286 5.3098 0.503861 5.13176L7.50386 1.13176Z"
      fill="currentColor" />
    <path
      d="M2.5 11V8.58478L7.25579 11.3024C7.71694 11.5659 8.28306 11.5659 8.74421 11.3024L13.5 8.58478V11C13.5 13.2091 11.7091 15 9.5 15H6.5C4.29086 15 2.5 13.2091 2.5 11Z"
      fill="currentColor" />
  </g>
</svg>