<svg width="16" height="16" viewBox="0 0 16 16" xmlns="http://www.w3.org/2000/svg"
  aria-hidden="true" focusable="false">
  <g fill-rule="evenodd">
    <rect fill="none" x="0" y="0" width="16" height="16"></rect>
    <path
      d="M12 6C12 2.68629 9.31371 0 6 0C2.68629 0 0 2.68629 0 6C0 9.31371 2.68629 12 6 12C7.26764 12 8.47417 11.6042 9.47513 10.8919L14.2929 15.7071L14.3871 15.7903C14.7794 16.0953 15.3466 16.0676 15.7071 15.7071C16.0976 15.3166 16.0976 14.6834 15.7071 14.2929L10.8901 9.4744C11.6082 8.46378 12 7.26152 12 6ZM2 6C2 3.79086 3.79086 2 6 2C8.20914 2 10 3.79086 10 6C10 7.00931 9.62604 7.95767 8.96108 8.6893L8.81177 8.84549L8.65133 8.99699C7.93836 9.63301 6.99932 10 6 10C3.79086 10 2 8.20914 2 6Z"
      fill="currentColor" />
  </g>
</svg>