<svg xmlns="http://www.w3.org/2000/svg" width="16" height="16" viewBox="0 0 16 16" aria-hidden="true" focusable="false"><path fill="currentColor" d="M6,7.74491582e-13 C9.3137085,7.74491582e-13 12,2.6862915 12,6 C12,7.29898246 11.5846266,8.5351264 10.8252219,9.56391425 L10.8900586,9.47439923 L15.7071068,14.2928932 C16.0976311,14.6834175 16.0976311,15.3165825 15.7071068,15.7071068 C15.3466228,16.0675907 14.7793918,16.0953203 14.3871006,15.7902954 L14.2928932,15.7071068 L9.47512648,10.8918743 L9.53331766,10.8499347 C8.52109315,11.5886903 7.29230116,12 6,12 C2.6862915,12 0,9.3137085 0,6 C0,2.6862915 2.6862915,7.74491582e-13 6,7.74491582e-13 Z M6,2 C3.790861,2 2,3.790861 2,6 C2,8.209139 3.790861,10 6,10 C6.99932461,10 7.93836334,9.63301144 8.65132683,8.99699272 L8.81176823,8.84548807 L8.96107603,8.68929627 C9.62604013,7.95767293 10,7.00931223 10,6 C10,3.790861 8.209139,2 6,2 Z"></path></svg>