<svg width="16" height="16" viewBox="0 0 16 16" xmlns="http://www.w3.org/2000/svg"
  aria-hidden="true" focusable="false">
  <g fill-rule="evenodd">
    <rect fill="none" x="0" y="0" width="16" height="16"></rect>
    <path fill-rule="evenodd" clip-rule="evenodd"
      d="M2.5 0H1.5C0.671573 0 0 0.671573 0 1.5V2.5C0 3.15311 0.417404 3.70873 1 3.91465V12.0854C0.417404 12.2913 0 12.8469 0 13.5V14.5C0 15.3284 0.671573 16 1.5 16H2.5C3.15311 16 3.70873 15.5826 3.91465 15H12.0854C12.2913 15.5826 12.8469 16 13.5 16H14.5C15.3284 16 16 15.3284 16 14.5V13.5C16 12.8469 15.5826 12.2913 15 12.0854V3.91465C15.5826 3.70873 16 3.15311 16 2.5V1.5C16 0.671573 15.3284 0 14.5 0H13.5C12.8469 0 12.2913 0.417404 12.0854 1H3.91465C3.70873 0.417404 3.15311 0 2.5 0ZM12.0854 13C12.236 12.5738 12.5738 12.236 13 12.0854V3.91465C12.5738 3.764 12.236 3.42621 12.0854 3H3.91465C3.764 3.42621 3.42621 3.764 3 3.91465V12.0854C3.42621 12.236 3.764 12.5738 3.91465 13H12.0854ZM1 1.5C1 1.22386 1.22386 1 1.5 1H2.5C2.77614 1 3 1.22386 3 1.5V2.5C3 2.77614 2.77614 3 2.5 3H1.5C1.22386 3 1 2.77614 1 2.5V1.5ZM1.5 13C1.22386 13 1 13.2239 1 13.5V14.5C1 14.7761 1.22386 15 1.5 15H2.5C2.77614 15 3 14.7761 3 14.5V13.5C3 13.2239 2.77614 13 2.5 13H1.5ZM13 1.5C13 1.22386 13.2239 1 13.5 1H14.5C14.7761 1 15 1.22386 15 1.5V2.5C15 2.77614 14.7761 3 14.5 3H13.5C13.2239 3 13 2.77614 13 2.5V1.5ZM13.5 13C13.2239 13 13 13.2239 13 13.5V14.5C13 14.7761 13.2239 15 13.5 15H14.5C14.7761 15 15 14.7761 15 14.5V13.5C15 13.2239 14.7761 13 14.5 13H13.5Z"
      fill="currentColor" />
  </g>
</svg>