<svg width="16" height="16" viewBox="0 0 16 16" xmlns="http://www.w3.org/2000/svg"
  aria-hidden="true" focusable="false">
  <g fill-rule="evenodd">
    <rect fill="none" x="0" y="0" width="16" height="16"></rect>
    <path
      d="M3 1C4.3118 1 5.42695 1.84196 5.83453 3.01495L5.88338 3.00673L6 3H15C15.5523 3 16 3.44772 16 4C16 4.51284 15.614 4.93551 15.1166 4.99327L15 5H6C5.94344 5 5.88799 4.99531 5.83399 4.98628C5.42695 6.15804 4.3118 7 3 7C1.34315 7 0 5.65685 0 4C0 2.34315 1.34315 1 3 1ZM16 12C16 10.3431 14.6569 9 13 9C11.6882 9 10.5731 9.84196 10.166 11.0137C10.112 11.0047 10.0566 11 10 11H1L0.883379 11.0067C0.38604 11.0645 0 11.4872 0 12C0 12.5523 0.447715 13 1 13H10L10.1166 12.9933L10.1655 12.985C10.5731 14.158 11.6882 15 13 15C14.6569 15 16 13.6569 16 12ZM12 12C12 11.4477 12.4477 11 13 11C13.5523 11 14 11.4477 14 12C14 12.5523 13.5523 13 13 13C12.4477 13 12 12.5523 12 12ZM2 4C2 3.44772 2.44772 3 3 3C3.55228 3 4 3.44772 4 4C4 4.55228 3.55228 5 3 5C2.44772 5 2 4.55228 2 4Z"
      fill="currentColor" />
  </g>
</svg>