<svg xmlns="http://www.w3.org/2000/svg" width="16" height="16" viewBox="0 0 16 16" aria-hidden="true" focusable="false"><path fill="currentColor" d="M13,10 C14.6568542,10 16,11.3431458 16,13 C16,14.6568542 14.6568542,16 13,16 C11.6882004,16 10.5730503,15.1580438 10.1654654,13.9850473 L10.1166211,13.9932723 L10,14 L1,14 C0.44771525,14 0,13.5522847 0,13 C0,12.4871642 0.38604019,12.0644928 0.883378875,12.0067277 L1,12 L10,12 C10.0565551,12 10.1120136,12.0046948 10.1660072,12.013716 C10.5730503,10.8419562 11.6882004,10 13,10 Z M13,12 C12.4477153,12 12,12.4477153 12,13 C12,13.5522847 12.4477153,14 13,14 C13.5522847,14 14,13.5522847 14,13 C14,12.4477153 13.5522847,12 13,12 Z M3,0 C4.31179956,0 5.42694971,0.841956184 5.83453458,2.01495267 L5.88337887,2.00672773 L6,2 L15,2 C15.5522847,2 16,2.44771525 16,3 C16,3.51283584 15.6139598,3.93550716 15.1166211,3.99327227 L15,4 L6,4 C5.94344492,4 5.88798638,3.99530518 5.83399285,3.98628401 C5.42694971,5.15804382 4.31179956,6 3,6 C1.34314575,6 0,4.65685425 0,3 C0,1.34314575 1.34314575,0 3,0 Z M3,2 C2.44771525,2 2,2.44771525 2,3 C2,3.55228475 2.44771525,4 3,4 C3.55228475,4 4,3.55228475 4,3 C4,2.44771525 3.55228475,2 3,2 Z"></path></svg>