<svg xmlns="http://www.w3.org/2000/svg" width="16" height="16" viewBox="0 0 16 16" aria-hidden="true" focusable="false"><path fill="currentColor" d="M15,9 C15.5128358,9 15.9355072,9.38604019 15.9932723,9.88337887 L16,10 L16,15 C16,15.5128358 15.6139598,15.9355072 15.1166211,15.9932723 L15,16 L1,16 C0.487164161,16 0.0644928393,15.6139598 0.00672773133,15.1166211 L0,15 L0,10 C0,9.44771525 0.44771525,9 1,9 C1.51283584,9 1.93550716,9.38604019 1.99327227,9.88337887 L2,10 L2,14 L14,14 L14,10 C14,9.48716416 14.3860402,9.06449284 14.8833789,9.00672773 L15,9 Z M8.61289944,0.209704612 L8.70710678,0.292893219 L12.7071068,4.29289322 C13.0976311,4.68341751 13.0976311,5.31658249 12.7071068,5.70710678 C12.3466228,6.06759074 11.7793918,6.09532028 11.3871006,5.79029539 L11.2928932,5.70710678 L9,3.415 L9,11 C9,11.5522847 8.55228475,12 8,12 C7.48716416,12 7.06449284,11.6139598 7.00672773,11.1166211 L7,11 L7,3.415 L4.70710678,5.70710678 C4.34662282,6.06759074 3.77939176,6.09532028 3.38710056,5.79029539 L3.29289322,5.70710678 C2.93240926,5.34662282 2.90467972,4.77939176 3.20970461,4.38710056 L3.29289322,4.29289322 L7.29289322,0.292893219 C7.62333685,-0.0375504127 8.12750547,-0.0883878944 8.51140295,0.140380774 L8.61289944,0.209704612 Z"></path></svg>