<svg width="16" height="16" viewBox="0 0 16 16" xmlns="http://www.w3.org/2000/svg"
  aria-hidden="true" focusable="false">
  <g fill-rule="evenodd">
    <rect fill="none" x="0" y="0" width="16" height="16"></rect>
    <path
      d="M8.70711 0.292893L8.6129 0.209705L8.5114 0.140381C8.12751 -0.0883879 7.62334 -0.0375504 7.29289 0.292893L3.29289 4.29289L3.2097 4.3871C2.90468 4.77939 2.93241 5.34662 3.29289 5.70711L3.3871 5.7903C3.77939 6.09532 4.34662 6.06759 4.70711 5.70711L7 3.415V11L7.00673 11.1166C7.06449 11.614 7.48716 12 8 12C8.55229 12 9 11.5523 9 11V3.415L11.2929 5.70711L11.3871 5.7903C11.7794 6.09532 12.3466 6.06759 12.7071 5.70711C13.0976 5.31658 13.0976 4.68342 12.7071 4.29289L8.70711 0.292893ZM15.9933 9.88338C15.9355 9.38604 15.5128 9 15 9L14.8834 9.00673C14.386 9.06449 14 9.48716 14 10V14H2V10L1.99327 9.88338C1.93551 9.38604 1.51284 9 1 9C0.447715 9 0 9.44771 0 10V15L0.00672773 15.1166C0.0644928 15.614 0.487164 16 1 16H15L15.1166 15.9933C15.614 15.9355 16 15.5128 16 15V10L15.9933 9.88338Z"
      fill="currentColor" />
  </g>
</svg>