<svg xmlns="http://www.w3.org/2000/svg" width="16" height="16" viewBox="0 0 16 16" aria-hidden="true" focusable="false"><path fill="currentColor" d="M8,2 C12.3599467,2 16,4.6000381 16,8 C16,11.3999619 12.3599467,14 8,14 C3.64005335,14 0,11.3999619 0,8 C0,4.6000381 3.64005335,2 8,2 Z M8,4 C4.62796016,4 2,5.8771144 2,8 C2,10.1228856 4.62796016,12 8,12 C11.3720398,12 14,10.1228856 14,8 C14,5.8771144 11.3720398,4 8,4 Z M8,6 C9.1045695,6 10,6.8954305 10,8 C10,9.1045695 9.1045695,10 8,10 C6.8954305,10 6,9.1045695 6,8 C6,6.8954305 6.8954305,6 8,6 Z"></path></svg>