<svg width="16" height="16" viewBox="0 0 16 16" xmlns="http://www.w3.org/2000/svg"
  aria-hidden="true" focusable="false">
  <g fill-rule="evenodd">
    <rect fill="none" x="0" y="0" width="16" height="16"></rect>
    <path
      d="M8 2C12.3599 2 16 4.60004 16 8C16 11.4 12.3599 14 8 14C3.64005 14 0 11.4 0 8C0 4.60004 3.64005 2 8 2ZM8 4C4.62796 4 2 5.87711 2 8C2 10.1229 4.62796 12 8 12C11.372 12 14 10.1229 14 8C14 5.87711 11.372 4 8 4ZM10 8C10 6.89543 9.10457 6 8 6C6.89543 6 6 6.89543 6 8C6 9.10457 6.89543 10 8 10C9.10457 10 10 9.10457 10 8Z"
      fill="currentColor" />
  </g>
</svg>