<svg width="16" height="16" viewBox="0 0 16 16" xmlns="http://www.w3.org/2000/svg"
  aria-hidden="true" focusable="false">
  <g fill-rule="evenodd">
    <rect fill="none" x="0" y="0" width="16" height="16"></rect>
    <path
      d="M4.70711 0.292893L4.6129 0.209705C4.22061 -0.0953203 3.65338 -0.0675907 3.29289 0.292893L0.292893 3.29289L0.209705 3.3871C-0.0953203 3.77939 -0.0675907 4.34662 0.292893 4.70711L0.387101 4.7903C0.779392 5.09532 1.34662 5.06759 1.70711 4.70711L3 3.415V8C3 8.55229 3.44772 9 4 9C4.55228 9 5 8.55229 5 8V3.415L6.29289 4.70711L6.3871 4.7903C6.77939 5.09532 7.34662 5.06759 7.70711 4.70711C8.09763 4.31658 8.09763 3.68342 7.70711 3.29289L4.70711 0.292893ZM13 8C13 7.44772 12.5523 7 12 7C11.4477 7 11 7.44772 11 8V12.585L9.70711 11.2929L9.6129 11.2097C9.22061 10.9047 8.65338 10.9324 8.29289 11.2929C7.90237 11.6834 7.90237 12.3166 8.29289 12.7071L11.2929 15.7071L11.3871 15.7903C11.7794 16.0953 12.3466 16.0676 12.7071 15.7071L15.7071 12.7071L15.7903 12.6129C16.0953 12.2206 16.0676 11.6534 15.7071 11.2929L15.6129 11.2097C15.2206 10.9047 14.6534 10.9324 14.2929 11.2929L13 12.585V8Z"
      fill="currentColor" />
  </g>
</svg>