<svg width="16" height="16" viewBox="0 0 16 16" xmlns="http://www.w3.org/2000/svg"
  aria-hidden="true" focusable="false">
  <g fill-rule="evenodd">
    <rect fill="none" x="0" y="0" width="16" height="16"></rect>
    <path
      d="M7.56325 0.173712C7.39799 0.0610543 7.20185 0 7 0H1L0.883379 0.00672773C0.38604 0.0644928 0 0.487164 0 1V7L0.00738862 7.12138C0.0367635 7.36167 0.152646 7.58475 0.335636 7.74741L9.33564 15.7474L9.43435 15.8248C9.87643 16.1291 10.493 16.0303 10.8137 15.5812L15.8137 8.58124L15.8808 8.47357C16.0992 8.06836 16.0132 7.55779 15.6585 7.24742L7.6585 0.247423L7.56325 0.173712ZM3 5C3 3.89543 3.89543 3 5 3C6.10457 3 7 3.89543 7 5C7 6.10457 6.10457 7 5 7C3.89543 7 3 6.10457 3 5Z"
      fill="currentColor" />
  </g>
</svg>