<svg width="16" height="16" viewBox="0 0 16 16" xmlns="http://www.w3.org/2000/svg"
  aria-hidden="true" focusable="false">
  <g fill-rule="evenodd">
    <rect fill="none" x="0" y="0" width="16" height="16"></rect>
    <path
      d="M7 0C7.20185 0 7.39799 0.0610543 7.56325 0.173712L7.6585 0.247423L15.6585 7.24742C16.0132 7.55779 16.0992 8.06836 15.8808 8.47357L15.8137 8.58124L10.8137 15.5812C10.493 16.0303 9.87643 16.1291 9.43435 15.8248L9.33564 15.7474L0.335636 7.74741C0.152646 7.58475 0.0367635 7.36167 0.00738862 7.12138L0 7V1C0 0.487164 0.38604 0.0644928 0.883379 0.00672773L1 0H7ZM6.624 2H2V6.551L9.833 13.513L13.659 8.155L6.624 2ZM7 5C7 3.89543 6.10457 3 5 3C3.89543 3 3 3.89543 3 5C3 6.10457 3.89543 7 5 7C6.10457 7 7 6.10457 7 5Z"
      fill="currentColor" />
  </g>
</svg>