<svg xmlns="http://www.w3.org/2000/svg" width="16" height="16" viewBox="0 0 16 16" aria-hidden="true" focusable="false"><path fill="currentColor" d="M7,3.95905531e-13 C7.20185262,3.95905531e-13 7.39798776,0.0610543386 7.56325188,0.173711952 L7.65850461,0.247423305 L15.6585046,7.24742331 C16.0132096,7.55779017 16.0991779,8.06835747 15.880849,8.47356796 L15.8137335,8.58123819 L10.8137335,15.5812382 C10.4929736,16.030302 9.8764296,16.1291156 9.43434479,15.824813 L9.33563616,15.7474093 L0.335636161,7.74740932 C0.152646135,7.58475152 0.0367634639,7.36167496 0.00738861958,7.12138148 L0,7 L0,1 C0,0.487164161 0.38604019,0.0644928393 0.883378875,0.00672773133 L1,3.95905531e-13 L7,3.95905531e-13 Z M6.624,2 L2,2 L2,6.551 L9.833,13.513 L13.659,8.155 L6.624,2 Z M5,3 C6.1045695,3 7,3.8954305 7,5 C7,6.1045695 6.1045695,7 5,7 C3.8954305,7 3,6.1045695 3,5 C3,3.8954305 3.8954305,3 5,3 Z"></path></svg>