<svg width="16" height="16" viewBox="0 0 16 16" xmlns="http://www.w3.org/2000/svg"
  aria-hidden="true" focusable="false">
  <g fill-rule="evenodd">
    <rect fill="none" x="0" y="0" width="16" height="16"></rect>
    <path
      d="M8.99327 0.883379C8.93551 0.38604 8.51284 0 8 0C7.44772 0 7 0.447715 7 1V3L7.00673 3.11662C7.06449 3.61396 7.48716 4 8 4C8.55229 4 9 3.55228 9 3V1L8.99327 0.883379ZM13.7346 3.67014C14.0454 3.27762 14.0195 2.70578 13.6569 2.34315C13.2663 1.95262 12.6332 1.95262 12.2426 2.34315L10.8284 3.75736L10.7507 3.84458C10.4399 4.2371 10.4658 4.80894 10.8284 5.17157C11.219 5.5621 11.8521 5.5621 12.2426 5.17157L13.6569 3.75736L13.7346 3.67014ZM8 5C9.55228 5 11 6.44772 11 8C11 9.55228 9.55228 11 8 11C6.44772 11 5 9.55228 5 8C5 6.44772 6.44772 5 8 5ZM5.17157 10.8284C5.5342 11.1911 5.5601 11.7629 5.24928 12.1554L5.17157 12.2426L3.75736 13.6569C3.36683 14.0474 2.73367 14.0474 2.34315 13.6569C1.98052 13.2942 1.95461 12.7224 2.26544 12.3299L2.34315 12.2426L3.75736 10.8284C4.14788 10.4379 4.78105 10.4379 5.17157 10.8284ZM8 12C8.51284 12 8.93551 12.386 8.99327 12.8834L9 13V15C9 15.5523 8.55229 16 8 16C7.48716 16 7.06449 15.614 7.00673 15.1166L7 15V13C7 12.4477 7.44772 12 8 12ZM12.2426 10.8284L12.1554 10.7507C11.7629 10.4399 11.1911 10.4658 10.8284 10.8284C10.4379 11.219 10.4379 11.8521 10.8284 12.2426L12.2426 13.6569L12.3299 13.7346C12.7224 14.0454 13.2942 14.0195 13.6569 13.6569C14.0474 13.2663 14.0474 12.6332 13.6569 12.2426L12.2426 10.8284ZM16 8C16 7.44772 15.5523 7 15 7H13L12.8834 7.00673C12.386 7.06449 12 7.48716 12 8C12 8.55229 12.4477 9 13 9H15L15.1166 8.99327C15.614 8.93551 16 8.51284 16 8ZM3 7C3.55228 7 4 7.44772 4 8C4 8.51284 3.61396 8.93551 3.11662 8.99327L3 9H1C0.447715 9 0 8.55229 0 8C0 7.48716 0.38604 7.06449 0.883379 7.00673L1 7H3ZM3.67014 2.26544L3.75736 2.34315L5.17157 3.75736C5.5621 4.14788 5.5621 4.78105 5.17157 5.17157C4.80894 5.5342 4.2371 5.5601 3.84458 5.24928L3.75736 5.17157L2.34315 3.75736C1.95262 3.36683 1.95262 2.73367 2.34315 2.34315C2.70578 1.98052 3.27762 1.95461 3.67014 2.26544Z"
      fill="currentColor" />
  </g>
</svg>