<svg xmlns="http://www.w3.org/2000/svg" width="16" height="16" viewBox="0 0 16 16" aria-hidden="true" focusable="false"><path fill="currentColor" d="M8,12 C8.51283584,12 8.93550716,12.3860402 8.99327227,12.8833789 L9,13 L9,15 C9,15.5522847 8.55228475,16 8,16 C7.48716416,16 7.06449284,15.6139598 7.00672773,15.1166211 L7,15 L7,13 C7,12.4477153 7.44771525,12 8,12 Z M5.17157288,10.8284271 C5.53420257,11.1910568 5.5601047,11.7629022 5.24927924,12.1554199 L5.17157288,12.2426407 L3.75735931,13.6568542 C3.36683502,14.0473785 2.73367004,14.0473785 2.34314575,13.6568542 C1.98051605,13.2942246 1.95461393,12.7223792 2.26543939,12.3298615 L2.34314575,12.2426407 L3.75735931,10.8284271 C4.1478836,10.4379028 4.78104858,10.4379028 5.17157288,10.8284271 Z M12.1554199,10.7507208 L12.2426407,10.8284271 L13.6568542,12.2426407 C14.0473785,12.633165 14.0473785,13.26633 13.6568542,13.6568542 C13.2942246,14.0194839 12.7223792,14.0453861 12.3298615,13.7345606 L12.2426407,13.6568542 L10.8284271,12.2426407 C10.4379028,11.8521164 10.4379028,11.2189514 10.8284271,10.8284271 C11.1910568,10.4657974 11.7629022,10.4398953 12.1554199,10.7507208 Z M8,5 C9.55228475,5 11,6.44771525 11,8 C11,9.55228475 9.55228475,11 8,11 C6.44771525,11 5,9.55228475 5,8 C5,6.44771525 6.44771525,5 8,5 Z M15,7 C15.5522847,7 16,7.44771525 16,8 C16,8.51283584 15.6139598,8.93550716 15.1166211,8.99327227 L15,9 L13,9 C12.4477153,9 12,8.55228475 12,8 C12,7.48716416 12.3860402,7.06449284 12.8833789,7.00672773 L13,7 L15,7 Z M3,7 C3.55228475,7 4,7.44771525 4,8 C4,8.51283584 3.61395981,8.93550716 3.11662113,8.99327227 L3,9 L1,9 C0.44771525,9 0,8.55228475 0,8 C0,7.48716416 0.38604019,7.06449284 0.883378875,7.00672773 L1,7 L3,7 Z M13.6568542,2.34314575 C14.0194839,2.70577545 14.0453861,3.27762084 13.7345606,3.6701385 L13.6568542,3.75735931 L12.2426407,5.17157288 C11.8521164,5.56209717 11.2189514,5.56209717 10.8284271,5.17157288 C10.4657974,4.80894318 10.4398953,4.23709778 10.7507208,3.84458013 L10.8284271,3.75735931 L12.2426407,2.34314575 C12.633165,1.95262146 13.26633,1.95262146 13.6568542,2.34314575 Z M3.6701385,2.26543939 L3.75735931,2.34314575 L5.17157288,3.75735931 C5.56209717,4.1478836 5.56209717,4.78104858 5.17157288,5.17157288 C4.80894318,5.53420257 4.23709778,5.5601047 3.84458013,5.24927924 L3.75735931,5.17157288 L2.34314575,3.75735931 C1.95262146,3.36683502 1.95262146,2.73367004 2.34314575,2.34314575 C2.70577545,1.98051605 3.27762084,1.95461393 3.6701385,2.26543939 Z M8,0 C8.51283584,0 8.93550716,0.38604019 8.99327227,0.883378875 L9,1 L9,3 C9,3.55228475 8.55228475,4 8,4 C7.48716416,4 7.06449284,3.61395981 7.00672773,3.11662113 L7,3 L7,1 C7,0.44771525 7.44771525,0 8,0 Z"></path></svg>