<svg width="16" height="16" viewBox="0 0 16 16" xmlns="http://www.w3.org/2000/svg"
  aria-hidden="true" focusable="false">
  <g fill-rule="evenodd">
    <rect fill="none" x="0" y="0" width="16" height="16"></rect>
    <path
      d="M16 1C16 0.447715 15.5523 0 15 0H1C0.447715 0 0 0.447715 0 1C0 1.55228 0.447715 2 1 2H15C15.5523 2 16 1.55228 16 1ZM14.9969 5.08071C15.0446 4.50741 14.5916 4 14 4H2L1.88363 4.00663C1.31212 4.07233 0.903396 4.616 1.01942 5.19612L3.01942 15.1961L3.04925 15.3101C3.18177 15.7173 3.56304 16 4 16H12L12.1176 15.9931C12.5429 15.943 12.8949 15.6246 12.9806 15.1961L14.9806 5.19612L14.9969 5.08071Z"
      fill="currentColor" />
  </g>
</svg>