<svg xmlns="http://www.w3.org/2000/svg" width="16" height="16" viewBox="0 0 16 16" aria-hidden="true" focusable="false"><path fill="currentColor" d="M14,4 C14.591606,4 15.0445613,4.50741385 14.9968959,5.08070942 L14.9805807,5.19611614 L12.9805807,15.1961161 C12.8948862,15.6245883 12.5428826,15.9430139 12.1176446,15.9931093 L12,16 L4,16 C3.5630424,16 3.18176682,15.7172804 3.04924818,15.3101248 L3.01941932,15.1961161 L1.01941932,5.19611614 C0.903395838,4.6159987 1.31212423,4.07232751 1.88363472,4.00663469 L2,4 L14,4 Z M15,0 C15.5522847,0 16,0.44771525 16,1 C16,1.55228475 15.5522847,2 15,2 L1,2 C0.44771525,2 0,1.55228475 0,1 C0,0.44771525 0.44771525,0 1,0 L15,0 Z"></path></svg>