<svg width="16" height="16" viewBox="0 0 16 16" xmlns="http://www.w3.org/2000/svg"
  aria-hidden="true" focusable="false">
  <g fill-rule="evenodd">
    <rect fill="none" x="0" y="0" width="16" height="16"></rect>
    <path fill-rule="evenodd" clip-rule="evenodd"
      d="M16 0H0V16H16V0ZM10.9447 3.96782L11.0295 3.95378L12.7111 4.23342C12.6578 4.38907 12.6042 4.54595 12.5502 4.70376C12.0987 6.02483 11.625 7.41083 11.1285 8.6832C10.5174 10.2533 9.85786 11.8041 9.15075 13.3333H7.49564C6.79054 11.8031 6.13081 10.2524 5.51733 8.6832C4.93298 7.192 3.87946 4.368 3.28889 2.66666L5.31502 3.00355C5.4315 3.32899 5.58323 3.74594 5.73591 4.1655C5.96889 4.80572 6.20408 5.45204 6.31964 5.78862C6.5443 6.44623 6.77292 7.10248 7.00551 7.75733C7.22714 8.38411 7.45578 9.00838 7.69138 9.63004C7.90159 10.1887 8.12572 10.7421 8.36355 11.2896C8.59153 10.7419 8.81105 10.1907 9.02204 9.63626C9.25912 9.0146 9.48994 8.39057 9.71449 7.76426C9.95025 7.1074 10.1812 6.44883 10.4075 5.78862C10.5292 5.43355 10.6139 5.1219 10.6983 4.81152C10.7724 4.53884 10.8463 4.26713 10.9447 3.96782Z"
      fill="currentColor" />
  </g>
</svg>