<svg width="16" height="16" viewBox="0 0 16 16" xmlns="http://www.w3.org/2000/svg"
  aria-hidden="true" focusable="false">
  <g fill-rule="evenodd">
    <rect fill="none" x="0" y="0" width="16" height="16"></rect>
    <path fill="currentColor"
      d="M12,7 C12.5522847,7 13,7.44771525 13,8 L13,12.585 L14.2928932,11.2928932 C14.6533772,10.9324093 15.2206082,10.9046797 15.6128994,11.2097046 L15.7071068,11.2928932 C16.0675907,11.6533772 16.0953203,12.2206082 15.7902954,12.6128994 L15.7071068,12.7071068 L12.7071068,15.7071068 C12.3466228,16.0675907 11.7793918,16.0953203 11.3871006,15.7902954 L11.2928932,15.7071068 L8.29289322,12.7071068 C7.90236893,12.3165825 7.90236893,11.6834175 8.29289322,11.2928932 C8.65337718,10.9324093 9.22060824,10.9046797 9.61289944,11.2097046 L9.70710678,11.2928932 L11,12.585 L11,8 C11,7.44771525 11.4477153,7 12,7 Z M4.61289944,0.209704612 L4.70710678,0.292893219 L7.70710678,3.29289322 C8.09763107,3.68341751 8.09763107,4.31658249 7.70710678,4.70710678 C7.34662282,5.06759074 6.77939176,5.09532028 6.38710056,4.79029539 L6.29289322,4.70710678 L5,3.415 L5,8 C5,8.55228475 4.55228475,9 4,9 C3.44771525,9 3,8.55228475 3,8 L3,3.415 L1.70710678,4.70710678 C1.34662282,5.06759074 0.779391764,5.09532028 0.387100557,4.79029539 L0.292893219,4.70710678 C-0.0675907428,4.34662282 -0.0953202783,3.77939176 0.209704612,3.38710056 L0.292893219,3.29289322 L3.29289322,0.292893219 C3.65337718,-0.0675907428 4.22060824,-0.0953202783 4.61289944,0.209704612 Z"></path>
  </g>
</svg>