<svg width="16" height="16" viewBox="0 0 16 16" xmlns="http://www.w3.org/2000/svg"
  aria-hidden="true" focusable="false">
  <g fill-rule="evenodd">
    <rect fill="none" x="0" y="0" width="16" height="16"></rect>
    <path fill="currentColor"
      d="M5,3 C7.76142375,3 10,5.23857625 10,8 C10,10.7614237 7.76142375,13 5,13 C2.23857625,13 0,10.7614237 0,8 C0,5.23857625 2.23857625,3 5,3 Z M11,3 C13.7614237,3 16,5.23857625 16,8 C16,10.7614237 13.7614237,13 11,13 C10.4477153,13 10,12.5522847 10,12 C10,11.4871642 10.3860402,11.0644928 10.8833789,11.0067277 L11,11 C12.6568542,11 14,9.65685425 14,8 C14,6.34314575 12.6568542,5 11,5 C10.4477153,5 10,4.55228475 10,4 C10,3.44771525 10.4477153,3 11,3 Z"></path>
  </g>
</svg>